<?xml version="1.0" standalone="no"?>
<!DOCTYPE svg PUBLIC "-//W3C//DTD SVG 1.1//EN" "http://www.w3.org/Graphics/SVG/1.1/DTD/svg11.dtd" >
<svg xmlns="http://www.w3.org/2000/svg" xmlns:xlink="http://www.w3.org/1999/xlink" version="1.1">
<metadata>
Created by FontForge 20161003 at Tue Nov 12 06:30:36 2019
 By www-data
(c) 2012 Klim Type Foundry. All Rights Reserved.
</metadata>
<defs>
<font id="PitchMediumItalic" horiz-adv-x="614" >
  <font-face 
    font-family="PitchMediumItalic"
    font-weight="500"
    font-style="italic"
    font-stretch="normal"
    units-per-em="1000"
    panose-1="2 6 6 9 3 2 6 13 2 3"
    ascent="762"
    descent="-238"
    x-height="424"
    cap-height="570"
    bbox="-102 -299 765 991"
    underline-thickness="55"
    underline-position="-151"
    slope="-12"
    unicode-range="U+0020-2265"
  />
<missing-glyph 
 />
    <glyph glyph-name=".notdef" 
 />
    <glyph glyph-name=".null" horiz-adv-x="0" 
 />
    <glyph glyph-name="nonmarkingreturn" 
 />
    <glyph glyph-name="space" unicode=" " 
 />
    <glyph glyph-name="exclam" unicode="!" 
d="M425 508l-106 -313h-37l32 322q2 29 20 48t47 19q28 0 41 -23.5t3 -52.5zM274 -12q-28 0 -48.5 20t-20.5 49t20.5 49t48.5 20t48 -20t20 -49t-20 -49t-48 -20z" />
    <glyph glyph-name="quotedbl" unicode="&#x22;" 
d="M439 328h-24l9 173q3 65 17.5 95.5t49.5 30.5q44 0 44 -50q0 -37 -24 -88zM238 328h-24l9 173q3 65 17.5 95.5t49.5 30.5q44 0 44 -50q0 -37 -24 -88z" />
    <glyph glyph-name="numbersign" unicode="#" 
d="M367 228l53 114h-142l-53 -114h142zM201 177l-84 -177h-58l83 177h-111l25 51h110l54 114h-115l24 51h115l83 177h59l-84 -177h142l84 177h57l-83 -177h111l-25 -51h-110l-54 -114h115l-24 -51h-115l-83 -177h-58l84 177h-142z" />
    <glyph glyph-name="dollar" unicode="$" 
d="M295 333l42 194q-64 -1 -107 -31t-43 -75q0 -31 23 -49t68 -33zM292 42q72 0 120.5 34t48.5 88q0 29 -20.5 45t-55.5 27l-51 17l-45 -211h3zM529 172q-1 -82 -70 -134.5t-172 -52.5h-10l-30 -140h-56l31 145q-82 12 -132.5 52t-50.5 95q0 31 20 53t49 22q24 0 38.5 -14.5
t14.5 -35.5q0 -19 -12 -34.5t-32 -17.5q8 -18 41 -36t76 -26l48 222l-28 9q-66 22 -99.5 53t-33.5 82q0 76 63.5 123t160.5 47h4l27 127h56l-28 -132q72 -13 118 -53t46 -92q0 -29 -18.5 -48t-43.5 -19q-23 0 -37.5 13.5t-14.5 34.5q0 19 11 32t29 15q-18 45 -102 61
l-44 -207l64 -21q56 -18 86.5 -46t30.5 -77z" />
    <glyph glyph-name="percent" unicode="%" 
d="M196 333q-54 0 -88 34.5t-34 84.5q0 58 39.5 95t94.5 37q54 0 88 -34t34 -85q0 -57 -39.5 -94.5t-94.5 -37.5zM199 387q31 0 53.5 21.5t22.5 53.5q0 29 -19.5 49t-50.5 20t-53.5 -21.5t-22.5 -54.5q0 -29 19 -48.5t51 -19.5zM452 241q54 0 88 -34t34 -84
q0 -58 -39.5 -95.5t-94.5 -37.5t-88.5 34.5t-33.5 85.5q0 57 39.5 94t94.5 37zM449 188q-31 0 -53.5 -21.5t-22.5 -53.5q0 -30 19 -50t51 -20q31 0 53.5 22t22.5 55q0 29 -19.5 48.5t-50.5 19.5zM608 583l32 -36l-599 -557l-31 36z" />
    <glyph glyph-name="ampersand" unicode="&#x26;" 
d="M261 345l5 3q61 28 88 53t27 61q0 28 -15.5 46.5t-47.5 18.5q-41 0 -68 -28t-27 -65q0 -34 28 -75zM163 48q63 0 152 77l12 10l-95 139q-80 -38 -113.5 -70.5t-33.5 -76.5q0 -35 22 -57t56 -22zM347 83q-59 -50 -102 -73t-92 -23q-57 0 -96 38t-39 95q0 66 45.5 111.5
t138.5 87.5l-3 4q-39 59 -39 109q0 60 46 106t115 46q59 0 91.5 -33.5t32.5 -83.5q0 -59 -42 -96t-112 -70l86 -124l167 142l34 -44l-171 -142l52 -75h105l-13 -58h-165l8 38l-37 54z" />
    <glyph glyph-name="quotesingle" unicode="'" 
d="M338 328h-24l9 173q3 65 17.5 95.5t49.5 30.5q44 0 44 -50q0 -37 -24 -88z" />
    <glyph glyph-name="parenleft" unicode="(" 
d="M236 179q0 -87 41 -159t113 -122l-45 -46q-78 54 -126 136.5t-48 186.5q0 67 19 129.5t51.5 113.5t77.5 97t93.5 80.5t104.5 64.5l24 -55q-136 -73 -220.5 -183.5t-84.5 -242.5z" />
    <glyph glyph-name="parenright" unicode=")" 
d="M397 333q0 87 -41 159t-113 122l45 46q78 -54 126 -136.5t48 -186.5q0 -67 -19 -129.5t-51.5 -113.5t-77.5 -97t-93.5 -80.5t-104.5 -64.5l-24 55q136 73 220.5 183.5t84.5 242.5z" />
    <glyph glyph-name="asterisk" unicode="*" 
d="M310 457l-119 106l33 35l118 -104l32 155l48 -11l-32 -154l150 49l16 -46l-151 -50l118 -105l-33 -36l-117 105l-33 -155l-47 10l32 154l-151 -48l-15 46z" />
    <glyph glyph-name="plus" unicode="+" 
d="M347 262l-42 -198h-58l42 198h-198l12 58h199l42 198h58l-42 -198h197l-12 -58h-198z" />
    <glyph glyph-name="comma" unicode="," 
d="M191 68q0 32 22.5 54t54.5 22t55 -23t23 -55q0 -29 -24 -59l-158 -182l-36 26l113 149q-50 18 -50 68z" />
    <glyph glyph-name="hyphen" unicode="-" 
d="M190 237l16 74h244l-16 -74h-244z" />
    <glyph glyph-name="period" unicode="." 
d="M193 66q0 32 22.5 55t54.5 23t55 -23t23 -55t-23 -55t-55 -23t-54.5 23t-22.5 55z" />
    <glyph glyph-name="slash" unicode="/" 
d="M-3 -103l586 746l51 -34l-586 -745z" />
    <glyph glyph-name="zero" unicode="0" 
d="M370 584q96 0 146.5 -64t50.5 -167q0 -143 -84 -255t-208 -112q-95 0 -145.5 64t-50.5 168q0 92 36.5 175.5t104.5 137t150 53.5zM283 49q63 0 113 46t76 115t26 143q0 77 -33.5 122.5t-101.5 45.5q-94 0 -154.5 -93.5t-60.5 -209.5q0 -77 33.5 -123t101.5 -46z" />
    <glyph glyph-name="one" unicode="1" 
d="M135 443l215 127h84l-103 -486l20 -26h174l-13 -58h-475l13 58h183l32 26l89 419l-193 -115z" />
    <glyph glyph-name="two" unicode="2" 
d="M164 404l-44 42q120 138 263 138q74 0 114.5 -36.5t40.5 -96.5q0 -35 -16 -68.5t-48.5 -64.5t-60.5 -53t-73 -52l-226 -155h281l33 26l19 88h60l-36 -172h-444l16 75l260 183q40 29 55 39.5t42.5 33.5t37.5 37.5t19.5 35t9.5 42.5q0 35 -22.5 55t-67.5 20
q-108 0 -213 -117z" />
    <glyph glyph-name="three" unicode="3" 
d="M181 307l286 202h-307l12 61h381l-16 -77l-221 -154q22 8 45 8q66 0 101.5 -37.5t35.5 -96.5q0 -68 -40.5 -124.5t-109 -94t-146 -61t-162.5 -35.5v60q80 12 147 32.5t123.5 50.5t88.5 73t32 95q0 38 -24 62t-72 24q-64 0 -125 -34z" />
    <glyph glyph-name="four" unicode="4" 
d="M560 136h-119l-32 -26l-23 -110h-65l23 110l-20 26h-283l17 77q88 77 189 196t164 222l66 -20q-68 -107 -166.5 -221t-185.5 -196h238l30 142h65l-30 -142h145z" />
    <glyph glyph-name="five" unicode="5" 
d="M63 -103l1 60q168 25 275.5 86.5t107.5 155.5q0 40 -24 63.5t-71 23.5q-76 0 -137 -59h-83l88 343h351l-13 -62h-293l-59 -221q66 59 158 59q74 0 112 -39t37 -100q0 -65 -40 -121t-106.5 -93t-143.5 -61.5t-160 -34.5z" />
    <glyph glyph-name="six" unicode="6" 
d="M330 396q82 0 133.5 -50t50.5 -127q0 -99 -68 -166t-169 -67q-82 0 -134 54.5t-52 138.5q0 155 126.5 277.5t340.5 173.5l7 -59q-273 -71 -372 -237q56 62 137 62zM154 168q0 -54 35 -88t91 -34q68 0 118.5 47.5t50.5 120.5q0 54 -34.5 87.5t-92.5 33.5q-68 0 -118 -47
t-50 -120z" />
    <glyph glyph-name="seven" unicode="7" 
d="M242 509l-32 -26l-22 -105h-60l41 192h465l-15 -71l-427 -604l-56 29l413 585h-307z" />
    <glyph glyph-name="eight" unicode="8" 
d="M280 -13q-84 0 -144 42t-60 113q0 65 42 111t103 57l2 8q-33 14 -53 42.5t-20 69.5q1 81 63.5 136t153.5 55q79 0 130 -42.5t52 -109.5q0 -58 -37 -104t-91 -58l-1 -8q42 -13 66.5 -45t24.5 -76q0 -81 -67 -136t-164 -55zM302 277q-68 0 -112.5 -34.5t-44.5 -93.5
q0 -49 40 -75t100 -26q68 0 112.5 34.5t44.5 93.5q0 49 -40 75t-100 26zM361 560q-63 0 -103 -35t-40 -92q0 -45 34.5 -69.5t86.5 -24.5q63 0 103 35t40 92q0 45 -34.5 69.5t-86.5 24.5z" />
    <glyph glyph-name="nine" unicode="9" 
d="M320 175q-82 0 -133.5 50t-50.5 127q0 99 68 165.5t169 66.5q82 0 134 -54.5t52 -138.5q0 -157 -134.5 -296.5t-346.5 -189.5l-6 59q138 36 236 111t149 162q-55 -62 -137 -62zM496 402q0 54 -35 88t-91 34q-68 0 -118.5 -47t-50.5 -121q0 -54 34.5 -87.5t92.5 -33.5
q68 0 118 47t50 120z" />
    <glyph glyph-name="colon" unicode=":" 
d="M194 66q0 32 22.5 55t54.5 23t55 -23t23 -55t-23 -55t-55 -23t-54.5 23t-22.5 55zM254 344q0 32 22.5 55t54.5 23t55 -23t23 -55t-23 -55t-55 -23t-54.5 23t-22.5 55z" />
    <glyph glyph-name="semicolon" unicode=";" 
d="M191 68q0 32 22.5 54t54.5 22t55 -23t23 -55q0 -29 -24 -59l-158 -182l-36 26l113 149q-50 18 -50 68zM254 344q0 32 22.5 55t54.5 23t55 -23t23 -55t-23 -55t-55 -23t-54.5 23t-22.5 55z" />
    <glyph glyph-name="less" unicode="&#x3c;" 
d="M117 239l15 70l422 177l-15 -70l-356 -146l295 -145l-14 -63z" />
    <glyph glyph-name="equal" unicode="=" 
d="M80 173l12 55h444l-12 -55h-444zM113 325l11 56h444l-12 -56h-443z" />
    <glyph glyph-name="greater" unicode="&#x3e;" 
d="M524 309l-16 -71l-422 -176l15 70l357 145l-295 145l13 64z" />
    <glyph glyph-name="question" unicode="?" 
d="M323 185h-73l22 105q109 22 164 53t55 89q0 45 -35.5 70t-90.5 25t-99 -19.5t-54 -44.5q47 -15 47 -49q0 -21 -17 -37t-42 -16q-27 0 -46 20t-19 50q0 66 68.5 109.5t161.5 43.5q86 0 140.5 -41.5t53.5 -109.5q0 -76 -61.5 -120.5t-160.5 -63.5zM267 -12q-28 0 -48 20
t-20 49t20 49t48 20q29 0 49 -20t20 -49t-20 -49t-49 -20z" />
    <glyph glyph-name="at" unicode="@" 
d="M443 185q-44 -46 -112 -46q-53 0 -86 32.5t-33 80.5q0 64 48.5 104t115.5 40q32 0 60.5 -13t39.5 -32l2 11q8 42 8 70q1 62 -30 96t-91 34q-82 0 -136 -56.5t-76 -159.5l-31 -145q-7 -35 -7 -69q0 -69 38 -107t101 -38q84 0 173 59l18 -50q-90 -67 -193 -67
q-91 0 -145.5 54.5t-53.5 146.5q0 31 8 73l31 143q28 131 99 202t178 71q86 0 131 -47.5t45 -133.5q0 -33 -10 -81l-28 -128q-1 -5 -1 -13q0 -25 24 -25q14 0 46 25l13 -44q-43 -36 -81 -36q-49 0 -65 49zM451 247l9 40q-19 56 -82 56q-44 0 -74 -24t-30 -62
q0 -29 18.5 -47.5t52.5 -18.5q63 0 106 56z" />
    <glyph glyph-name="A" unicode="A" 
d="M410 252l-42 253l-148 -253h190zM207 58l-12 -58h-231l12 58h62l307 512h76l87 -512h62l-12 -58h-230l12 58h71l28 21l-19 115h-235l-67 -115l18 -21h71z" />
    <glyph glyph-name="B" unicode="B" 
d="M217 268l-44 -210h128q89 0 138 33t49 89q0 88 -142 88h-129zM346 324q82 0 125.5 29.5t43.5 81.5q0 77 -129 77h-116l-40 -188h116zM453 297q44 -7 72 -38.5t28 -74.5q0 -86 -70 -135t-193 -49h-301l13 58h83l32 26l85 402l-20 26h-83l12 58h290q90 0 135.5 -33
t45.5 -93q0 -54 -35.5 -93.5t-93.5 -53.5z" />
    <glyph glyph-name="C" unicode="C" 
d="M491 138l35 -48q-112 -104 -233 -104q-104 0 -165 67t-61 173q0 146 89.5 252t220.5 106q100 0 145 -73l12 5l11 54h62l-41 -197h-49q-6 73 -42 110.5t-99 37.5q-102 0 -171 -87.5t-69 -206.5q0 -78 41.5 -127.5t115.5 -49.5q105 0 198 88z" />
    <glyph glyph-name="D" unicode="D" 
d="M152 58h78q130 0 210 78.5t80 194.5q0 83 -47.5 132t-146.5 49h-78zM217 0h-228l13 58h62l31 26l86 402l-20 26h-62l12 58h224q127 0 191.5 -64.5t64.5 -174.5q0 -141 -104 -236t-270 -95z" />
    <glyph glyph-name="E" unicode="E" 
d="M173 58h254l32 26l23 108h60l-42 -192h-511l13 58h83l32 26l85 402l-20 26h-83l12 58h505l-41 -192h-60l23 108l-20 26h-248l-41 -193h114l31 26l13 63h52l-49 -232h-52l13 63l-20 26h-114z" />
    <glyph glyph-name="F" unicode="F" 
d="M332 0h-327l13 58h90l32 26l85 402l-20 26h-90l12 58h512l-41 -192h-60l23 108l-20 26h-248l-41 -193h119l31 26l12 58h52l-47 -222h-52l12 58l-20 26h-119l-38 -181l20 -26h123z" />
    <glyph glyph-name="G" unicode="G" 
d="M258 -14q-92 0 -147.5 67.5t-55.5 169.5q0 93 38 175t111 134t163 52q50 0 88 -19.5t56 -51.5l14 6l11 51h58l-39 -186h-48q-5 65 -43 101t-97 36q-107 0 -174.5 -90.5t-67.5 -207.5q0 -79 38.5 -127.5t109.5 -48.5q81 0 176 91l14 66l-16 21h-80l12 58h223l-13 -58h-38
l-29 -24l-43 -201h-60l11 50l-11 6q-76 -70 -161 -70z" />
    <glyph glyph-name="H" unicode="H" 
d="M494 486l-20 26h-55l12 58h224l-12 -58h-55l-32 -26l-85 -402l20 -26h55l-13 -58h-224l13 58h55l32 26l39 184h-258l-39 -184l20 -26h55l-13 -58h-224l13 58h55l32 26l85 402l-20 26h-55l12 58h224l-12 -58h-55l-32 -26l-34 -160h258z" />
    <glyph glyph-name="I" unicode="I" 
d="M332 486l-20 26h-146l12 58h410l-12 -58h-146l-32 -26l-85 -402l20 -26h146l-13 -58h-410l13 58h146l32 26z" />
    <glyph glyph-name="J" unicode="J" 
d="M380 219l57 267l-21 26h-176l12 58h378l-12 -58h-84l-31 -26l-58 -272q-25 -113 -83 -170.5t-144 -57.5q-78 0 -127 48.5t-49 115.5q0 45 21.5 71t53.5 26q30 0 48.5 -18t18.5 -44q0 -24 -18 -41t-52 -15q1 -35 30.5 -60t77.5 -25q61 0 99.5 42t58.5 133z" />
    <glyph glyph-name="K" unicode="K" 
d="M226 58l-13 -58h-224l13 58h55l32 26l85 402l-20 26h-55l12 58h224l-12 -58h-55l-32 -26l-50 -237l289 242l-19 21h-44l13 58h217l-12 -58h-55l-224 -187l139 -267h67l-13 -58h-228l13 58h54l27 21l-107 206l-133 -111l-19 -90l20 -26h55z" />
    <glyph glyph-name="L" unicode="L" 
d="M122 570h271l-12 -58h-80l-32 -26l-91 -428h254l32 26l29 138h60l-48 -222h-505l13 58h77l32 26l85 402l-20 26h-77z" />
    <glyph glyph-name="M" unicode="M" 
d="M339 187h-74l-28 317h-25l-89 -420l20 -26h55l-13 -58h-212l13 58h45l32 26l85 402l-20 26h-45l12 58h191l28 -324l164 324h193l-12 -58h-45l-32 -26l-85 -402l20 -26h45l-13 -58h-212l13 58h55l32 26l89 420h-25z" />
    <glyph glyph-name="N" unicode="N" 
d="M456 0h-66l-154 493l-87 -409l20 -26h55l-13 -58h-222l13 58h55l32 26l85 402l-20 26h-55l12 58h168l140 -465l81 381l-20 26h-55l12 58h222l-12 -58h-55l-32 -26z" />
    <glyph glyph-name="O" unicode="O" 
d="M363 584q110 0 166 -68.5t56 -179.5q0 -139 -88.5 -244.5t-212.5 -105.5q-111 0 -166.5 68.5t-55.5 179.5q0 140 88 245t213 105zM284 49q101 0 166 86t65 201q0 84 -38.5 134.5t-113.5 50.5q-102 0 -167 -85.5t-65 -201.5q0 -84 39 -134.5t114 -50.5z" />
    <glyph glyph-name="P" unicode="P" 
d="M279 512l-42 -198h129q88 0 135.5 29t47.5 85q0 84 -140 84h-130zM356 256h-131l-37 -172l21 -26h135l-13 -58h-342l13 58h93l32 26l85 402l-20 26h-93l12 58h312q193 0 193 -135q0 -87 -68.5 -133t-191.5 -46z" />
    <glyph glyph-name="Q" unicode="Q" 
d="M441 -76l-47 87q-53 -25 -110 -25q-111 0 -166.5 68.5t-55.5 179.5q0 140 88 245t213 105q110 0 166 -68.5t56 -179.5q0 -87 -37.5 -165.5t-100.5 -127.5l48 -89zM131 234q0 -84 39 -134.5t114 -50.5q43 0 80 17l-52 95l54 31l50 -93q46 40 72.5 103.5t26.5 133.5
q0 84 -38.5 134.5t-113.5 50.5q-102 0 -167 -85.5t-65 -201.5z" />
    <glyph glyph-name="R" unicode="R" 
d="M240 512l-43 -198h121q90 0 136 31t46 86q2 81 -131 81h-129zM224 0h-235l13 58h53l32 26l85 402l-20 26h-53l12 58h264q98 0 146.5 -35.5t48.5 -100.5q0 -74 -58.5 -121t-160.5 -55l109 -198h96l-13 -60h-169l13 58l-106 198h-96l-36 -172l20 -26h68z" />
    <glyph glyph-name="S" unicode="S" 
d="M310 45q63 0 105 33t42 86q0 63 -75 83l-121 33q-63 18 -96 48t-33 82q0 77 58 125.5t143 48.5q56 0 97.5 -21t63.5 -55l17 7l11 55h61l-41 -190h-52q-11 75 -53.5 110t-103.5 35q-58 0 -96.5 -28.5t-38.5 -76.5q0 -33 22 -50t66 -29l121 -34q118 -33 117 -134
q0 -81 -61.5 -134t-152.5 -53q-60 0 -109.5 25t-72.5 63l-16 -9l-15 -65h-61l45 208h52q9 -80 59.5 -121.5t117.5 -41.5z" />
    <glyph glyph-name="T" unicode="T" 
d="M128 570h510l-47 -222h-60l29 138l-20 26h-136l-91 -428l20 -26h116l-13 -58h-350l13 58h116l32 26l91 428h-136l-32 -26l-29 -138h-60z" />
    <glyph glyph-name="U" unicode="U" 
d="M273 -14q-90 0 -139.5 58t-30.5 146l63 296l-21 26h-55l12 58h224l-12 -58h-55l-31 -26l-63 -294q-13 -64 18 -105t92 -41q67 0 110 38t57 103l64 299l-21 26h-55l12 58h224l-12 -58h-55l-31 -26l-64 -301q-20 -90 -79 -144.5t-152 -54.5z" />
    <glyph glyph-name="V" unicode="V" 
d="M299 0h-76l-87 512h-62l12 58h230l-13 -58h-71l-27 -21l69 -421l248 421l-19 21h-71l13 58h235l-12 -58h-62z" />
    <glyph glyph-name="W" unicode="W" 
d="M391 427l-14 -367h22l149 431l-12 21h-92l12 58h226l-13 -58h-51l-179 -512h-115l13 371l-157 -371h-118l61 512h-51l13 58h227l-13 -58h-92l-21 -21l-56 -431h22l156 367h83z" />
    <glyph glyph-name="X" unicode="X" 
d="M212 58l-12 -58h-235l12 58h64l247 239l-134 215h-53l13 58h224l-13 -58h-67l-20 -15l95 -160l162 160l-14 15h-67l13 58h227l-13 -58h-53l-225 -218l144 -236h64l-12 -58h-230l12 58h63l21 15l-108 180l-181 -180l13 -15h63z" />
    <glyph glyph-name="Y" unicode="Y" 
d="M339 210l-26 -126l20 -26h116l-13 -58h-350l13 58h116l32 26l26 126l-137 302h-62l12 58h241l-12 -58h-71l-28 -21l100 -229l195 229l-18 21h-71l12 58h246l-12 -58h-62z" />
    <glyph glyph-name="Z" unicode="Z" 
d="M114 58h316l32 26l22 108h61l-41 -192h-486l15 69l485 443h-288l-32 -26l-23 -108h-61l41 192h454l-16 -76z" />
    <glyph glyph-name="bracketleft" unicode="[" 
d="M320 592l-143 -673h218l-12 -58h-277l168 789h277l-13 -58h-218z" />
    <glyph glyph-name="backslash" unicode="\" 
d="M491 -112l-59 -23l-292 749l59 23z" />
    <glyph glyph-name="bracketright" unicode="]" 
d="M313 -81l143 673h-218l12 58h277l-168 -789h-277l13 58h218z" />
    <glyph glyph-name="asciicircum" unicode="^" 
d="M356 584h61l119 -243h-67l-89 185l-168 -185h-79z" />
    <glyph glyph-name="underscore" unicode="_" 
d="M72 -131l14 63h324l-14 -63h-324z" />
    <glyph glyph-name="grave" unicode="`" 
d="M455 521l-20 -15l-91 99q-23 21 -23 47q0 22 14 36t34 14q40 0 51 -45z" />
    <glyph glyph-name="a" unicode="a" 
d="M476 -14q-38 0 -56 25t-9 70q-75 -95 -172 -95q-83 0 -134 54.5t-51 137.5q0 105 73 182.5t170 77.5q60 0 105.5 -29.5t59.5 -70.5l31 100h51l-75 -353q-8 -41 18 -41q14 0 25 14.5t32 53.5l49 -20q-14 -27 -22.5 -40.5t-23.5 -31.5t-32.5 -26t-38.5 -8zM119 178
q0 -58 34.5 -95.5t92.5 -37.5q56 0 98 29t81 84l22 108q-15 52 -53.5 82.5t-96.5 30.5q-76 0 -127 -59.5t-51 -141.5z" />
    <glyph glyph-name="b" unicode="b" 
d="M188 266l-22 -108q14 -52 52.5 -82.5t96.5 -30.5q77 0 128 59.5t51 142.5q0 58 -34.5 95t-93.5 37q-56 0 -97.5 -29t-80.5 -84zM151 86l-19 -86h-59l114 539l-12 16h-63l12 58h138l-57 -269q74 94 173 94q83 0 132 -54t49 -137q0 -106 -73 -183.5t-171 -77.5
q-60 0 -105 29.5t-59 70.5z" />
    <glyph glyph-name="c" unicode="c" 
d="M337 438q91 0 144 -43t53 -105q0 -28 -17.5 -47.5t-43.5 -19.5q-25 0 -42.5 16t-17.5 39q0 18 11 31.5t29 15.5q-28 56 -116 56q-79 0 -136 -52t-57 -135q0 -64 43.5 -106.5t115.5 -42.5q89 0 174 73l35 -47q-97 -85 -209 -85q-104 0 -165 58.5t-61 149.5
q0 105 76.5 174.5t183.5 69.5z" />
    <glyph glyph-name="d" unicode="d" 
d="M476 -14q-38 0 -56 25t-9 70q-75 -95 -172 -95q-83 0 -134 54.5t-51 137.5q0 105 73 182.5t170 77.5q60 0 105.5 -29.5t59.5 -70.5l43 201l-13 16h-107l12 58h184l-112 -528q-8 -41 18 -41q14 0 25 14.5t32 53.5l49 -20q-14 -27 -22.5 -40.5t-23.5 -31.5t-32.5 -26
t-38.5 -8zM119 178q0 -58 34.5 -95.5t92.5 -37.5q56 0 98 29t81 84l22 108q-15 52 -53.5 82.5t-96.5 30.5q-76 0 -127 -59.5t-51 -141.5z" />
    <glyph glyph-name="e" unicode="e" 
d="M143 226q322 -10 322 81q0 33 -33.5 53t-84.5 20q-78 0 -135 -42.5t-69 -111.5zM509 67q-93 -81 -209 -81q-99 0 -161.5 58.5t-62.5 146.5q0 105 78 176t193 71q82 0 133.5 -37t51.5 -94q0 -74 -96 -107t-295 -27q7 -55 50 -91t109 -36q98 0 175 66z" />
    <glyph glyph-name="f" unicode="f" 
d="M217 20l57 303l-20 26h-97l12 58h123q18 105 75 162.5t144 57.5q67 0 107.5 -33.5t40.5 -85.5q0 -31 -17.5 -50t-44.5 -19t-42.5 14t-15.5 36q0 19 14 32.5t35 14.5q-20 41 -77 41q-60 0 -102 -43t-57 -127h160l-12 -58h-134l-32 -26l-57 -303q-21 -109 -66 -165.5
t-122 -56.5q-61 0 -97 34.5t-36 86.5q0 30 17.5 49.5t44.5 19.5q26 0 42 -14.5t16 -36.5q0 -19 -13.5 -32t-35.5 -14q13 -42 62 -42q50 0 80.5 41.5t47.5 129.5z" />
    <glyph glyph-name="g" unicode="g" 
d="M301 379q-76 0 -125.5 -52.5t-49.5 -130.5q0 -57 35 -93.5t93 -36.5q55 0 96 27.5t80 80.5l18 98q-14 49 -51.5 78t-95.5 29zM395 21l16 78q-72 -92 -164 -92q-83 0 -134 53.5t-51 134.5q0 104 69 173.5t170 69.5q60 0 105 -29.5t59 -69.5l17 85h136l-13 -58h-58l-20 -16
l-70 -332q-22 -104 -87 -162t-165 -58q-80 0 -133.5 38t-53.5 91q-1 29 15 48t41 19q22 0 35 -13t13 -34q0 -16 -10 -27t-24 -12q9 -27 40.5 -43t76.5 -16q74 0 124 46.5t66 125.5z" />
    <glyph glyph-name="h" unicode="h" 
d="M190 257l-54 -257h-61l113 529l-20 26h-62l12 58h148l-59 -281q85 106 174 106q66 0 96 -41t15 -114l-42 -198q-9 -41 18 -41q14 0 25 14.5t32 53.5l49 -20q-15 -27 -23 -40.5t-23 -31.5t-32.5 -26t-38.5 -8q-41 0 -59 28.5t-9 70.5l38 178q25 116 -62 116
q-84 0 -175 -122z" />
    <glyph glyph-name="i" unicode="i" 
d="M291 145q-10 -44 9 -71t58 -27q75 0 136 140l50 -25q-79 -176 -189 -176q-66 0 -102 47t-22 114l42 193l-21 26h-168l12 58h254zM332 523q-27 0 -45.5 18.5t-18.5 45.5q0 28 18.5 47.5t45.5 19.5q28 0 47.5 -19t19.5 -48q0 -27 -19.5 -45.5t-47.5 -18.5z" />
    <glyph glyph-name="j" unicode="j" 
d="M478 523q-27 0 -46 18.5t-19 45.5q0 28 19 47.5t46 19.5q28 0 47 -19t19 -48q0 -27 -19 -45.5t-47 -18.5zM9 -44q-1 33 18.5 55.5t48.5 22.5q27 0 44 -16.5t17 -40.5q0 -20 -16 -35.5t-39 -16.5q4 -30 30.5 -51t70.5 -21q128 0 166 175l66 312l-21 26h-203l13 58h289
l-86 -401q-23 -110 -81 -166.5t-143 -56.5q-79 0 -126.5 46t-47.5 110z" />
    <glyph glyph-name="k" unicode="k" 
d="M441 -14q-40 0 -64.5 23.5t-30.5 64.5l-8 49q-13 80 -68 93l-124 -75l-30 -141h-60l113 529l-21 26h-67l12 58h153l-88 -414l244 155l3 15h-65l11 55h231l-11 -55h-49l-205 -124q63 -21 75 -102l8 -53q6 -50 46 -50q21 0 36 15.5t36 54.5l42 -28q-48 -96 -119 -96z" />
    <glyph glyph-name="l" unicode="l" 
d="M376 613l-99 -468q-10 -44 9 -71t58 -27q75 0 136 140l50 -25q-79 -176 -189 -176q-66 0 -102 47t-22 114l82 382l-21 26h-173l12 58h259z" />
    <glyph glyph-name="m" unicode="m" 
d="M589 89q-13 -25 -22 -39t-23 -31t-30.5 -25t-35.5 -8q-40 0 -56.5 27t-7.5 69l51 235q7 24 1 42.5t-30 18.5q-52 0 -99 -80l-63 -298h-59l68 317q13 61 -29 61q-52 0 -99 -80l-63 -298h-59l75 350l-12 16h-50l12 58h124l-14 -65q19 35 48.5 57t60.5 22q71 0 71 -77
q18 33 49.5 55t63.5 22q43 0 59.5 -27.5t5.5 -77.5l-53 -252q-8 -39 15 -39q12 0 22.5 14t31.5 52z" />
    <glyph glyph-name="n" unicode="n" 
d="M193 257l-55 -257h-60l72 340l-20 26h-62l13 58h148l-20 -92q87 106 175 106q65 0 95.5 -41t14.5 -114l-42 -198q-8 -41 18 -41q13 0 23.5 13t29.5 46q3 6 5 9l49 -20q-14 -27 -22.5 -40.5t-23.5 -31.5t-32.5 -26t-38.5 -8q-42 0 -59.5 28.5t-8.5 70.5l38 178
q25 116 -63 116q-85 0 -174 -122z" />
    <glyph glyph-name="o" unicode="o" 
d="M324 380q-79 0 -132 -53.5t-53 -131.5q0 -66 41.5 -108t109.5 -42q80 0 132.5 53t52.5 132q0 65 -41.5 107.5t-109.5 42.5zM324 438q96 0 157 -58.5t61 -149.5q0 -101 -73 -172.5t-179 -71.5q-96 0 -156.5 59t-60.5 150q0 100 73 171.5t178 71.5z" />
    <glyph glyph-name="p" unicode="p" 
d="M366 379q-56 0 -97.5 -29t-80.5 -84l-22 -108q14 -52 52.5 -82.5t96.5 -30.5q77 0 128 59.5t51 142.5q0 58 -34.5 95t-93.5 37zM151 86l-43 -200l12 -16h108l-13 -58h-257l12 58h58l20 16l99 464l-12 16h-58l13 58h132l-17 -80q76 94 173 94q83 0 132 -54t49 -137
q0 -106 -73 -183.5t-171 -77.5q-60 0 -105 29.5t-59 70.5z" />
    <glyph glyph-name="q" unicode="q" 
d="M121 178q0 -58 34.5 -95.5t93.5 -37.5q56 0 97.5 29t80.5 84l22 108q-14 52 -52.5 82.5t-96.5 30.5q-77 0 -128 -59.5t-51 -141.5zM465 338l18 86h135l-13 -58h-58l-20 -16l-99 -464l12 -16h58l-12 -58h-258l12 58h108l20 16l42 195q-75 -95 -168 -95q-83 0 -134.5 54.5
t-51.5 137.5q0 105 73 182.5t171 77.5q60 0 105.5 -29.5t59.5 -70.5z" />
    <glyph glyph-name="r" unicode="r" 
d="M442 300q0 21 13.5 33.5t33.5 12.5q10 0 18 -4q2 8 -2 13q-7 28 -48 28q-24 0 -49.5 -11t-58.5 -38t-54 -46.5t-64 -61.5l-48 -226h-60l72 340l-20 26h-105l13 58h190l-27 -127q78 80 111 103q53 38 105 38q54 0 80 -30t26 -75q0 -36 -19.5 -60t-50.5 -24q-25 0 -40.5 13
t-15.5 38z" />
    <glyph glyph-name="s" unicode="s" 
d="M367 172l-134 35q-55 14 -82 36t-27 66q0 55 54.5 92t137.5 37q82 0 135.5 -33.5t53.5 -84.5q0 -27 -16 -42.5t-37 -15.5t-34.5 11.5t-13.5 30.5q0 16 12.5 26.5t31.5 9.5q-38 46 -132 46q-57 0 -93 -20t-36 -52q0 -23 16.5 -34.5t53.5 -20.5l142 -39q102 -26 102 -99
q0 -63 -61 -99t-146 -36q-91 0 -157 38.5t-66 92.5q0 28 15.5 44.5t36.5 16.5t34 -12t13 -32q0 -16 -10.5 -26t-26.5 -10q22 -26 66.5 -42.5t95.5 -16.5q60 0 101 21t41 57q0 37 -70 55z" />
    <glyph glyph-name="t" unicode="t" 
d="M197 340l-21 26h-99l12 58h125l33 154h63l-33 -154h250l-12 -58h-226l-31 -26l-29 -139q-17 -80 9 -117.5t84 -37.5q96 0 165 118l47 -31q-35 -66 -91.5 -106.5t-126.5 -40.5q-83 0 -127.5 53.5t-23.5 152.5z" />
    <glyph glyph-name="u" unicode="u" 
d="M223 424l-56 -263q-25 -116 63 -116q87 0 172 116l56 263h61l-72 -336q-9 -44 17 -44q13 0 23.5 13t29.5 46q3 6 5 9l49 -20q-14 -27 -22.5 -40.5t-23.5 -31.5t-32.5 -26t-38.5 -8q-82 0 -65 99q-84 -99 -170 -99q-67 0 -99 43.5t-16 116.5l41 194l-20 26h-62l13 58h147z
" />
    <glyph glyph-name="v" unicode="v" 
d="M175 140q-9 -46 7 -70t51 -24q94 0 173 81.5t79 174.5q0 70 -51 77q11 -9 11 -25q0 -20 -13 -32t-35 -12q-21 0 -35.5 15.5t-14.5 38.5q0 35 23.5 54.5t58.5 19.5q50 0 82 -37t32 -100q0 -72 -42.5 -145t-117 -121.5t-155.5 -48.5q-59 0 -94 42t-19 114l43 198l-21 26
h-80l13 58h166z" />
    <glyph glyph-name="w" unicode="w" 
d="M567 309q0 -68 -25 -141t-75 -127.5t-109 -54.5q-34 0 -57 19t-29 48q-36 -67 -108 -67q-47 0 -72 36t-14 91l49 227l-21 26h-55l13 58h138l-64 -302q-8 -38 4.5 -59.5t37.5 -21.5q65 0 88 105l34 158h58l-37 -173q-8 -40 2.5 -65t39.5 -25q39 0 74 47.5t53 109t18 112.5
q-2 69 -42 75q9 -9 9 -24q0 -18 -12 -28t-32 -10q-19 0 -32 14t-13 35q0 31 22 48.5t53 17.5q48 0 76 -35.5t28 -93.5z" />
    <glyph glyph-name="x" unicode="x" 
d="M539 73q-68 -87 -144 -87q-39 1 -69 26t-44 66q-61 -92 -139 -92q-55 0 -86.5 33.5t-31.5 89.5q0 34 15.5 55t38.5 21q22 0 35.5 -13.5t14.5 -34.5q0 -17 -11 -29.5t-29 -15.5q4 -16 8 -25.5t16 -18t30 -8.5q55 0 98.5 74t43.5 170q0 44 -18 71t-49 27q-52 0 -111 -72
l-33 42q69 86 145 86q39 0 69 -25t44 -66q61 91 138 91q55 0 86.5 -33t31.5 -89q0 -34 -15.5 -55t-38.5 -21q-22 0 -35.5 13.5t-13.5 34.5q0 17 11 29.5t28 15.5q-10 52 -54 52q-54 0 -97.5 -74t-43.5 -170q0 -44 17.5 -71t48.5 -27q53 0 112 72z" />
    <glyph glyph-name="y" unicode="y" 
d="M401 21l18 83q-85 -99 -172 -99q-66 0 -99 43.5t-18 116.5l37 175l-20 26h-62l13 58h147l-51 -244q-25 -116 63 -116q90 0 175 116l52 244h61l-86 -406q-22 -103 -81 -161.5t-154 -58.5q-79 0 -128.5 36.5t-49.5 90.5q0 29 16 48t41 19q21 0 34.5 -13t13.5 -34
q0 -15 -11 -26.5t-25 -12.5q21 -57 109 -57q69 0 115 47t62 125z" />
    <glyph glyph-name="z" unicode="z" 
d="M537 109q0 -54 -42 -88.5t-107 -34.5q-49 0 -93 22t-85 46.5t-78 28.5q-45 -41 -65 -89l-40 32q28 67 93 115t162 93q95 44 144 80q-22 5 -81.5 37.5t-104.5 32.5q-30 0 -54 -13t-30 -35q20 1 32.5 -10t12.5 -29q0 -21 -14 -33.5t-36 -12.5q-23 0 -40 17t-17 47
q0 54 41.5 88.5t104.5 34.5q55 0 126.5 -37.5t106.5 -43.5q29 33 47 72l41 -31q-28 -68 -93 -116t-162 -93q-80 -38 -120 -64q27 -6 90.5 -45.5t111.5 -39.5q32 0 56.5 13t30.5 35q-20 -1 -32.5 10t-12.5 29q0 21 13.5 33.5t35.5 12.5q23 0 40.5 -17t17.5 -47z" />
    <glyph glyph-name="braceleft" unicode="{" 
d="M88 223l13 62h58q42 0 72 18.5t34 53.5q1 8 1 65.5t2 79.5q6 68 50.5 109.5t121.5 41.5q68 0 112 -25l-28 -57q-37 23 -85 23q-99 0 -108 -93q-2 -17 -1 -74.5t-1 -68.5q-3 -43 -34 -68.5t-69 -35.5q26 -8 44.5 -28t18.5 -50q0 -29 -35 -105.5t-35 -100.5q0 -57 71 -57
q53 0 99 23l3 -57q-52 -25 -115 -25q-58 0 -91 28t-33 75q0 35 36 114.5t36 102.5q0 49 -79 49h-58z" />
    <glyph glyph-name="bar" unicode="|" 
d="M432 640l-166 -778h-66l166 778h66z" />
    <glyph glyph-name="braceright" unicode="}" 
d="M544 284l-13 -62h-58q-42 0 -72 -18.5t-34 -53.5q-1 -8 -1 -65.5t-2 -79.5q-6 -68 -50.5 -109.5t-121.5 -41.5q-68 0 -112 25l28 57q37 -23 85 -23q99 0 108 93q2 17 1 74.5t1 68.5q3 43 34 68.5t69 35.5q-26 8 -44.5 28t-18.5 50q0 29 35 105.5t35 100.5q0 57 -71 57
q-53 0 -99 -23l-3 57q52 25 115 25q58 0 91 -28t33 -75q0 -35 -36 -114.5t-36 -102.5q0 -49 79 -49h58z" />
    <glyph glyph-name="asciitilde" unicode="~" 
d="M465 344h62q-13 -61 -47.5 -96.5t-81.5 -35.5q-28 0 -56.5 18t-52.5 36.5t-43 18.5q-23 0 -42.5 -18.5t-26.5 -50.5h-62q13 60 48 95.5t82 35.5q35 0 83 -36.5t69 -36.5q23 0 42 19t26 51z" />
    <glyph glyph-name="uni00A0" unicode="&#xa0;" 
 />
    <glyph glyph-name="exclamdown" unicode="&#xa1;" 
d="M199 -36l106 313h37l-32 -322q-2 -29 -20 -48t-47 -19q-28 0 -41 23.5t-3 52.5zM350 484q28 0 48.5 -20t20.5 -49t-20.5 -49t-48.5 -20t-48 20t-20 49t20 49t48 20z" />
    <glyph glyph-name="cent" unicode="&#xa2;" 
d="M246 55l69 324q-71 -9 -118.5 -59t-47.5 -126q0 -48 26 -85.5t71 -53.5zM517 71q-97 -85 -209 -85q-14 0 -20 1l-29 -136h-56l31 144q-71 19 -111.5 72.5t-40.5 126.5q0 101 71.5 170t173.5 74l31 144h56l-31 -147q73 -10 114.5 -53t41.5 -96q0 -27 -16.5 -45t-40.5 -18
t-39.5 15t-16.5 36q0 17 11 30t28 15q-9 22 -33.5 38.5t-60.5 21.5l-71 -334h8q89 0 174 73z" />
    <glyph glyph-name="sterling" unicode="&#xa3;" 
d="M560 101q-14 -66 -56.5 -104t-98.5 -38q-32 0 -67.5 18.5t-62 40t-59 40t-57.5 18.5q-32 0 -54.5 -21t-29.5 -55h-69q12 56 45.5 92t78.5 45l24 115h-81l12 57h81l8 36q24 111 90 175t164 64q75 0 121 -38.5t46 -94.5q0 -41 -21 -64t-53 -23q-21 0 -34.5 12t-13.5 31
q0 45 51 55q-22 62 -99 62q-68 0 -117 -47t-68 -132l-8 -36h163l-12 -57h-163l-24 -118q35 -10 104 -60t104 -50q34 0 57 21t31 56h68z" />
    <glyph glyph-name="yen" unicode="&#xa5;" 
d="M449 58l-13 -58h-350l13 58h118l32 26l18 83h-201l11 48h197l-33 70h-149l10 48h117l-83 179h-62l13 58h241l-13 -58h-76l-27 -21l104 -229l201 229l-19 21h-76l13 58h246l-13 -58h-62l-159 -179h118l-10 -48h-151l-63 -70h199l-11 -48h-201l-18 -83l20 -26h119z" />
    <glyph glyph-name="brokenbar" unicode="&#xa6;" 
d="M271 194h66l-71 -332h-66zM432 640l-76 -356h-66l76 356h66z" />
    <glyph glyph-name="section" unicode="&#xa7;" 
d="M341 94l5 -4q45 -38 61 -63q38 36 38 79q1 37 -51 79l-131 105l-5 4q-43 33 -62 62q-37 -33 -38 -78q0 -37 51 -79zM230 -201q-84 0 -130.5 44t-46.5 105q0 35 20 59t49 24q21 0 34 -13.5t13 -34.5q0 -18 -12.5 -31t-34.5 -16q4 -30 30.5 -55t78.5 -25q56 0 93.5 29
t37.5 75q0 15 -8.5 29.5t-16.5 21.5t-28 25l-129 102q-41 34 -61.5 62.5t-20.5 66.5q0 74 80 138q-1 4 -1 12q0 71 55 119t141 48q84 0 130.5 -44t46.5 -105q0 -34 -19.5 -58t-48.5 -24q-21 0 -34.5 13.5t-13.5 33.5q0 18 13 31t34 16q-4 30 -30.5 55t-78.5 25
q-56 0 -93.5 -29t-37.5 -75q0 -15 9 -29.5t17 -21.5t28 -24l128 -102q42 -33 62.5 -62t20.5 -67q0 -77 -81 -139q1 -4 1 -12q0 -71 -54.5 -119t-141.5 -48z" />
    <glyph glyph-name="dieresis" unicode="&#xa8;" 
d="M493 526q-26 0 -45 18.5t-19 44.5t19 45t45 19q27 0 46 -19t19 -45t-19 -44.5t-46 -18.5zM282 526q-26 0 -45 18.5t-19 44.5q0 27 19 45.5t45 18.5q27 0 46 -18.5t19 -45.5q0 -26 -19 -44.5t-46 -18.5z" />
    <glyph glyph-name="copyright" unicode="&#xa9;" 
d="M349 562q114 0 183 -70.5t68 -181.5q-1 -125 -90.5 -214t-213.5 -90q-114 0 -182.5 70.5t-68.5 181.5q1 125 90.5 214.5t213.5 89.5zM83 261q-1 -96 58 -156.5t158 -60.5q107 0 185 77.5t79 185.5q0 97 -59 157.5t-158 60.5q-108 -1 -185.5 -78.5t-77.5 -185.5zM400 211
l26 -31q-57 -53 -121 -53q-57 0 -90 34.5t-33 89.5q0 75 46.5 130t116.5 55q49 0 74 -34l6 3l5 24h37l-21 -105l-33 -2q-6 71 -70 71q-50 0 -82.5 -41.5t-31.5 -97.5q0 -38 20 -61.5t57 -23.5q47 0 94 42z" />
    <glyph glyph-name="ordfeminine" unicode="&#xaa;" 
d="M272 -12q-33 0 -56.5 23.5t-23.5 56.5t23.5 56.5t56.5 23.5t56 -23.5t23 -56.5t-23 -56.5t-56 -23.5zM477 304q-27 0 -40.5 16.5t-10.5 45.5q-52 -62 -117 -62q-60 0 -96.5 39t-36.5 99q0 74 52 128.5t122 54.5q42 0 72.5 -20t41.5 -47l23 67h42l-52 -245q-5 -27 10 -27
q13 0 39 48l40 -17q-13 -25 -22 -39t-27.5 -27.5t-39.5 -13.5zM231 442q0 -39 22.5 -63.5t62.5 -24.5q66 0 121 74l14 73q-22 74 -101 74q-51 0 -85 -39t-34 -94z" />
    <glyph glyph-name="guillemotleft" unicode="&#xab;" 
d="M394 216l83 -137l-57 -34l-105 177l180 178l40 -47zM179 216l83 -137l-57 -34l-105 177l180 178l40 -47z" />
    <glyph glyph-name="registered" unicode="&#xae;" 
d="M349 562q114 0 183 -70.5t68 -181.5q-1 -125 -90.5 -214t-213.5 -90q-114 0 -182.5 70.5t-68.5 181.5q1 125 90.5 214.5t213.5 89.5zM83 261q-1 -96 58 -156.5t158 -60.5q107 0 185 77.5t79 185.5q0 97 -59 157.5t-158 60.5q-108 -1 -185.5 -78.5t-77.5 -185.5zM358 396
h-63l-20 -94h58q88 0 88 54q0 40 -63 40zM283 130h-126l8 36h26l18 15l43 202l-12 15h-26l8 35h140q52 0 78 -20t25 -57q0 -37 -28.5 -61t-80.5 -29l57 -99h37l-8 -37h-85l8 36l-55 98h-43l-17 -83l12 -15h29z" />
    <glyph glyph-name="macron" unicode="&#xaf;" 
d="M236 590h304l-13 -60h-304z" />
    <glyph glyph-name="degree" unicode="&#xb0;" 
d="M514 488q0 -67 -46 -110.5t-110 -43.5t-103.5 40t-39.5 98q0 68 46 112t111 44q64 0 103 -40.5t39 -99.5zM271 476q0 -37 24.5 -62t64.5 -25t69 27t29 69q0 38 -24.5 63t-64.5 25q-41 0 -69.5 -27t-28.5 -70z" />
    <glyph glyph-name="plusminus" unicode="&#xb1;" 
d="M358 318l-34 -159h-57l33 159h-190l13 58h190l33 158h58l-34 -158h192l-13 -58h-191zM52 42l12 58h439l-12 -58h-439z" />
    <glyph glyph-name="twosuperior" unicode="&#xb2;" 
d="M241 491l-36 35q84 96 185 96q50 0 80 -26t30 -67q0 -32 -23.5 -64t-47 -50t-67.5 -47l-147 -97h178l26 21l10 51h51l-25 -120h-312l14 64l174 118q71 49 88 68q21 24 21 52q0 45 -54 45q-73 0 -145 -79z" />
    <glyph glyph-name="threesuperior" unicode="&#xb3;" 
d="M245 433l192 129h-203l10 51h263l-13 -65l-143 -93q12 5 28 5q43 0 67.5 -25.5t24.5 -64.5q0 -61 -50 -109t-118 -72.5t-148 -35.5v50q112 17 186 57.5t74 105.5q0 24 -15.5 39t-45.5 15q-39 0 -85 -25z" />
    <glyph glyph-name="acute" unicode="&#xb4;" 
d="M291 524l94 138q25 39 59 39q16 0 27.5 -11t11.5 -28q0 -35 -40 -60l-135 -95z" />
    <glyph glyph-name="paragraph" unicode="&#xb6;" 
d="M328 20l47 221q-93 0 -154 38t-61 113q0 59 42.5 101t103 59.5t130.5 17.5h173l-12 -58h-78l-32 -26l-100 -471q-23 -108 -68 -160.5t-126 -52.5q-68 0 -110.5 44.5t-42.5 105.5q0 33 19.5 57t47.5 24q27 0 43 -15.5t16 -39.5q0 -21 -16 -36.5t-40 -15.5q2 -29 26.5 -50
t56.5 -21q60 0 88 38.5t47 126.5z" />
    <glyph glyph-name="periodcentered" unicode="&#xb7;" 
d="M246 285q0 32 22.5 55t54.5 23t55 -23t23 -55t-23 -55t-55 -23t-54.5 23t-22.5 55z" />
    <glyph glyph-name="cedilla" unicode="&#xb8;" 
d="M347 -126q0 -45 -37 -75t-93 -30q-46 0 -82.5 22t-47.5 62l44 26q8 -30 31 -47.5t55 -17.5q34 0 55 14.5t21 41.5q-2 43 -76 37l-32 26l47 71h47l-35 -54q47 0 75 -20t28 -56z" />
    <glyph glyph-name="onesuperior" unicode="&#xb9;" 
d="M214 527l145 86h70l-68 -321l16 -20h114l-10 -49h-332l10 49h121l25 20l56 264l-126 -75z" />
    <glyph glyph-name="ordmasculine" unicode="&#xba;" 
d="M351 68q0 -33 -23 -56.5t-56 -23.5t-56.5 23.5t-23.5 56.5t23.5 56.5t56.5 23.5t56 -23.5t23 -56.5zM374 578q-54 0 -88.5 -34.5t-34.5 -87.5q0 -44 27.5 -71.5t73.5 -27.5q54 0 88.5 34.5t34.5 87.5q0 44 -27.5 71.5t-73.5 27.5zM374 628q70 0 114 -42t44 -107
q0 -70 -52 -121t-128 -51q-70 0 -114 41.5t-44 107.5q0 70 52 121t128 51z" />
    <glyph glyph-name="guillemotright" unicode="&#xbb;" 
d="M225 228l-83 137l57 34l105 -177l-180 -178l-40 47zM440 228l-83 137l57 34l105 -177l-180 -178l-40 47z" />
    <glyph glyph-name="onequarter" unicode="&#xbc;" 
d="M532 -36h-66l-14 -64h-45l13 64h-151l13 59q96 81 170 196l47 -15q-57 -90 -173 -198h103l14 66h46l-14 -66h66zM123 521l-17 38l103 61h60l-52 -245h89l-9 -41h-229l9 41h93l42 198zM37 59l223 154l13 -17l-196 -191zM531 465l41 -53l-224 -155l-13 17z" />
    <glyph glyph-name="onehalf" unicode="&#xbd;" 
d="M531 465l41 -53l-224 -155l-13 17zM37 59l223 154l13 -17l-196 -191zM335 89l-31 32q63 72 143 72q39 0 59.5 -19.5t20.5 -50.5q0 -19 -8.5 -35.5t-26.5 -32t-32 -25t-38 -24.5l-100 -65h177l-9 -41h-230l12 53l125 86q57 39 68 54q10 13 10 26q1 12 -8 20t-26 8
q-52 0 -106 -58zM123 521l-17 38l103 61h60l-52 -245h89l-9 -41h-229l9 41h93l42 198z" />
    <glyph glyph-name="threequarters" unicode="&#xbe;" 
d="M135 480l137 89h-143l9 43h195l-12 -56l-92 -58q9 3 17 3q27 0 44 -18.5t17 -47.5q0 -45 -37 -80t-87 -53.5t-109 -26.5l-1 43q78 12 132 40.5t54 72.5q0 16 -11 26t-30 10q-28 0 -62 -19zM531 465l41 -53l-224 -155l-13 17zM37 59l223 154l13 -17l-196 -191zM532 -36
h-66l-14 -64h-45l13 64h-151l13 59q96 81 170 196l47 -15q-57 -90 -173 -198h103l14 66h46l-14 -66h66z" />
    <glyph glyph-name="questiondown" unicode="&#xbf;" 
d="M301 285h73l-22 -105q-109 -22 -164 -53t-55 -89q0 -45 35.5 -70t90.5 -25t99 19.5t54 44.5q-47 15 -47 49q0 21 17 37t42 16q27 0 46 -20t19 -50q0 -66 -68.5 -109.5t-161.5 -43.5q-86 0 -140.5 41.5t-53.5 109.5q0 76 61.5 120.5t160.5 63.5zM357 482q28 0 48 -20
t20 -49t-20 -49t-48 -20q-29 0 -49 20t-20 49t20 49t49 20z" />
    <glyph glyph-name="Agrave" unicode="&#xc0;" 
d="M410 252l-42 253l-148 -253h190zM207 58l-12 -58h-231l12 58h62l307 512h76l87 -512h62l-12 -58h-230l12 58h71l28 21l-19 115h-235l-67 -115l18 -21h71zM451 656l-20 -15l-91 99q-23 21 -23 47q0 22 14 36t34 14q40 0 51 -45z" />
    <glyph glyph-name="Aacute" unicode="&#xc1;" 
d="M410 252l-42 253l-148 -253h190zM207 58l-12 -58h-231l12 58h62l307 512h76l87 -512h62l-12 -58h-230l12 58h71l28 21l-19 115h-235l-67 -115l18 -21h71zM354 659l93 138q27 39 59 39q17 0 28 -11t11 -28q0 -35 -39 -60l-136 -95z" />
    <glyph glyph-name="Acircumflex" unicode="&#xc2;" 
d="M410 252l-42 253l-148 -253h190zM207 58l-12 -58h-231l12 58h62l307 512h76l87 -512h62l-12 -58h-230l12 58h71l28 21l-19 115h-235l-67 -115l18 -21h71zM425 829q27 0 42 -31l72 -139l-24 -19l-100 105l-150 -105l-23 19l128 139q29 31 55 31z" />
    <glyph glyph-name="Atilde" unicode="&#xc3;" 
d="M410 252l-42 253l-148 -253h190zM207 58l-12 -58h-231l12 58h62l307 512h76l87 -512h62l-12 -58h-230l12 58h71l28 21l-19 115h-235l-67 -115l18 -21h71zM543 773h63q-13 -58 -49 -93.5t-83 -35.5q-28 0 -51 18t-41.5 36t-36.5 18q-23 0 -42 -19t-26 -50h-62q12 58 48 93
t83 35q27 0 50 -18t42 -36t37 -18q23 0 42 19t26 51z" />
    <glyph glyph-name="Adieresis" unicode="&#xc4;" 
d="M410 252l-42 253l-148 -253h190zM207 58l-12 -58h-231l12 58h62l307 512h76l87 -512h62l-12 -58h-230l12 58h71l28 21l-19 115h-235l-67 -115l18 -21h71zM511 651q-27 0 -46 18.5t-19 44.5t19 45t46 19t45.5 -19t18.5 -45t-18.5 -44.5t-45.5 -18.5zM300 651
q-27 0 -46 18.5t-19 44.5q0 27 19 45.5t46 18.5t45.5 -18.5t18.5 -45.5q0 -26 -18.5 -44.5t-45.5 -18.5z" />
    <glyph glyph-name="Aring" unicode="&#xc5;" 
d="M410 252l-42 253l-148 -253h190zM207 58l-12 -58h-231l12 58h62l307 512h76l87 -512h62l-12 -58h-230l12 58h71l28 21l-19 115h-235l-67 -115l18 -21h71zM526 748q0 -51 -34.5 -84t-83.5 -33q-48 0 -78.5 30.5t-30.5 74.5q0 52 35 85t84 33q48 0 78 -30.5t30 -75.5z
M477 746q0 25 -17 42.5t-44 17.5q-28 0 -47.5 -19t-19.5 -48q0 -25 17 -42t44 -17q28 0 47.5 18.5t19.5 47.5z" />
    <glyph glyph-name="AE" unicode="&#xc6;" 
d="M320 252l55 260h-24l-175 -260h144zM139 58l-12 -58h-158l13 62l290 429l-16 21h-58l12 58h457l-41 -192h-60l23 108l-20 26h-133l-40 -193h128l-12 -54h-128l-44 -207h138l32 26l23 108h59l-40 -192h-354l12 58h42l32 26l23 110h-170l-78 -115l18 -21h62z" />
    <glyph glyph-name="Ccedilla" unicode="&#xc7;" 
d="M230 -231q-46 0 -82.5 22t-47.5 62l44 26q8 -30 31 -47.5t55 -17.5q34 0 55 14.5t21 41.5q-2 43 -76 37l-32 26l39 59q-79 17 -124.5 80.5t-45.5 153.5q0 146 89.5 252t220.5 106q100 0 145 -73l12 5l11 54h62l-41 -197h-49q-6 73 -42 110.5t-99 37.5q-102 0 -171 -87.5
t-69 -206.5q0 -78 41.5 -127.5t115.5 -49.5q105 0 198 88l35 -48q-112 -104 -233 -104h-12l-24 -36q47 0 75 -20t28 -56q0 -45 -37 -75t-93 -30z" />
    <glyph glyph-name="Egrave" unicode="&#xc8;" 
d="M451 656l-20 -15l-91 99q-23 21 -23 47q0 22 14 36t34 14q40 0 51 -45zM173 58h254l32 26l23 108h60l-42 -192h-511l13 58h83l32 26l85 402l-20 26h-83l12 58h505l-41 -192h-60l23 108l-20 26h-248l-41 -193h114l31 26l13 63h52l-49 -232h-52l13 63l-20 26h-114z" />
    <glyph glyph-name="Eacute" unicode="&#xc9;" 
d="M355 659l93 138q27 39 59 39q17 0 28 -11t11 -28q0 -35 -39 -60l-136 -95zM173 58h254l32 26l23 108h60l-42 -192h-511l13 58h83l32 26l85 402l-20 26h-83l12 58h505l-41 -192h-60l23 108l-20 26h-248l-41 -193h114l31 26l13 63h52l-49 -232h-52l13 63l-20 26h-114z" />
    <glyph glyph-name="Ecircumflex" unicode="&#xca;" 
d="M173 58h254l32 26l23 108h60l-42 -192h-511l13 58h83l32 26l85 402l-20 26h-83l12 58h505l-41 -192h-60l23 108l-20 26h-248l-41 -193h114l31 26l13 63h52l-49 -232h-52l13 63l-20 26h-114zM428 829q27 0 42 -31l72 -139l-24 -19l-100 105l-150 -105l-23 19l128 139
q29 31 55 31z" />
    <glyph glyph-name="Edieresis" unicode="&#xcb;" 
d="M521 651q-27 0 -46 18.5t-19 44.5t19 45t46 19t45.5 -19t18.5 -45t-18.5 -44.5t-45.5 -18.5zM310 651q-27 0 -46 18.5t-19 44.5q0 27 19 45.5t46 18.5t45.5 -18.5t18.5 -45.5q0 -26 -18.5 -44.5t-45.5 -18.5zM173 58h254l32 26l23 108h60l-42 -192h-511l13 58h83l32 26
l85 402l-20 26h-83l12 58h505l-41 -192h-60l23 108l-20 26h-248l-41 -193h114l31 26l13 63h52l-49 -232h-52l13 63l-20 26h-114z" />
    <glyph glyph-name="Igrave" unicode="&#xcc;" 
d="M332 486l-20 26h-146l12 58h410l-12 -58h-146l-32 -26l-85 -402l20 -26h146l-13 -58h-410l13 58h146l32 26zM453 656l-20 -15l-91 99q-23 21 -23 47q0 22 14 36t34 14q40 0 51 -45z" />
    <glyph glyph-name="Iacute" unicode="&#xcd;" 
d="M332 486l-20 26h-146l12 58h410l-12 -58h-146l-32 -26l-85 -402l20 -26h146l-13 -58h-410l13 58h146l32 26zM356 659l93 138q27 39 59 39q17 0 28 -11t11 -28q0 -35 -39 -60l-136 -95z" />
    <glyph glyph-name="Icircumflex" unicode="&#xce;" 
d="M332 486l-20 26h-146l12 58h410l-12 -58h-146l-32 -26l-85 -402l20 -26h146l-13 -58h-410l13 58h146l32 26zM429 829q27 0 42 -31l72 -139l-24 -19l-100 105l-150 -105l-23 19l128 139q29 31 55 31z" />
    <glyph glyph-name="Idieresis" unicode="&#xcf;" 
d="M332 486l-20 26h-146l12 58h410l-12 -58h-146l-32 -26l-85 -402l20 -26h146l-13 -58h-410l13 58h146l32 26zM518 651q-27 0 -46 18.5t-19 44.5t19 45t46 19t45.5 -19t18.5 -45t-18.5 -44.5t-45.5 -18.5zM307 651q-27 0 -46 18.5t-19 44.5q0 27 19 45.5t46 18.5
t45.5 -18.5t18.5 -45.5q0 -26 -18.5 -44.5t-45.5 -18.5z" />
    <glyph glyph-name="Eth" unicode="&#xd0;" 
d="M217 0h-228l13 58h62l31 26l40 188h-89l12 58h90l33 156l-20 26h-62l12 58h224q127 0 191.5 -64.5t64.5 -174.5q0 -141 -104 -236t-270 -95zM152 58h78q130 0 210 78.5t80 194.5q0 83 -47.5 132t-146.5 49h-78l-38 -182h137l-12 -58h-138z" />
    <glyph glyph-name="Ntilde" unicode="&#xd1;" 
d="M537 773h63q-13 -58 -49 -93.5t-83 -35.5q-28 0 -51 18t-41.5 36t-36.5 18q-23 0 -42 -19t-26 -50h-62q12 58 48 93t83 35q27 0 50 -18t42 -36t37 -18q23 0 42 19t26 51zM456 0h-66l-154 493l-87 -409l20 -26h55l-13 -58h-222l13 58h55l32 26l85 402l-20 26h-55l12 58
h168l140 -465l81 381l-20 26h-55l12 58h222l-12 -58h-55l-32 -26z" />
    <glyph glyph-name="Ograve" unicode="&#xd2;" 
d="M454 656l-20 -15l-91 99q-23 21 -23 47q0 22 14 36t34 14q40 0 51 -45zM363 584q110 0 166 -68.5t56 -179.5q0 -139 -88.5 -244.5t-212.5 -105.5q-111 0 -166.5 68.5t-55.5 179.5q0 140 88 245t213 105zM284 49q101 0 166 86t65 201q0 84 -38.5 134.5t-113.5 50.5
q-102 0 -167 -85.5t-65 -201.5q0 -84 39 -134.5t114 -50.5z" />
    <glyph glyph-name="Oacute" unicode="&#xd3;" 
d="M358 659l93 138q27 39 59 39q17 0 28 -11t11 -28q0 -35 -39 -60l-136 -95zM363 584q110 0 166 -68.5t56 -179.5q0 -139 -88.5 -244.5t-212.5 -105.5q-111 0 -166.5 68.5t-55.5 179.5q0 140 88 245t213 105zM284 49q101 0 166 86t65 201q0 84 -38.5 134.5t-113.5 50.5
q-102 0 -167 -85.5t-65 -201.5q0 -84 39 -134.5t114 -50.5z" />
    <glyph glyph-name="Ocircumflex" unicode="&#xd4;" 
d="M363 584q110 0 166 -68.5t56 -179.5q0 -139 -88.5 -244.5t-212.5 -105.5q-111 0 -166.5 68.5t-55.5 179.5q0 140 88 245t213 105zM284 49q101 0 166 86t65 201q0 84 -38.5 134.5t-113.5 50.5q-102 0 -167 -85.5t-65 -201.5q0 -84 39 -134.5t114 -50.5zM429 829
q27 0 42 -31l72 -139l-24 -19l-100 105l-150 -105l-23 19l128 139q29 31 55 31z" />
    <glyph glyph-name="Otilde" unicode="&#xd5;" 
d="M545 773h63q-13 -58 -49 -93.5t-83 -35.5q-28 0 -51 18t-41.5 36t-36.5 18q-23 0 -42 -19t-26 -50h-62q12 58 48 93t83 35q27 0 50 -18t42 -36t37 -18q23 0 42 19t26 51zM363 584q110 0 166 -68.5t56 -179.5q0 -139 -88.5 -244.5t-212.5 -105.5q-111 0 -166.5 68.5
t-55.5 179.5q0 140 88 245t213 105zM284 49q101 0 166 86t65 201q0 84 -38.5 134.5t-113.5 50.5q-102 0 -167 -85.5t-65 -201.5q0 -84 39 -134.5t114 -50.5z" />
    <glyph glyph-name="Odieresis" unicode="&#xd6;" 
d="M518 651q-27 0 -46 18.5t-19 44.5t19 45t46 19t45.5 -19t18.5 -45t-18.5 -44.5t-45.5 -18.5zM307 651q-27 0 -46 18.5t-19 44.5q0 27 19 45.5t46 18.5t45.5 -18.5t18.5 -45.5q0 -26 -18.5 -44.5t-45.5 -18.5zM363 584q110 0 166 -68.5t56 -179.5q0 -139 -88.5 -244.5
t-212.5 -105.5q-111 0 -166.5 68.5t-55.5 179.5q0 140 88 245t213 105zM284 49q101 0 166 86t65 201q0 84 -38.5 134.5t-113.5 50.5q-102 0 -167 -85.5t-65 -201.5q0 -84 39 -134.5t114 -50.5z" />
    <glyph glyph-name="multiply" unicode="&#xd7;" 
d="M287 280l-121 154l46 38l119 -156l188 157l34 -44l-189 -156l123 -155l-46 -38l-121 157l-187 -157l-35 44z" />
    <glyph glyph-name="Oslash" unicode="&#xd8;" 
d="M363 521q-102 0 -167 -85.5t-65 -201.5q0 -56 18 -98l318 346q-39 39 -104 39zM284 49q101 0 166 86t65 201q0 58 -18 100l-318 -347q40 -40 105 -40zM585 336q0 -139 -88.5 -244.5t-212.5 -105.5q-95 0 -151 53l-84 -91l-42 34l92 99q-37 62 -37 153q0 140 88 245
t213 105q93 0 150 -52l80 87l41 -34l-87 -95q38 -61 38 -154z" />
    <glyph glyph-name="Ugrave" unicode="&#xd9;" 
d="M454 656l-20 -15l-91 99q-23 21 -23 47q0 22 14 36t34 14q40 0 51 -45zM273 -14q-90 0 -139.5 58t-30.5 146l63 296l-21 26h-55l12 58h224l-12 -58h-55l-31 -26l-63 -294q-13 -64 18 -105t92 -41q67 0 110 38t57 103l64 299l-21 26h-55l12 58h224l-12 -58h-55l-31 -26
l-64 -301q-20 -90 -79 -144.5t-152 -54.5z" />
    <glyph glyph-name="Uacute" unicode="&#xda;" 
d="M358 659l93 138q27 39 59 39q17 0 28 -11t11 -28q0 -35 -39 -60l-136 -95zM273 -14q-90 0 -139.5 58t-30.5 146l63 296l-21 26h-55l12 58h224l-12 -58h-55l-31 -26l-63 -294q-13 -64 18 -105t92 -41q67 0 110 38t57 103l64 299l-21 26h-55l12 58h224l-12 -58h-55l-31 -26
l-64 -301q-20 -90 -79 -144.5t-152 -54.5z" />
    <glyph glyph-name="Ucircumflex" unicode="&#xdb;" 
d="M273 -14q-90 0 -139.5 58t-30.5 146l63 296l-21 26h-55l12 58h224l-12 -58h-55l-31 -26l-63 -294q-13 -64 18 -105t92 -41q67 0 110 38t57 103l64 299l-21 26h-55l12 58h224l-12 -58h-55l-31 -26l-64 -301q-20 -90 -79 -144.5t-152 -54.5zM431 829q27 0 42 -31l72 -139
l-24 -19l-100 105l-150 -105l-23 19l128 139q29 31 55 31z" />
    <glyph glyph-name="Udieresis" unicode="&#xdc;" 
d="M520 651q-27 0 -46 18.5t-19 44.5t19 45t46 19t45.5 -19t18.5 -45t-18.5 -44.5t-45.5 -18.5zM309 651q-27 0 -46 18.5t-19 44.5q0 27 19 45.5t46 18.5t45.5 -18.5t18.5 -45.5q0 -26 -18.5 -44.5t-45.5 -18.5zM273 -14q-90 0 -139.5 58t-30.5 146l63 296l-21 26h-55l12 58
h224l-12 -58h-55l-31 -26l-63 -294q-13 -64 18 -105t92 -41q67 0 110 38t57 103l64 299l-21 26h-55l12 58h224l-12 -58h-55l-31 -26l-64 -301q-20 -90 -79 -144.5t-152 -54.5z" />
    <glyph glyph-name="Yacute" unicode="&#xdd;" 
d="M339 210l-26 -126l20 -26h116l-13 -58h-350l13 58h116l32 26l26 126l-137 302h-62l12 58h241l-12 -58h-71l-28 -21l100 -229l195 229l-18 21h-71l12 58h246l-12 -58h-62zM357 659l93 138q27 39 59 39q17 0 28 -11t11 -28q0 -35 -39 -60l-136 -95z" />
    <glyph glyph-name="Thorn" unicode="&#xde;" 
d="M276 496l-12 -58h130q96 0 146.5 -34t50.5 -99q0 -81 -68.5 -121.5t-191.5 -40.5h-129l-15 -69l12 -16h145l-12 -58h-342l12 58h93l32 26l85 402l-20 26h-93l13 58h305l-13 -58h-108zM252 380l-38 -179h128q85 0 132.5 25.5t47.5 74.5q0 41 -33.5 60t-108.5 19h-128z" />
    <glyph glyph-name="germandbls" unicode="&#xdf;" 
d="M131 -48q-15 -75 -45.5 -114.5t-86.5 -39.5q-45 0 -73 26.5t-28 69.5q0 30 16 49t40 19q21 0 33.5 -11.5t12.5 -31.5q0 -14 -10 -25t-28 -12q4 -31 39 -31q27 0 42.5 21.5t25.5 69.5l78 386l-17 21h-69l12 58h90q24 99 85.5 160t151.5 61q66 0 104.5 -34.5t38.5 -88.5
t-32.5 -89.5t-80.5 -45.5q65 -11 103 -53.5t38 -108.5q0 -96 -61 -159t-151 -63q-57 0 -90 31t-33 79q0 44 23.5 72t57.5 28q22 0 34.5 -13t11.5 -33t-16 -33t-36 -13q-9 0 -17 2q-5 -30 13.5 -48.5t52.5 -18.5q65 0 107.5 45.5t42.5 117.5q0 68 -48.5 101.5t-134.5 33.5
l13 58q60 0 100 27.5t40 77.5q0 32 -22 51.5t-62 19.5q-67 0 -114 -49.5t-62 -124.5z" />
    <glyph glyph-name="agrave" unicode="&#xe0;" 
d="M476 -14q-38 0 -56 25t-9 70q-75 -95 -172 -95q-83 0 -134 54.5t-51 137.5q0 105 73 182.5t170 77.5q60 0 105.5 -29.5t59.5 -70.5l31 100h51l-75 -353q-8 -41 18 -41q14 0 25 14.5t32 53.5l49 -20q-14 -27 -22.5 -40.5t-23.5 -31.5t-32.5 -26t-38.5 -8zM119 178
q0 -58 34.5 -95.5t92.5 -37.5q56 0 98 29t81 84l22 108q-15 52 -53.5 82.5t-96.5 30.5q-76 0 -127 -59.5t-51 -141.5zM408 521l-20 -15l-91 99q-23 21 -23 47q0 22 14 36t34 14q40 0 51 -45z" />
    <glyph glyph-name="aacute" unicode="&#xe1;" 
d="M476 -14q-38 0 -56 25t-9 70q-75 -95 -172 -95q-83 0 -134 54.5t-51 137.5q0 105 73 182.5t170 77.5q60 0 105.5 -29.5t59.5 -70.5l31 100h51l-75 -353q-8 -41 18 -41q14 0 25 14.5t32 53.5l49 -20q-14 -27 -22.5 -40.5t-23.5 -31.5t-32.5 -26t-38.5 -8zM119 178
q0 -58 34.5 -95.5t92.5 -37.5q56 0 98 29t81 84l22 108q-15 52 -53.5 82.5t-96.5 30.5q-76 0 -127 -59.5t-51 -141.5zM303 524l94 138q25 39 59 39q16 0 27.5 -11t11.5 -28q0 -35 -40 -60l-135 -95z" />
    <glyph glyph-name="acircumflex" unicode="&#xe2;" 
d="M476 -14q-38 0 -56 25t-9 70q-75 -95 -172 -95q-83 0 -134 54.5t-51 137.5q0 105 73 182.5t170 77.5q60 0 105.5 -29.5t59.5 -70.5l31 100h51l-75 -353q-8 -41 18 -41q14 0 25 14.5t32 53.5l49 -20q-14 -27 -22.5 -40.5t-23.5 -31.5t-32.5 -26t-38.5 -8zM119 178
q0 -58 34.5 -95.5t92.5 -37.5q56 0 98 29t81 84l22 108q-15 52 -53.5 82.5t-96.5 30.5q-76 0 -127 -59.5t-51 -141.5zM386 694q27 0 42 -31l72 -139l-24 -19l-100 105l-150 -105l-23 19l128 139q29 31 55 31z" />
    <glyph glyph-name="atilde" unicode="&#xe3;" 
d="M476 -14q-38 0 -56 25t-9 70q-75 -95 -172 -95q-83 0 -134 54.5t-51 137.5q0 105 73 182.5t170 77.5q60 0 105.5 -29.5t59.5 -70.5l31 100h51l-75 -353q-8 -41 18 -41q14 0 25 14.5t32 53.5l49 -20q-14 -27 -22.5 -40.5t-23.5 -31.5t-32.5 -26t-38.5 -8zM119 178
q0 -58 34.5 -95.5t92.5 -37.5q56 0 98 29t81 84l22 108q-15 52 -53.5 82.5t-96.5 30.5q-76 0 -127 -59.5t-51 -141.5zM497 642h63q-13 -58 -49 -93.5t-83 -35.5q-28 0 -51 18t-41.5 36t-36.5 18q-23 0 -42 -19t-26 -50h-62q12 58 48 93t83 35q27 0 50 -18t42 -36t37 -18
q23 0 42 19t26 51z" />
    <glyph glyph-name="adieresis" unicode="&#xe4;" 
d="M476 -14q-38 0 -56 25t-9 70q-75 -95 -172 -95q-83 0 -134 54.5t-51 137.5q0 105 73 182.5t170 77.5q60 0 105.5 -29.5t59.5 -70.5l31 100h51l-75 -353q-8 -41 18 -41q14 0 25 14.5t32 53.5l49 -20q-14 -27 -22.5 -40.5t-23.5 -31.5t-32.5 -26t-38.5 -8zM119 178
q0 -58 34.5 -95.5t92.5 -37.5q56 0 98 29t81 84l22 108q-15 52 -53.5 82.5t-96.5 30.5q-76 0 -127 -59.5t-51 -141.5zM472 526q-26 0 -45 18.5t-19 44.5t19 45t45 19q27 0 46 -19t19 -45t-19 -44.5t-46 -18.5zM261 526q-26 0 -45 18.5t-19 44.5q0 27 19 45.5t45 18.5
q27 0 46 -18.5t19 -45.5q0 -26 -19 -44.5t-46 -18.5z" />
    <glyph glyph-name="aring" unicode="&#xe5;" 
d="M476 -14q-38 0 -56 25t-9 70q-75 -95 -172 -95q-83 0 -134 54.5t-51 137.5q0 105 73 182.5t170 77.5q60 0 105.5 -29.5t59.5 -70.5l31 100h51l-75 -353q-8 -41 18 -41q14 0 25 14.5t32 53.5l49 -20q-14 -27 -22.5 -40.5t-23.5 -31.5t-32.5 -26t-38.5 -8zM119 178
q0 -58 34.5 -95.5t92.5 -37.5q56 0 98 29t81 84l22 108q-15 52 -53.5 82.5t-96.5 30.5q-76 0 -127 -59.5t-51 -141.5zM485 613q0 -51 -35 -84t-84 -33q-48 0 -78 30t-30 75q0 52 35 85t84 33q48 0 78 -30.5t30 -75.5zM436 611q0 25 -17 42.5t-44 17.5q-28 0 -48 -19t-20 -48
q0 -25 17 -42t45 -17q27 0 47 19t20 47z" />
    <glyph glyph-name="ae" unicode="&#xe6;" 
d="M553 67q-81 -81 -160 -81q-71 0 -109 64q-86 -64 -159 -64q-50 0 -82 29.5t-32 75.5q0 38 18.5 65.5t55 43.5t80.5 24t104 12q15 55 46 100q-13 49 -74 49q-51 0 -88 -20q21 -10 21 -35q0 -21 -15 -35t-39 -14q-20 0 -33 14t-13 34q0 48 52.5 78.5t116.5 30.5
q82 0 112 -54q59 54 126 54q56 0 86 -30t30 -71q0 -137 -278 -151q-2 -20 -2 -30q0 -50 22.5 -80.5t62.5 -30.5q58 0 122 63zM331 239h5q199 13 199 89q0 22 -15 36.5t-44 14.5q-46 0 -86 -40t-59 -100zM139 42q57 0 127 52q-7 33 -7 62q0 18 1 27q-90 -5 -137 -23t-47 -62
q0 -26 18 -41t45 -15z" />
    <glyph glyph-name="ccedilla" unicode="&#xe7;" 
d="M214 -231q-46 0 -82.5 22t-47.5 62l44 26q8 -30 31 -47.5t55 -17.5q34 0 55 14.5t21 41.5q-2 43 -76 37l-32 26l42 64q-69 19 -108 72t-39 125q0 105 76.5 174.5t183.5 69.5q91 0 144 -43t53 -105q0 -28 -17.5 -47.5t-43.5 -19.5q-25 0 -42.5 16t-17.5 39q0 18 11 31.5
t29 15.5q-28 56 -116 56q-79 0 -136 -52t-57 -135q0 -64 43.5 -106.5t115.5 -42.5q89 0 174 73l35 -47q-97 -85 -209 -85q-13 0 -37 2l-25 -38q47 0 75 -20t28 -56q0 -45 -37 -75t-93 -30z" />
    <glyph glyph-name="egrave" unicode="&#xe8;" 
d="M143 226q322 -10 322 81q0 33 -33.5 53t-84.5 20q-78 0 -135 -42.5t-69 -111.5zM509 67q-93 -81 -209 -81q-99 0 -161.5 58.5t-62.5 146.5q0 105 78 176t193 71q82 0 133.5 -37t51.5 -94q0 -74 -96 -107t-295 -27q7 -55 50 -91t109 -36q98 0 175 66zM430 521l-20 -15
l-91 99q-23 21 -23 47q0 22 14 36t34 14q40 0 51 -45z" />
    <glyph glyph-name="eacute" unicode="&#xe9;" 
d="M326 524l94 138q25 39 59 39q16 0 27.5 -11t11.5 -28q0 -35 -40 -60l-135 -95zM143 226q322 -10 322 81q0 33 -33.5 53t-84.5 20q-78 0 -135 -42.5t-69 -111.5zM509 67q-93 -81 -209 -81q-99 0 -161.5 58.5t-62.5 146.5q0 105 78 176t193 71q82 0 133.5 -37t51.5 -94
q0 -74 -96 -107t-295 -27q7 -55 50 -91t109 -36q98 0 175 66z" />
    <glyph glyph-name="ecircumflex" unicode="&#xea;" 
d="M409 694q27 0 42 -31l72 -139l-24 -19l-100 105l-150 -105l-23 19l128 139q29 31 55 31zM143 226q322 -10 322 81q0 33 -33.5 53t-84.5 20q-78 0 -135 -42.5t-69 -111.5zM509 67q-93 -81 -209 -81q-99 0 -161.5 58.5t-62.5 146.5q0 105 78 176t193 71q82 0 133.5 -37
t51.5 -94q0 -74 -96 -107t-295 -27q7 -55 50 -91t109 -36q98 0 175 66z" />
    <glyph glyph-name="edieresis" unicode="&#xeb;" 
d="M494 526q-26 0 -45 18.5t-19 44.5t19 45t45 19q27 0 46 -19t19 -45t-19 -44.5t-46 -18.5zM283 526q-26 0 -45 18.5t-19 44.5q0 27 19 45.5t45 18.5q27 0 46 -18.5t19 -45.5q0 -26 -19 -44.5t-46 -18.5zM143 226q322 -10 322 81q0 33 -33.5 53t-84.5 20q-78 0 -135 -42.5
t-69 -111.5zM509 67q-93 -81 -209 -81q-99 0 -161.5 58.5t-62.5 146.5q0 105 78 176t193 71q82 0 133.5 -37t51.5 -94q0 -74 -96 -107t-295 -27q7 -55 50 -91t109 -36q98 0 175 66z" />
    <glyph glyph-name="igrave" unicode="&#xec;" 
d="M291 145q-10 -44 9 -71t58 -27q75 0 136 140l50 -25q-79 -176 -189 -176q-66 0 -102 47t-22 114l42 193l-21 26h-168l12 58h254zM394 521l-20 -15l-91 99q-23 21 -23 47q0 22 14 36t34 14q40 0 51 -45z" />
    <glyph glyph-name="iacute" unicode="&#xed;" 
d="M289 524l94 138q25 39 59 39q16 0 27.5 -11t11.5 -28q0 -35 -40 -60l-135 -95zM291 145q-10 -44 9 -71t58 -27q75 0 136 140l50 -25q-79 -176 -189 -176q-66 0 -102 47t-22 114l42 193l-21 26h-168l12 58h254z" />
    <glyph glyph-name="icircumflex" unicode="&#xee;" 
d="M372 694q27 0 42 -31l72 -139l-24 -19l-100 105l-150 -105l-23 19l128 139q29 31 55 31zM291 145q-10 -44 9 -71t58 -27q75 0 136 140l50 -25q-79 -176 -189 -176q-66 0 -102 47t-22 114l42 193l-21 26h-168l12 58h254z" />
    <glyph glyph-name="idieresis" unicode="&#xef;" 
d="M457 526q-26 0 -45 18.5t-19 44.5t19 45t45 19q27 0 46 -19t19 -45t-19 -44.5t-46 -18.5zM246 526q-26 0 -45 18.5t-19 44.5q0 27 19 45.5t45 18.5q27 0 46 -18.5t19 -45.5q0 -26 -19 -44.5t-46 -18.5zM291 145q-10 -44 9 -71t58 -27q75 0 136 140l50 -25
q-79 -176 -189 -176q-66 0 -102 47t-22 114l42 193l-21 26h-168l12 58h254z" />
    <glyph glyph-name="eth" unicode="&#xf0;" 
d="M279 -14q-91 0 -148.5 53.5t-57.5 136.5q0 97 73 166.5t179 69.5q83 0 134 -59q-34 99 -106 152l-118 -56l-21 39l94 45q-56 29 -130 43l17 51q101 -16 175 -64l116 56l21 -40l-96 -46q125 -108 125 -285q0 -117 -73.5 -189.5t-183.5 -72.5zM468 219q0 59 -38.5 96
t-103.5 37q-80 0 -133 -50t-53 -123q0 -59 39 -96t104 -37q79 0 132 50t53 123z" />
    <glyph glyph-name="ntilde" unicode="&#xf1;" 
d="M193 257l-55 -257h-60l72 340l-20 26h-62l13 58h148l-20 -92q87 106 175 106q65 0 95.5 -41t14.5 -114l-42 -198q-8 -41 18 -41q13 0 23.5 13t29.5 46q3 6 5 9l49 -20q-14 -27 -22.5 -40.5t-23.5 -31.5t-32.5 -26t-38.5 -8q-42 0 -59.5 28.5t-8.5 70.5l38 178
q25 116 -63 116q-85 0 -174 -122zM505 642h63q-13 -58 -49 -93.5t-83 -35.5q-28 0 -51 18t-41.5 36t-36.5 18q-23 0 -42 -19t-26 -50h-62q12 58 48 93t83 35q27 0 50 -18t42 -36t37 -18q23 0 42 19t26 51z" />
    <glyph glyph-name="ograve" unicode="&#xf2;" 
d="M324 380q-79 0 -132 -53.5t-53 -131.5q0 -66 41.5 -108t109.5 -42q80 0 132.5 53t52.5 132q0 65 -41.5 107.5t-109.5 42.5zM324 438q96 0 157 -58.5t61 -149.5q0 -101 -73 -172.5t-179 -71.5q-96 0 -156.5 59t-60.5 150q0 100 73 171.5t178 71.5zM429 521l-20 -15l-91 99
q-23 21 -23 47q0 22 14 36t34 14q40 0 51 -45z" />
    <glyph glyph-name="oacute" unicode="&#xf3;" 
d="M324 524l94 138q25 39 59 39q16 0 27.5 -11t11.5 -28q0 -35 -40 -60l-135 -95zM324 380q-79 0 -132 -53.5t-53 -131.5q0 -66 41.5 -108t109.5 -42q80 0 132.5 53t52.5 132q0 65 -41.5 107.5t-109.5 42.5zM324 438q96 0 157 -58.5t61 -149.5q0 -101 -73 -172.5t-179 -71.5
q-96 0 -156.5 59t-60.5 150q0 100 73 171.5t178 71.5z" />
    <glyph glyph-name="ocircumflex" unicode="&#xf4;" 
d="M407 694q27 0 42 -31l72 -139l-24 -19l-100 105l-150 -105l-23 19l128 139q29 31 55 31zM324 380q-79 0 -132 -53.5t-53 -131.5q0 -66 41.5 -108t109.5 -42q80 0 132.5 53t52.5 132q0 65 -41.5 107.5t-109.5 42.5zM324 438q96 0 157 -58.5t61 -149.5q0 -101 -73 -172.5
t-179 -71.5q-96 0 -156.5 59t-60.5 150q0 100 73 171.5t178 71.5z" />
    <glyph glyph-name="otilde" unicode="&#xf5;" 
d="M324 380q-79 0 -132 -53.5t-53 -131.5q0 -66 41.5 -108t109.5 -42q80 0 132.5 53t52.5 132q0 65 -41.5 107.5t-109.5 42.5zM324 438q96 0 157 -58.5t61 -149.5q0 -101 -73 -172.5t-179 -71.5q-96 0 -156.5 59t-60.5 150q0 100 73 171.5t178 71.5zM517 642h63
q-13 -58 -49 -93.5t-83 -35.5q-28 0 -51 18t-41.5 36t-36.5 18q-23 0 -42 -19t-26 -50h-62q12 58 48 93t83 35q27 0 50 -18t42 -36t37 -18q23 0 42 19t26 51z" />
    <glyph glyph-name="odieresis" unicode="&#xf6;" 
d="M492 526q-26 0 -45 18.5t-19 44.5t19 45t45 19q27 0 46 -19t19 -45t-19 -44.5t-46 -18.5zM281 526q-26 0 -45 18.5t-19 44.5q0 27 19 45.5t45 18.5q27 0 46 -18.5t19 -45.5q0 -26 -19 -44.5t-46 -18.5zM324 380q-79 0 -132 -53.5t-53 -131.5q0 -66 41.5 -108t109.5 -42
q80 0 132.5 53t52.5 132q0 65 -41.5 107.5t-109.5 42.5zM324 438q96 0 157 -58.5t61 -149.5q0 -101 -73 -172.5t-179 -71.5q-96 0 -156.5 59t-60.5 150q0 100 73 171.5t178 71.5z" />
    <glyph glyph-name="divide" unicode="&#xf7;" 
d="M310 459q0 22 15 37.5t37 15.5t37.5 -15.5t15.5 -37.5t-15.5 -37.5t-37.5 -15.5t-37 15.5t-15 37.5zM231 92q0 22 15 37.5t37 15.5t37.5 -15.5t15.5 -37.5q0 -21 -15.5 -36.5t-37.5 -15.5t-37 15.5t-15 36.5zM96 247l12 58h445l-12 -58h-445z" />
    <glyph glyph-name="oslash" unicode="&#xf8;" 
d="M324 381q-79 0 -132.5 -54t-53.5 -132q0 -51 27 -91l244 254q-37 23 -85 23zM290 44q80 0 133 53.5t53 132.5q0 55 -29 93l-244 -255q38 -24 87 -24zM542 230q0 -101 -73 -172.5t-179 -71.5q-72 0 -129 38l-86 -90l-40 34l87 91q-49 57 -49 136q0 100 73 171.5t178 71.5
q71 0 127 -36l79 83l40 -34l-79 -83q51 -57 51 -138z" />
    <glyph glyph-name="ugrave" unicode="&#xf9;" 
d="M223 424l-56 -263q-25 -116 63 -116q87 0 172 116l56 263h61l-72 -336q-9 -44 17 -44q13 0 23.5 13t29.5 46q3 6 5 9l49 -20q-14 -27 -22.5 -40.5t-23.5 -31.5t-32.5 -26t-38.5 -8q-82 0 -65 99q-84 -99 -170 -99q-67 0 -99 43.5t-16 116.5l41 194l-20 26h-62l13 58h147z
M409 521l-20 -15l-91 99q-23 21 -23 47q0 22 14 36t34 14q40 0 51 -45z" />
    <glyph glyph-name="uacute" unicode="&#xfa;" 
d="M304 524l94 138q25 39 59 39q16 0 27.5 -11t11.5 -28q0 -35 -40 -60l-135 -95zM223 424l-56 -263q-25 -116 63 -116q87 0 172 116l56 263h61l-72 -336q-9 -44 17 -44q13 0 23.5 13t29.5 46q3 6 5 9l49 -20q-14 -27 -22.5 -40.5t-23.5 -31.5t-32.5 -26t-38.5 -8
q-82 0 -65 99q-84 -99 -170 -99q-67 0 -99 43.5t-16 116.5l41 194l-20 26h-62l13 58h147z" />
    <glyph glyph-name="ucircumflex" unicode="&#xfb;" 
d="M387 694q27 0 42 -31l72 -139l-24 -19l-100 105l-150 -105l-23 19l128 139q29 31 55 31zM223 424l-56 -263q-25 -116 63 -116q87 0 172 116l56 263h61l-72 -336q-9 -44 17 -44q13 0 23.5 13t29.5 46q3 6 5 9l49 -20q-14 -27 -22.5 -40.5t-23.5 -31.5t-32.5 -26t-38.5 -8
q-82 0 -65 99q-84 -99 -170 -99q-67 0 -99 43.5t-16 116.5l41 194l-20 26h-62l13 58h147z" />
    <glyph glyph-name="udieresis" unicode="&#xfc;" 
d="M472 526q-26 0 -45 18.5t-19 44.5t19 45t45 19q27 0 46 -19t19 -45t-19 -44.5t-46 -18.5zM261 526q-26 0 -45 18.5t-19 44.5q0 27 19 45.5t45 18.5q27 0 46 -18.5t19 -45.5q0 -26 -19 -44.5t-46 -18.5zM223 424l-56 -263q-25 -116 63 -116q87 0 172 116l56 263h61
l-72 -336q-9 -44 17 -44q13 0 23.5 13t29.5 46q3 6 5 9l49 -20q-14 -27 -22.5 -40.5t-23.5 -31.5t-32.5 -26t-38.5 -8q-82 0 -65 99q-84 -99 -170 -99q-67 0 -99 43.5t-16 116.5l41 194l-20 26h-62l13 58h147z" />
    <glyph glyph-name="yacute" unicode="&#xfd;" 
d="M401 21l18 83q-85 -99 -172 -99q-66 0 -99 43.5t-18 116.5l37 175l-20 26h-62l13 58h147l-51 -244q-25 -116 63 -116q90 0 175 116l52 244h61l-86 -406q-22 -103 -81 -161.5t-154 -58.5q-79 0 -128.5 36.5t-49.5 90.5q0 29 16 48t41 19q21 0 34.5 -13t13.5 -34
q0 -15 -11 -26.5t-25 -12.5q21 -57 109 -57q69 0 115 47t62 125zM322 524l94 138q25 39 59 39q16 0 27.5 -11t11.5 -28q0 -35 -40 -60l-135 -95z" />
    <glyph glyph-name="thorn" unicode="&#xfe;" 
d="M366 379q-56 0 -97.5 -29t-80.5 -84l-22 -108q14 -52 52.5 -82.5t96.5 -30.5q77 0 128 59.5t51 142.5q0 58 -34.5 95t-93.5 37zM151 86l-43 -200l12 -16h108l-13 -58h-257l12 58h58l20 16l139 653l-12 16h-58l12 58h133l-57 -269q76 94 173 94q83 0 132 -54t49 -137
q0 -106 -73 -183.5t-171 -77.5q-60 0 -105 29.5t-59 70.5z" />
    <glyph glyph-name="ydieresis" unicode="&#xff;" 
d="M401 21l18 83q-85 -99 -172 -99q-66 0 -99 43.5t-18 116.5l37 175l-20 26h-62l13 58h147l-51 -244q-25 -116 63 -116q90 0 175 116l52 244h61l-86 -406q-22 -103 -81 -161.5t-154 -58.5q-79 0 -128.5 36.5t-49.5 90.5q0 29 16 48t41 19q21 0 34.5 -13t13.5 -34
q0 -15 -11 -26.5t-25 -12.5q21 -57 109 -57q69 0 115 47t62 125zM490 526q-26 0 -45 18.5t-19 44.5t19 45t45 19q27 0 46 -19t19 -45t-19 -44.5t-46 -18.5zM279 526q-26 0 -45 18.5t-19 44.5q0 27 19 45.5t45 18.5q27 0 46 -18.5t19 -45.5q0 -26 -19 -44.5t-46 -18.5z" />
    <glyph glyph-name="Amacron" unicode="&#x100;" 
d="M410 252l-42 253l-148 -253h190zM207 58l-12 -58h-231l12 58h62l307 512h76l87 -512h62l-12 -58h-230l12 58h71l28 21l-19 115h-235l-67 -115l18 -21h71zM257 725h304l-12 -60h-304z" />
    <glyph glyph-name="amacron" unicode="&#x101;" 
d="M476 -14q-38 0 -56 25t-9 70q-75 -95 -172 -95q-83 0 -134 54.5t-51 137.5q0 105 73 182.5t170 77.5q60 0 105.5 -29.5t59.5 -70.5l31 100h51l-75 -353q-8 -41 18 -41q14 0 25 14.5t32 53.5l49 -20q-14 -27 -22.5 -40.5t-23.5 -31.5t-32.5 -26t-38.5 -8zM119 178
q0 -58 34.5 -95.5t92.5 -37.5q56 0 98 29t81 84l22 108q-15 52 -53.5 82.5t-96.5 30.5q-76 0 -127 -59.5t-51 -141.5zM215 590h304l-13 -60h-304z" />
    <glyph glyph-name="Abreve" unicode="&#x102;" 
d="M410 252l-42 253l-148 -253h190zM207 58l-12 -58h-231l12 58h62l307 512h76l87 -512h62l-12 -58h-230l12 58h71l28 21l-19 115h-235l-67 -115l18 -21h71zM408 704q41 0 80 26.5t59 71.5l45 -11q-29 -73 -79 -113.5t-113 -40.5q-64 0 -98.5 40.5t-32.5 113.5l42 11
q0 -45 28 -71.5t69 -26.5z" />
    <glyph glyph-name="abreve" unicode="&#x103;" 
d="M476 -14q-38 0 -56 25t-9 70q-75 -95 -172 -95q-83 0 -134 54.5t-51 137.5q0 105 73 182.5t170 77.5q60 0 105.5 -29.5t59.5 -70.5l31 100h51l-75 -353q-8 -41 18 -41q14 0 25 14.5t32 53.5l49 -20q-14 -27 -22.5 -40.5t-23.5 -31.5t-32.5 -26t-38.5 -8zM119 178
q0 -58 34.5 -95.5t92.5 -37.5q56 0 98 29t81 84l22 108q-15 52 -53.5 82.5t-96.5 30.5q-76 0 -127 -59.5t-51 -141.5zM363 571q41 0 80 26.5t59 71.5l45 -11q-29 -73 -79 -113.5t-113 -40.5q-64 0 -98.5 40.5t-32.5 113.5l42 11q0 -45 28 -71.5t69 -26.5z" />
    <glyph glyph-name="Aogonek" unicode="&#x104;" 
d="M410 252l-42 253l-148 -253h190zM418 -171q-67 -61 -129 -61q-38 0 -58.5 19.5t-20.5 50.5q0 35 27 71t91 92l12 57h71l28 21l-19 115h-235l-67 -115l18 -21h71l-12 -58h-231l12 58h62l307 512h76l87 -512h62l-12 -58h-155q-75 -65 -105 -98.5t-30 -55.5q0 -26 29 -26
q36 0 92 50z" />
    <glyph glyph-name="aogonek" unicode="&#x105;" 
d="M427 -232q-37 0 -58 19.5t-21 50.5q0 33 24.5 66.5t79.5 85.5q-26 6 -37.5 29.5t-3.5 61.5q-75 -95 -172 -95q-83 0 -134 54.5t-51 137.5q0 105 73 182.5t170 77.5q60 0 105.5 -29.5t59.5 -70.5l31 100h51l-75 -353q-8 -41 18 -41q14 0 25 14.5t32 53.5l49 -20
q-23 -48 -71 -98t-81.5 -86t-33.5 -62t28 -26q36 0 92 50l30 -41q-69 -61 -130 -61zM119 178q0 -58 34.5 -95.5t92.5 -37.5q56 0 98 29t81 84l22 108q-15 52 -53.5 82.5t-96.5 30.5q-76 0 -127 -59.5t-51 -141.5z" />
    <glyph glyph-name="Cacute" unicode="&#x106;" 
d="M491 138l35 -48q-112 -104 -233 -104q-104 0 -165 67t-61 173q0 146 89.5 252t220.5 106q100 0 145 -73l12 5l11 54h62l-41 -197h-49q-6 73 -42 110.5t-99 37.5q-102 0 -171 -87.5t-69 -206.5q0 -78 41.5 -127.5t115.5 -49.5q105 0 198 88zM371 659l93 138q27 39 59 39
q17 0 28 -11t11 -28q0 -35 -39 -60l-136 -95z" />
    <glyph glyph-name="cacute" unicode="&#x107;" 
d="M322 524l94 138q25 39 59 39q16 0 27.5 -11t11.5 -28q0 -35 -40 -60l-135 -95zM337 438q91 0 144 -43t53 -105q0 -28 -17.5 -47.5t-43.5 -19.5q-25 0 -42.5 16t-17.5 39q0 18 11 31.5t29 15.5q-28 56 -116 56q-79 0 -136 -52t-57 -135q0 -64 43.5 -106.5t115.5 -42.5
q89 0 174 73l35 -47q-97 -85 -209 -85q-104 0 -165 58.5t-61 149.5q0 105 76.5 174.5t183.5 69.5z" />
    <glyph glyph-name="Ccircumflex" unicode="&#x108;" 
d="M491 138l35 -48q-112 -104 -233 -104q-104 0 -165 67t-61 173q0 146 89.5 252t220.5 106q100 0 145 -73l12 5l11 54h62l-41 -197h-49q-6 73 -42 110.5t-99 37.5q-102 0 -171 -87.5t-69 -206.5q0 -78 41.5 -127.5t115.5 -49.5q105 0 198 88zM445 829q27 0 42 -31l72 -139
l-24 -19l-100 105l-150 -105l-23 19l128 139q29 31 55 31z" />
    <glyph glyph-name="ccircumflex" unicode="&#x109;" 
d="M405 694q27 0 42 -31l72 -139l-24 -19l-100 105l-150 -105l-23 19l128 139q29 31 55 31zM337 438q91 0 144 -43t53 -105q0 -28 -17.5 -47.5t-43.5 -19.5q-25 0 -42.5 16t-17.5 39q0 18 11 31.5t29 15.5q-28 56 -116 56q-79 0 -136 -52t-57 -135q0 -64 43.5 -106.5
t115.5 -42.5q89 0 174 73l35 -47q-97 -85 -209 -85q-104 0 -165 58.5t-61 149.5q0 105 76.5 174.5t183.5 69.5z" />
    <glyph glyph-name="Cdotaccent" unicode="&#x10a;" 
d="M428 648q-27 0 -46 18.5t-19 45.5q0 28 19 47.5t46 19.5q28 0 47 -19t19 -48q0 -27 -19 -45.5t-47 -18.5zM491 138l35 -48q-112 -104 -233 -104q-104 0 -165 67t-61 173q0 146 89.5 252t220.5 106q100 0 145 -73l12 5l11 54h62l-41 -197h-49q-6 73 -42 110.5t-99 37.5
q-102 0 -171 -87.5t-69 -206.5q0 -78 41.5 -127.5t115.5 -49.5q105 0 198 88z" />
    <glyph glyph-name="cdotaccent" unicode="&#x10b;" 
d="M337 438q91 0 144 -43t53 -105q0 -28 -17.5 -47.5t-43.5 -19.5q-25 0 -42.5 16t-17.5 39q0 18 11 31.5t29 15.5q-28 56 -116 56q-79 0 -136 -52t-57 -135q0 -64 43.5 -106.5t115.5 -42.5q89 0 174 73l35 -47q-97 -85 -209 -85q-104 0 -165 58.5t-61 149.5
q0 105 76.5 174.5t183.5 69.5zM385 523q-27 0 -46 18.5t-19 45.5q0 28 19 47.5t46 19.5q28 0 47 -19t19 -48q0 -27 -19 -45.5t-47 -18.5z" />
    <glyph glyph-name="Ccaron" unicode="&#x10c;" 
d="M491 138l35 -48q-112 -104 -233 -104q-104 0 -165 67t-61 173q0 146 89.5 252t220.5 106q100 0 145 -73l12 5l11 54h62l-41 -197h-49q-6 73 -42 110.5t-99 37.5q-102 0 -171 -87.5t-69 -206.5q0 -78 41.5 -127.5t115.5 -49.5q105 0 198 88zM475 674q-31 -31 -55 -31
q-26 0 -42 31l-72 139l25 19l98 -105l151 105l23 -19z" />
    <glyph glyph-name="ccaron" unicode="&#x10d;" 
d="M431 539q-31 -31 -55 -31q-26 0 -42 31l-72 139l25 19l98 -105l151 105l23 -19zM337 438q91 0 144 -43t53 -105q0 -28 -17.5 -47.5t-43.5 -19.5q-25 0 -42.5 16t-17.5 39q0 18 11 31.5t29 15.5q-28 56 -116 56q-79 0 -136 -52t-57 -135q0 -64 43.5 -106.5t115.5 -42.5
q89 0 174 73l35 -47q-97 -85 -209 -85q-104 0 -165 58.5t-61 149.5q0 105 76.5 174.5t183.5 69.5z" />
    <glyph glyph-name="Dcaron" unicode="&#x10e;" 
d="M427 674q-31 -31 -55 -31q-26 0 -42 31l-72 139l25 19l98 -105l151 105l23 -19zM152 58h78q130 0 210 78.5t80 194.5q0 83 -47.5 132t-146.5 49h-78zM217 0h-228l13 58h62l31 26l86 402l-20 26h-62l12 58h224q127 0 191.5 -64.5t64.5 -174.5q0 -141 -104 -236t-270 -95z
" />
    <glyph glyph-name="dcaron" unicode="&#x10f;" 
d="M614 519l52 157q14 49 54 49q18 0 31.5 -13t13.5 -33q0 -23 -21 -47l-109 -124zM476 -14q-38 0 -56 25t-9 70q-75 -95 -172 -95q-83 0 -134 54.5t-51 137.5q0 105 73 182.5t170 77.5q60 0 105.5 -29.5t59.5 -70.5l43 201l-13 16h-107l12 58h184l-112 -528q-8 -41 18 -41
q14 0 25 14.5t32 53.5l49 -20q-14 -27 -22.5 -40.5t-23.5 -31.5t-32.5 -26t-38.5 -8zM119 178q0 -58 34.5 -95.5t92.5 -37.5q56 0 98 29t81 84l22 108q-15 52 -53.5 82.5t-96.5 30.5q-76 0 -127 -59.5t-51 -141.5z" />
    <glyph glyph-name="Dcroat" unicode="&#x110;" 
d="M217 0h-228l13 58h62l31 26l40 188h-89l12 58h90l33 156l-20 26h-62l12 58h224q127 0 191.5 -64.5t64.5 -174.5q0 -141 -104 -236t-270 -95zM152 58h78q130 0 210 78.5t80 194.5q0 83 -47.5 132t-146.5 49h-78l-38 -182h137l-12 -58h-138z" />
    <glyph glyph-name="dcroat" unicode="&#x111;" 
d="M476 -14q-38 0 -56 23.5t-9 64.5q-73 -88 -171 -88q-83 0 -134 51t-51 128q0 99 72.5 169.5t170.5 70.5q60 0 101.5 -27t56.5 -66l32 148h-176l10 47h176l10 47l-10 12h-111l10 47h184l-22 -106h84l-10 -47h-84l-80 -375q-8 -41 18 -41q14 0 25 14.5t32 53.5l49 -20
q-14 -27 -22.5 -40.5t-23.5 -31.5t-32.5 -26t-38.5 -8zM124 165q0 -53 33.5 -87t90.5 -34q56 0 96 26t77 76l21 99q-30 102 -144 102q-74 0 -124 -53.5t-50 -128.5z" />
    <glyph glyph-name="Emacron" unicode="&#x112;" 
d="M261 725h304l-12 -60h-304zM173 58h254l32 26l23 108h60l-42 -192h-511l13 58h83l32 26l85 402l-20 26h-83l12 58h505l-41 -192h-60l23 108l-20 26h-248l-41 -193h114l31 26l13 63h52l-49 -232h-52l13 63l-20 26h-114z" />
    <glyph glyph-name="emacron" unicode="&#x113;" 
d="M143 226q322 -10 322 81q0 33 -33.5 53t-84.5 20q-78 0 -135 -42.5t-69 -111.5zM509 67q-93 -81 -209 -81q-99 0 -161.5 58.5t-62.5 146.5q0 105 78 176t193 71q82 0 133.5 -37t51.5 -94q0 -74 -96 -107t-295 -27q7 -55 50 -91t109 -36q98 0 175 66zM238 590h304l-13 -60
h-304z" />
    <glyph glyph-name="Ebreve" unicode="&#x114;" 
d="M409 704q41 0 80 26.5t59 71.5l45 -11q-29 -73 -79 -113.5t-113 -40.5q-64 0 -98.5 40.5t-32.5 113.5l42 11q0 -45 28 -71.5t69 -26.5zM173 58h254l32 26l23 108h60l-42 -192h-511l13 58h83l32 26l85 402l-20 26h-83l12 58h505l-41 -192h-60l23 108l-20 26h-248l-41 -193
h114l31 26l13 63h52l-49 -232h-52l13 63l-20 26h-114z" />
    <glyph glyph-name="ebreve" unicode="&#x115;" 
d="M143 226q322 -10 322 81q0 33 -33.5 53t-84.5 20q-78 0 -135 -42.5t-69 -111.5zM509 67q-93 -81 -209 -81q-99 0 -161.5 58.5t-62.5 146.5q0 105 78 176t193 71q82 0 133.5 -37t51.5 -94q0 -74 -96 -107t-295 -27q7 -55 50 -91t109 -36q98 0 175 66zM385 571
q41 0 80 26.5t59 71.5l45 -11q-29 -73 -79 -113.5t-113 -40.5q-64 0 -98.5 40.5t-32.5 113.5l42 11q0 -45 28 -71.5t69 -26.5z" />
    <glyph glyph-name="Edotaccent" unicode="&#x116;" 
d="M411 648q-27 0 -46 18.5t-19 45.5q0 28 19 47.5t46 19.5q28 0 47 -19t19 -48q0 -27 -19 -45.5t-47 -18.5zM173 58h254l32 26l23 108h60l-42 -192h-511l13 58h83l32 26l85 402l-20 26h-83l12 58h505l-41 -192h-60l23 108l-20 26h-248l-41 -193h114l31 26l13 63h52
l-49 -232h-52l13 63l-20 26h-114z" />
    <glyph glyph-name="edotaccent" unicode="&#x117;" 
d="M143 226q322 -10 322 81q0 33 -33.5 53t-84.5 20q-78 0 -135 -42.5t-69 -111.5zM509 67q-93 -81 -209 -81q-99 0 -161.5 58.5t-62.5 146.5q0 105 78 176t193 71q82 0 133.5 -37t51.5 -94q0 -74 -96 -107t-295 -27q7 -55 50 -91t109 -36q98 0 175 66zM389 523
q-27 0 -46 18.5t-19 45.5q0 28 19 47.5t46 19.5q28 0 47 -19t19 -48q0 -27 -19 -45.5t-47 -18.5z" />
    <glyph glyph-name="Eogonek" unicode="&#x118;" 
d="M439 -171q-67 -61 -129 -61q-38 0 -58.5 19.5t-20.5 50.5q0 35 27 71t90 91h-359l13 58h83l32 26l85 402l-20 26h-83l12 58h505l-41 -192h-60l23 108l-20 26h-248l-41 -193h114l31 26l13 63h52l-49 -232h-52l13 63l-20 26h-114l-44 -207h254l32 26l23 108h60l-42 -192
h-76q-75 -65 -105 -98.5t-30 -55.5q0 -26 29 -26q36 0 92 50z" />
    <glyph glyph-name="eogonek" unicode="&#x119;" 
d="M144 225h4q317 -7 317 82q0 33 -33.5 53t-84.5 20q-78 0 -134.5 -43t-68.5 -112zM466 -171q-69 -61 -130 -61q-37 0 -58 19.5t-21 50.5q0 55 96 154q-25 -6 -53 -6q-99 0 -161.5 58.5t-62.5 146.5q0 105 78 176t193 71q82 0 133.5 -37t51.5 -94q0 -147 -390 -135
q7 -54 49.5 -90t108.5 -36q98 0 175 66l34 -46q-89 -71 -141 -129.5t-52 -90.5q0 -26 28 -26q36 0 92 50z" />
    <glyph glyph-name="Ecaron" unicode="&#x11a;" 
d="M458 674q-31 -31 -55 -31q-27 0 -42 31l-72 139l25 19l98 -105l151 105l23 -19zM173 58h254l32 26l23 108h60l-42 -192h-511l13 58h83l32 26l85 402l-20 26h-83l12 58h505l-41 -192h-60l23 108l-20 26h-248l-41 -193h114l31 26l13 63h52l-49 -232h-52l13 63l-20 26h-114z
" />
    <glyph glyph-name="ecaron" unicode="&#x11b;" 
d="M434 539q-31 -31 -55 -31q-27 0 -42 31l-72 139l25 19l98 -105l151 105l23 -19zM143 226q322 -10 322 81q0 33 -33.5 53t-84.5 20q-78 0 -135 -42.5t-69 -111.5zM509 67q-93 -81 -209 -81q-99 0 -161.5 58.5t-62.5 146.5q0 105 78 176t193 71q82 0 133.5 -37t51.5 -94
q0 -74 -96 -107t-295 -27q7 -55 50 -91t109 -36q98 0 175 66z" />
    <glyph glyph-name="Gcircumflex" unicode="&#x11c;" 
d="M258 -14q-92 0 -147.5 67.5t-55.5 169.5q0 93 38 175t111 134t163 52q50 0 88 -19.5t56 -51.5l14 6l11 51h58l-39 -186h-48q-5 65 -43 101t-97 36q-107 0 -174.5 -90.5t-67.5 -207.5q0 -79 38.5 -127.5t109.5 -48.5q81 0 176 91l14 66l-16 21h-80l12 58h223l-13 -58h-38
l-29 -24l-43 -201h-60l11 50l-11 6q-76 -70 -161 -70zM430 829q27 0 42 -31l72 -139l-24 -19l-100 105l-150 -105l-23 19l128 139q29 31 55 31z" />
    <glyph glyph-name="gcircumflex" unicode="&#x11d;" 
d="M397 694q27 0 42 -31l72 -139l-24 -19l-100 105l-150 -105l-23 19l128 139q29 31 55 31zM301 379q-76 0 -125.5 -52.5t-49.5 -130.5q0 -57 35 -93.5t93 -36.5q55 0 96 27.5t80 80.5l18 98q-14 49 -51.5 78t-95.5 29zM395 21l16 78q-72 -92 -164 -92q-83 0 -134 53.5
t-51 134.5q0 104 69 173.5t170 69.5q60 0 105 -29.5t59 -69.5l17 85h136l-13 -58h-58l-20 -16l-70 -332q-22 -104 -87 -162t-165 -58q-80 0 -133.5 38t-53.5 91q-1 29 15 48t41 19q22 0 35 -13t13 -34q0 -16 -10 -27t-24 -12q9 -27 40.5 -43t76.5 -16q74 0 124 46.5
t66 125.5z" />
    <glyph glyph-name="Gbreve" unicode="&#x11e;" 
d="M411 704q41 0 80 26.5t59 71.5l45 -11q-29 -73 -79 -113.5t-113 -40.5q-64 0 -98.5 40.5t-32.5 113.5l42 11q0 -45 28 -71.5t69 -26.5zM258 -14q-92 0 -147.5 67.5t-55.5 169.5q0 93 38 175t111 134t163 52q50 0 88 -19.5t56 -51.5l14 6l11 51h58l-39 -186h-48
q-5 65 -43 101t-97 36q-107 0 -174.5 -90.5t-67.5 -207.5q0 -79 38.5 -127.5t109.5 -48.5q81 0 176 91l14 66l-16 21h-80l12 58h223l-13 -58h-38l-29 -24l-43 -201h-60l11 50l-11 6q-76 -70 -161 -70z" />
    <glyph glyph-name="gbreve" unicode="&#x11f;" 
d="M301 379q-76 0 -125.5 -52.5t-49.5 -130.5q0 -57 35 -93.5t93 -36.5q55 0 96 27.5t80 80.5l18 98q-14 49 -51.5 78t-95.5 29zM395 21l16 78q-72 -92 -164 -92q-83 0 -134 53.5t-51 134.5q0 104 69 173.5t170 69.5q60 0 105 -29.5t59 -69.5l17 85h136l-13 -58h-58l-20 -16
l-70 -332q-22 -104 -87 -162t-165 -58q-80 0 -133.5 38t-53.5 91q-1 29 15 48t41 19q22 0 35 -13t13 -34q0 -16 -10 -27t-24 -12q9 -27 40.5 -43t76.5 -16q74 0 124 46.5t66 125.5zM373 571q41 0 80 26.5t59 71.5l45 -11q-29 -73 -79 -113.5t-113 -40.5q-64 0 -98.5 40.5
t-32.5 113.5l42 11q0 -45 28 -71.5t69 -26.5z" />
    <glyph glyph-name="Gdotaccent" unicode="&#x120;" 
d="M413 648q-27 0 -46 18.5t-19 45.5q0 28 19 47.5t46 19.5q28 0 47 -19t19 -48q0 -27 -19 -45.5t-47 -18.5zM258 -14q-92 0 -147.5 67.5t-55.5 169.5q0 93 38 175t111 134t163 52q50 0 88 -19.5t56 -51.5l14 6l11 51h58l-39 -186h-48q-5 65 -43 101t-97 36
q-107 0 -174.5 -90.5t-67.5 -207.5q0 -79 38.5 -127.5t109.5 -48.5q81 0 176 91l14 66l-16 21h-80l12 58h223l-13 -58h-38l-29 -24l-43 -201h-60l11 50l-11 6q-76 -70 -161 -70z" />
    <glyph glyph-name="gdotaccent" unicode="&#x121;" 
d="M301 379q-76 0 -125.5 -52.5t-49.5 -130.5q0 -57 35 -93.5t93 -36.5q55 0 96 27.5t80 80.5l18 98q-14 49 -51.5 78t-95.5 29zM395 21l16 78q-72 -92 -164 -92q-83 0 -134 53.5t-51 134.5q0 104 69 173.5t170 69.5q60 0 105 -29.5t59 -69.5l17 85h136l-13 -58h-58l-20 -16
l-70 -332q-22 -104 -87 -162t-165 -58q-80 0 -133.5 38t-53.5 91q-1 29 15 48t41 19q22 0 35 -13t13 -34q0 -16 -10 -27t-24 -12q9 -27 40.5 -43t76.5 -16q74 0 124 46.5t66 125.5zM376 523q-27 0 -46 18.5t-19 45.5q0 28 19 47.5t46 19.5q28 0 47 -19t19 -48
q0 -27 -19 -45.5t-47 -18.5z" />
    <glyph glyph-name="Gcommaaccent" unicode="&#x122;" 
d="M180 -134q0 26 18 44t44 18q25 0 43 -19t18 -45q0 -25 -22 -49l-111 -114l-26 24l75 89q-39 14 -39 52zM258 -14q-92 0 -147.5 67.5t-55.5 169.5q0 93 38 175t111 134t163 52q50 0 88 -19.5t56 -51.5l14 6l11 51h58l-39 -186h-48q-5 65 -43 101t-97 36
q-107 0 -174.5 -90.5t-67.5 -207.5q0 -79 38.5 -127.5t109.5 -48.5q81 0 176 91l14 66l-16 21h-80l12 58h223l-13 -58h-38l-29 -24l-43 -201h-60l11 50l-11 6q-76 -70 -161 -70z" />
    <glyph glyph-name="gcommaaccent" unicode="&#x123;" 
d="M428 579q0 -26 -17.5 -44t-43.5 -18q-25 0 -43 18.5t-18 44.5t21 49l111 114l27 -24l-76 -88q39 -14 39 -52zM301 379q-76 0 -125.5 -52.5t-49.5 -130.5q0 -57 35 -93.5t93 -36.5q55 0 96 27.5t80 80.5l18 98q-14 49 -51.5 78t-95.5 29zM395 21l16 78q-72 -92 -164 -92
q-83 0 -134 53.5t-51 134.5q0 104 69 173.5t170 69.5q60 0 105 -29.5t59 -69.5l17 85h136l-13 -58h-58l-20 -16l-70 -332q-22 -104 -87 -162t-165 -58q-80 0 -133.5 38t-53.5 91q-1 29 15 48t41 19q22 0 35 -13t13 -34q0 -16 -10 -27t-24 -12q9 -27 40.5 -43t76.5 -16
q74 0 124 46.5t66 125.5z" />
    <glyph glyph-name="Hcircumflex" unicode="&#x124;" 
d="M494 486l-20 26h-55l12 58h224l-12 -58h-55l-32 -26l-85 -402l20 -26h55l-13 -58h-224l13 58h55l32 26l39 184h-258l-39 -184l20 -26h55l-13 -58h-224l13 58h55l32 26l85 402l-20 26h-55l12 58h224l-12 -58h-55l-32 -26l-34 -160h258zM430 829q27 0 42 -31l72 -139
l-24 -19l-100 105l-150 -105l-23 19l128 139q29 31 55 31z" />
    <glyph glyph-name="hcircumflex" unicode="&#x125;" 
d="M190 257l-54 -257h-61l113 529l-20 26h-62l12 58h148l-59 -281q85 106 174 106q66 0 96 -41t15 -114l-42 -198q-9 -41 18 -41q14 0 25 14.5t32 53.5l49 -20q-15 -27 -23 -40.5t-23 -31.5t-32.5 -26t-38.5 -8q-41 0 -59 28.5t-9 70.5l38 178q25 116 -62 116
q-84 0 -175 -122zM430 839q27 0 42 -31l72 -139l-24 -19l-100 105l-150 -105l-23 19l128 139q29 31 55 31z" />
    <glyph glyph-name="Hbar" unicode="&#x126;" 
d="M190 271h258l17 81h-258zM226 58l-13 -58h-224l13 58h55l31 26l57 268h-78l11 53h79l17 81l-20 26h-55l12 58h224l-12 -58h-55l-32 -26l-17 -81h258l17 81l-20 26h-55l12 58h224l-12 -58h-55l-32 -26l-17 -81h88l-11 -53h-89l-57 -268l21 -26h55l-13 -58h-224l13 58h55
l32 26l27 129h-258l-27 -129l20 -26h55z" />
    <glyph glyph-name="hbar" unicode="&#x127;" 
d="M574 92q-15 -27 -23 -40.5t-23 -31.5t-32.5 -26t-38.5 -8q-41 0 -59 28.5t-9 70.5l33 152q25 116 -63 116q-84 0 -174 -123l-49 -230h-61l98 460h-85l10 47h85l10 46l-12 13h-73l10 47h148l-22 -106h175l-10 -47h-175l-33 -154q87 106 175 106q65 0 95.5 -41t14.5 -114
l-36 -172q-9 -41 18 -41q14 0 25 14.5t32 53.5z" />
    <glyph glyph-name="Itilde" unicode="&#x128;" 
d="M332 486l-20 26h-146l12 58h410l-12 -58h-146l-32 -26l-85 -402l20 -26h146l-13 -58h-410l13 58h146l32 26zM545 773h63q-13 -58 -49 -93.5t-83 -35.5q-28 0 -51 18t-41.5 36t-36.5 18q-23 0 -42 -19t-26 -50h-62q12 58 48 93t83 35q27 0 50 -18t42 -36t37 -18
q23 0 42 19t26 51z" />
    <glyph glyph-name="itilde" unicode="&#x129;" 
d="M291 145q-10 -44 9 -71t58 -27q75 0 136 140l50 -25q-79 -176 -189 -176q-66 0 -102 47t-22 114l42 193l-21 26h-168l12 58h254zM482 642h63q-13 -58 -49 -93.5t-83 -35.5q-28 0 -51 18t-41.5 36t-36.5 18q-23 0 -42 -19t-26 -50h-62q12 58 48 93t83 35q27 0 50 -18
t42 -36t37 -18q23 0 42 19t26 51z" />
    <glyph glyph-name="Imacron" unicode="&#x12a;" 
d="M332 486l-20 26h-146l12 58h410l-12 -58h-146l-32 -26l-85 -402l20 -26h146l-13 -58h-410l13 58h146l32 26zM263 725h304l-12 -60h-304z" />
    <glyph glyph-name="imacron" unicode="&#x12b;" 
d="M291 145q-10 -44 9 -71t58 -27q75 0 136 140l50 -25q-79 -176 -189 -176q-66 0 -102 47t-22 114l42 193l-21 26h-168l12 58h254zM201 590h304l-13 -60h-304z" />
    <glyph glyph-name="Ibreve" unicode="&#x12c;" 
d="M332 486l-20 26h-146l12 58h410l-12 -58h-146l-32 -26l-85 -402l20 -26h146l-13 -58h-410l13 58h146l32 26zM410 704q41 0 80 26.5t59 71.5l45 -11q-29 -73 -79 -113.5t-113 -40.5q-64 0 -98.5 40.5t-32.5 113.5l42 11q0 -45 28 -71.5t69 -26.5z" />
    <glyph glyph-name="ibreve" unicode="&#x12d;" 
d="M291 145q-10 -44 9 -71t58 -27q75 0 136 140l50 -25q-79 -176 -189 -176q-66 0 -102 47t-22 114l42 193l-21 26h-168l12 58h254zM348 571q41 0 80 26.5t59 71.5l45 -11q-29 -73 -79 -113.5t-113 -40.5q-64 0 -98.5 40.5t-32.5 113.5l42 11q0 -45 28 -71.5t69 -26.5z" />
    <glyph glyph-name="Iogonek" unicode="&#x12e;" 
d="M405 -171q-67 -61 -129 -61q-38 0 -58.5 19.5t-20.5 50.5q0 35 27 71t90 91h-258l13 58h146l32 26l85 402l-20 26h-146l12 58h410l-12 -58h-146l-32 -26l-85 -402l20 -26h146l-13 -58h-76q-75 -65 -105 -98.5t-30 -55.5q0 -26 29 -26q36 0 92 50z" />
    <glyph glyph-name="iogonek" unicode="&#x12f;" 
d="M332 523q-27 0 -45.5 18.5t-18.5 45.5q0 28 18.5 47.5t45.5 19.5q28 0 47.5 -19t19.5 -48q0 -27 -19.5 -45.5t-47.5 -18.5zM356 -232q-37 0 -58 19.5t-21 50.5q0 55 84 153q-8 -1 -21 -1q-56 0 -89.5 44.5t-19.5 112.5l42 193l-21 26h-168l12 58h254l-59 -279
q-10 -44 9 -71t58 -27q75 0 136 140l50 -25q-39 -89 -85 -132q-123 -139 -123 -184q0 -26 28 -26q36 0 92 50l30 -41q-69 -61 -130 -61z" />
    <glyph glyph-name="Idotaccent" unicode="&#x130;" 
d="M332 486l-20 26h-146l12 58h410l-12 -58h-146l-32 -26l-85 -402l20 -26h146l-13 -58h-410l13 58h146l32 26zM412 648q-27 0 -46 18.5t-19 45.5q0 28 19 47.5t46 19.5q28 0 47 -19t19 -48q0 -27 -19 -45.5t-47 -18.5z" />
    <glyph glyph-name="dotlessi" unicode="&#x131;" 
d="M291 145q-10 -44 9 -71t58 -27q75 0 136 140l50 -25q-79 -176 -189 -176q-66 0 -102 47t-22 114l42 193l-21 26h-168l12 58h254z" />
    <glyph glyph-name="Jcircumflex" unicode="&#x134;" 
d="M380 219l57 267l-21 26h-176l12 58h378l-12 -58h-84l-31 -26l-58 -272q-25 -113 -83 -170.5t-144 -57.5q-78 0 -127 48.5t-49 115.5q0 45 21.5 71t53.5 26q30 0 48.5 -18t18.5 -44q0 -24 -18 -41t-52 -15q1 -35 30.5 -60t77.5 -25q61 0 99.5 42t58.5 133zM509 829
q27 0 42 -31l72 -139l-24 -19l-100 105l-150 -105l-23 19l128 139q29 31 55 31z" />
    <glyph glyph-name="jcircumflex" unicode="&#x135;" 
d="M481 694q27 0 42 -31l72 -139l-24 -19l-100 105l-150 -105l-23 19l128 139q29 31 55 31zM9 -42q-1 33 18.5 55.5t48.5 22.5q27 0 44 -16.5t17 -40.5q0 -20 -16 -35.5t-39 -16.5q4 -30 30.5 -51t70.5 -21q128 0 166 175l66 310l-21 26h-203l13 58h289l-85 -399
q-24 -110 -82 -166.5t-143 -56.5q-79 0 -126.5 46t-47.5 110z" />
    <glyph glyph-name="Kcommaaccent" unicode="&#x136;" 
d="M172 -134q0 26 18 44t44 18q25 0 43 -19t18 -45q0 -25 -22 -49l-111 -114l-26 24l75 89q-39 14 -39 52zM226 58l-13 -58h-224l13 58h55l32 26l85 402l-20 26h-55l12 58h224l-12 -58h-55l-32 -26l-50 -237l289 242l-19 21h-44l13 58h217l-12 -58h-55l-224 -187l139 -267
h67l-13 -58h-228l13 58h54l27 21l-107 206l-133 -111l-19 -90l20 -26h55z" />
    <glyph glyph-name="kcommaaccent" unicode="&#x137;" 
d="M173 -134q0 26 18 44t44 18q25 0 43 -19t18 -45q0 -25 -22 -49l-111 -114l-26 24l75 89q-39 14 -39 52zM441 -14q-40 0 -64.5 23.5t-30.5 64.5l-8 49q-13 80 -68 93l-124 -75l-30 -141h-60l113 529l-21 26h-67l12 58h153l-88 -414l244 155l3 15h-65l11 55h231l-11 -55
h-49l-205 -124q63 -21 75 -102l8 -53q6 -50 46 -50q21 0 36 15.5t36 54.5l42 -28q-48 -96 -119 -96z" />
    <glyph glyph-name="kgreenlandic" unicode="&#x138;" 
d="M441 -14q-40 0 -64.5 23.5t-30.5 64.5l-8 49q-13 80 -68 93l-124 -75l-30 -141h-60l73 340l-21 26h-67l12 58h153l-48 -225l244 155l3 15h-65l11 55h231l-11 -55h-49l-205 -124q63 -21 75 -102l8 -53q6 -50 46 -50q21 0 36 15.5t36 54.5l42 -28q-48 -96 -119 -96z" />
    <glyph glyph-name="Lacute" unicode="&#x139;" 
d="M290 659l93 138q27 39 59 39q17 0 28 -11t11 -28q0 -35 -39 -60l-136 -95zM122 570h271l-12 -58h-80l-32 -26l-91 -428h254l32 26l29 138h60l-48 -222h-505l13 58h77l32 26l85 402l-20 26h-77z" />
    <glyph glyph-name="lacute" unicode="&#x13a;" 
d="M349 669l93 138q27 39 59 39q17 0 28 -11t11 -28q0 -34 -39 -60l-136 -95zM376 613l-99 -468q-10 -44 9 -71t58 -27q75 0 136 140l50 -25q-79 -176 -189 -176q-66 0 -102 47t-22 114l82 382l-21 26h-173l12 58h259z" />
    <glyph glyph-name="Lcommaaccent" unicode="&#x13b;" 
d="M168 -134q0 26 18 44t44 18q25 0 43 -19t18 -45q0 -25 -22 -49l-111 -114l-26 24l75 89q-39 14 -39 52zM122 570h271l-12 -58h-80l-32 -26l-91 -428h254l32 26l29 138h60l-48 -222h-505l13 58h77l32 26l85 402l-20 26h-77z" />
    <glyph glyph-name="lcommaaccent" unicode="&#x13c;" 
d="M231 -134q0 26 18 44t44 18q25 0 43 -19t18 -45q0 -25 -22 -49l-111 -114l-26 24l75 89q-39 14 -39 52zM376 613l-99 -468q-10 -44 9 -71t58 -27q75 0 136 140l50 -25q-79 -176 -189 -176q-66 0 -102 47t-22 114l82 382l-21 26h-173l12 58h259z" />
    <glyph glyph-name="Lcaron" unicode="&#x13d;" 
d="M463 427l52 157q14 49 54 49q18 0 31.5 -13t13.5 -33q0 -23 -21 -47l-109 -124zM122 570h271l-12 -58h-80l-32 -26l-91 -428h254l32 26l29 138h60l-48 -222h-505l13 58h77l32 26l85 402l-20 26h-77z" />
    <glyph glyph-name="lcaron" unicode="&#x13e;" 
d="M480 519l52 157q14 49 54 49q18 0 31.5 -13t13.5 -33q0 -23 -21 -47l-109 -124zM376 613l-99 -468q-10 -44 9 -71t58 -27q75 0 136 140l50 -25q-79 -176 -189 -176q-66 0 -102 47t-22 114l82 382l-21 26h-173l12 58h259z" />
    <glyph glyph-name="Ldot" unicode="&#x13f;" 
d="M122 570h271l-12 -58h-80l-32 -26l-91 -428h254l32 26l29 138h60l-48 -222h-505l13 58h77l32 26l85 402l-20 26h-77zM522 338q-27 0 -46 18.5t-19 45.5q0 28 19 47.5t46 19.5q28 0 47 -19t19 -48q0 -27 -19 -45.5t-47 -18.5z" />
    <glyph glyph-name="ldot" unicode="&#x140;" 
d="M376 613l-99 -468q-10 -44 9 -71t58 -27q75 0 136 140l50 -25q-79 -176 -189 -176q-66 0 -102 47t-22 114l82 382l-21 26h-173l12 58h259zM612 287q-27 0 -46 18.5t-19 45.5q0 28 19 47.5t46 19.5q28 0 47 -19t19 -48q0 -27 -19 -45.5t-47 -18.5z" />
    <glyph glyph-name="Lslash" unicode="&#x141;" 
d="M505 0h-505l13 58h77l32 26l34 161l-87 -37l-19 52l119 48l38 178l-20 26h-77l12 58h271l-12 -58h-80l-32 -26l-33 -154l154 65l18 -52l-185 -78l-45 -209h254l32 26l29 138h60z" />
    <glyph glyph-name="lslash" unicode="&#x142;" 
d="M341 -14q-66 0 -102 47t-22 114l30 138l-138 -68l-25 47l177 90l38 175l-21 26h-173l12 58h259l-48 -228l140 70l25 -47l-180 -91l-36 -172q-10 -44 9 -71t58 -27q75 0 136 140l50 -25q-79 -176 -189 -176z" />
    <glyph glyph-name="Nacute" unicode="&#x143;" 
d="M348 659l93 138q27 39 59 39q17 0 28 -11t11 -28q0 -35 -39 -60l-136 -95zM456 0h-66l-154 493l-87 -409l20 -26h55l-13 -58h-222l13 58h55l32 26l85 402l-20 26h-55l12 58h168l140 -465l81 381l-20 26h-55l12 58h222l-12 -58h-55l-32 -26z" />
    <glyph glyph-name="nacute" unicode="&#x144;" 
d="M312 524l94 138q25 39 59 39q16 0 27.5 -11t11.5 -28q0 -35 -40 -60l-135 -95zM193 257l-55 -257h-60l72 340l-20 26h-62l13 58h148l-20 -92q87 106 175 106q65 0 95.5 -41t14.5 -114l-42 -198q-8 -41 18 -41q13 0 23.5 13t29.5 46q3 6 5 9l49 -20q-14 -27 -22.5 -40.5
t-23.5 -31.5t-32.5 -26t-38.5 -8q-42 0 -59.5 28.5t-8.5 70.5l38 178q25 116 -63 116q-85 0 -174 -122z" />
    <glyph glyph-name="Ncommaaccent" unicode="&#x145;" 
d="M170 -134q0 26 18 44t44 18q25 0 43 -19t18 -45q0 -25 -22 -49l-111 -114l-26 24l75 89q-39 14 -39 52zM456 0h-66l-154 493l-87 -409l20 -26h55l-13 -58h-222l13 58h55l32 26l85 402l-20 26h-55l12 58h168l140 -465l81 381l-20 26h-55l12 58h222l-12 -58h-55l-32 -26z
" />
    <glyph glyph-name="ncommaaccent" unicode="&#x146;" 
d="M167 -134q0 26 18 44t44 18q25 0 43 -19t18 -45q0 -25 -22 -49l-111 -114l-26 24l75 89q-39 14 -39 52zM193 257l-55 -257h-60l72 340l-20 26h-62l13 58h148l-20 -92q87 106 175 106q65 0 95.5 -41t14.5 -114l-42 -198q-8 -41 18 -41q13 0 23.5 13t29.5 46q3 6 5 9
l49 -20q-14 -27 -22.5 -40.5t-23.5 -31.5t-32.5 -26t-38.5 -8q-42 0 -59.5 28.5t-8.5 70.5l38 178q25 116 -63 116q-85 0 -174 -122z" />
    <glyph glyph-name="Ncaron" unicode="&#x147;" 
d="M451 674q-31 -31 -55 -31q-26 0 -42 31l-72 139l25 19l98 -105l151 105l23 -19zM456 0h-66l-154 493l-87 -409l20 -26h55l-13 -58h-222l13 58h55l32 26l85 402l-20 26h-55l12 58h168l140 -465l81 381l-20 26h-55l12 58h222l-12 -58h-55l-32 -26z" />
    <glyph glyph-name="ncaron" unicode="&#x148;" 
d="M420 539q-31 -31 -55 -31q-27 0 -42 31l-72 139l25 19l98 -105l151 105l23 -19zM193 257l-55 -257h-60l72 340l-20 26h-62l13 58h148l-20 -92q87 106 175 106q65 0 95.5 -41t14.5 -114l-42 -198q-8 -41 18 -41q13 0 23.5 13t29.5 46q3 6 5 9l49 -20q-14 -27 -22.5 -40.5
t-23.5 -31.5t-32.5 -26t-38.5 -8q-42 0 -59.5 28.5t-8.5 70.5l38 178q25 116 -63 116q-85 0 -174 -122z" />
    <glyph glyph-name="Eng" unicode="&#x14a;" 
d="M394 -8l-158 501l-87 -409l20 -26h55l-13 -58h-222l13 58h55l32 26l85 402l-20 26h-55l12 58h168l140 -465l81 381l-20 26h-55l12 58h222l-12 -58h-55l-32 -26l-106 -495q-39 -191 -176 -191q-55 0 -88.5 30.5t-33.5 77.5q0 25 15 42.5t37 17.5q21 0 34.5 -12.5
t13.5 -30.5q0 -33 -37 -38q17 -34 61 -34t71.5 33.5t42.5 105.5z" />
    <glyph glyph-name="eng" unicode="&#x14b;" 
d="M379 -10l58 273q25 116 -61 116q-84 0 -175 -122l-54 -257h-61l73 340l-20 26h-62l12 58h148l-19 -92q85 106 174 106q66 0 96.5 -41t14.5 -114l-62 -292q-41 -191 -177 -191q-55 0 -88.5 29.5t-33.5 77.5q0 25 15 42t38 17q22 0 35 -12t13 -31q0 -16 -10.5 -27
t-28.5 -12q17 -36 62 -36q44 0 71 34.5t42 107.5z" />
    <glyph glyph-name="Omacron" unicode="&#x14c;" 
d="M262 725h304l-12 -60h-304zM363 584q110 0 166 -68.5t56 -179.5q0 -139 -88.5 -244.5t-212.5 -105.5q-111 0 -166.5 68.5t-55.5 179.5q0 140 88 245t213 105zM284 49q101 0 166 86t65 201q0 84 -38.5 134.5t-113.5 50.5q-102 0 -167 -85.5t-65 -201.5q0 -84 39 -134.5
t114 -50.5z" />
    <glyph glyph-name="omacron" unicode="&#x14d;" 
d="M237 590h304l-13 -60h-304zM324 380q-79 0 -132 -53.5t-53 -131.5q0 -66 41.5 -108t109.5 -42q80 0 132.5 53t52.5 132q0 65 -41.5 107.5t-109.5 42.5zM324 438q96 0 157 -58.5t61 -149.5q0 -101 -73 -172.5t-179 -71.5q-96 0 -156.5 59t-60.5 150q0 100 73 171.5
t178 71.5z" />
    <glyph glyph-name="Obreve" unicode="&#x14e;" 
d="M410 704q41 0 80 26.5t59 71.5l45 -11q-29 -73 -79 -113.5t-113 -40.5q-64 0 -98.5 40.5t-32.5 113.5l42 11q0 -45 28 -71.5t69 -26.5zM363 584q110 0 166 -68.5t56 -179.5q0 -139 -88.5 -244.5t-212.5 -105.5q-111 0 -166.5 68.5t-55.5 179.5q0 140 88 245t213 105z
M284 49q101 0 166 86t65 201q0 84 -38.5 134.5t-113.5 50.5q-102 0 -167 -85.5t-65 -201.5q0 -84 39 -134.5t114 -50.5z" />
    <glyph glyph-name="obreve" unicode="&#x14f;" 
d="M324 380q-79 0 -132 -53.5t-53 -131.5q0 -66 41.5 -108t109.5 -42q80 0 132.5 53t52.5 132q0 65 -41.5 107.5t-109.5 42.5zM324 438q96 0 157 -58.5t61 -149.5q0 -101 -73 -172.5t-179 -71.5q-96 0 -156.5 59t-60.5 150q0 100 73 171.5t178 71.5zM384 571q41 0 80 26.5
t59 71.5l45 -11q-29 -73 -79 -113.5t-113 -40.5q-64 0 -98.5 40.5t-32.5 113.5l42 11q0 -45 28 -71.5t69 -26.5z" />
    <glyph glyph-name="Ohungarumlaut" unicode="&#x150;" 
d="M363 584q110 0 166 -68.5t56 -179.5q0 -139 -88.5 -244.5t-212.5 -105.5q-111 0 -166.5 68.5t-55.5 179.5q0 140 88 245t213 105zM284 49q101 0 166 86t65 201q0 84 -38.5 134.5t-113.5 50.5q-102 0 -167 -85.5t-65 -201.5q0 -84 39 -134.5t114 -50.5zM266 659l94 138
q25 39 59 39q16 0 27.5 -11t11.5 -28q0 -35 -40 -60l-135 -95zM461 659l94 138q25 39 59 39q16 0 27.5 -11t11.5 -28q0 -35 -40 -60l-135 -95z" />
    <glyph glyph-name="ohungarumlaut" unicode="&#x151;" 
d="M234 524l94 138q25 39 59 39q16 0 27.5 -11t11.5 -28q0 -35 -40 -60l-135 -95zM429 524l94 138q25 39 59 39q16 0 27.5 -11t11.5 -28q0 -35 -40 -60l-135 -95zM324 380q-79 0 -132 -53.5t-53 -131.5q0 -66 41.5 -108t109.5 -42q80 0 132.5 53t52.5 132q0 65 -41.5 107.5
t-109.5 42.5zM324 438q96 0 157 -58.5t61 -149.5q0 -101 -73 -172.5t-179 -71.5q-96 0 -156.5 59t-60.5 150q0 100 73 171.5t178 71.5z" />
    <glyph glyph-name="OE" unicode="&#x152;" 
d="M271 58l97 454q-122 0 -195.5 -83t-73.5 -198q0 -78 42.5 -125.5t129.5 -47.5zM544 0h-281q-111 0 -171.5 63.5t-60.5 167.5q0 142 96 240.5t252 98.5h281l-41 -192h-61l23 108l-20 26h-131l-41 -193h125l-11 -54h-126l-44 -207h137l32 26l23 108h60z" />
    <glyph glyph-name="oe" unicode="&#x153;" 
d="M402 -14q-41 0 -72 26t-46 72q-29 -45 -67.5 -71.5t-78.5 -26.5q-56 0 -89.5 45.5t-33.5 118.5q0 118 61.5 203t141.5 85q40 0 69.5 -27t41.5 -73q31 46 74 73t88 27q55 0 85.5 -30t30.5 -71q0 -68 -73.5 -108t-204.5 -48q-1 -8 -1 -25q0 -50 23 -80.5t62 -30.5
q55 0 121 63l29 -41q-81 -81 -161 -81zM280 276q0 47 -18 75t-50 28q-55 0 -95.5 -71.5t-40.5 -159.5q0 -47 17.5 -74.5t49.5 -27.5q56 0 96.5 71t40.5 159zM340 234h5q200 19 200 94q0 22 -15 36.5t-45 14.5q-46 0 -86 -41.5t-59 -103.5z" />
    <glyph glyph-name="Racute" unicode="&#x154;" 
d="M240 512l-43 -198h121q90 0 136 31t46 86q2 81 -131 81h-129zM224 0h-235l13 58h53l32 26l85 402l-20 26h-53l12 58h264q98 0 146.5 -35.5t48.5 -100.5q0 -74 -58.5 -121t-160.5 -55l109 -198h96l-13 -60h-169l13 58l-106 198h-96l-36 -172l20 -26h68zM314 659l93 138
q27 39 59 39q17 0 28 -11t11 -28q0 -35 -39 -60l-136 -95z" />
    <glyph glyph-name="racute" unicode="&#x155;" 
d="M326 524l94 138q25 39 59 39q16 0 27.5 -11t11.5 -28q0 -35 -40 -60l-135 -95zM442 300q0 21 13.5 33.5t33.5 12.5q10 0 18 -4q2 8 -2 13q-7 28 -48 28q-24 0 -49.5 -11t-58.5 -38t-54 -46.5t-64 -61.5l-48 -226h-60l72 340l-20 26h-105l13 58h190l-27 -127
q78 80 111 103q53 38 105 38q54 0 80 -30t26 -75q0 -36 -19.5 -60t-50.5 -24q-25 0 -40.5 13t-15.5 38z" />
    <glyph glyph-name="Rcommaaccent" unicode="&#x156;" 
d="M146 -134q0 26 18 44t44 18q25 0 43 -19t18 -45q0 -25 -22 -49l-111 -114l-26 24l75 89q-39 14 -39 52zM240 512l-43 -198h121q90 0 136 31t46 86q2 81 -131 81h-129zM224 0h-235l13 58h53l32 26l85 402l-20 26h-53l12 58h264q98 0 146.5 -35.5t48.5 -100.5
q0 -74 -58.5 -121t-160.5 -55l109 -198h96l-13 -60h-169l13 58l-106 198h-96l-36 -172l20 -26h68z" />
    <glyph glyph-name="rcommaaccent" unicode="&#x157;" 
d="M65 -134q0 26 18 44t44 18q25 0 43 -19t18 -45q0 -25 -22 -49l-111 -114l-26 24l75 89q-39 14 -39 52zM442 300q0 21 13.5 33.5t33.5 12.5q10 0 18 -4q2 8 -2 13q-7 28 -48 28q-24 0 -49.5 -11t-58.5 -38t-54 -46.5t-64 -61.5l-48 -226h-60l72 340l-20 26h-105l13 58h190
l-27 -127q78 80 111 103q53 38 105 38q54 0 80 -30t26 -75q0 -36 -19.5 -60t-50.5 -24q-25 0 -40.5 13t-15.5 38z" />
    <glyph glyph-name="Rcaron" unicode="&#x158;" 
d="M417 674q-31 -31 -55 -31q-26 0 -42 31l-72 139l25 19l98 -105l151 105l23 -19zM240 512l-43 -198h121q90 0 136 31t46 86q2 81 -131 81h-129zM224 0h-235l13 58h53l32 26l85 402l-20 26h-53l12 58h264q98 0 146.5 -35.5t48.5 -100.5q0 -74 -58.5 -121t-160.5 -55
l109 -198h96l-13 -60h-169l13 58l-106 198h-96l-36 -172l20 -26h68z" />
    <glyph glyph-name="rcaron" unicode="&#x159;" 
d="M435 539q-31 -31 -55 -31q-26 0 -42 31l-72 139l25 19l98 -105l151 105l23 -19zM442 300q0 21 13.5 33.5t33.5 12.5q10 0 18 -4q2 8 -2 13q-7 28 -48 28q-24 0 -49.5 -11t-58.5 -38t-54 -46.5t-64 -61.5l-48 -226h-60l72 340l-20 26h-105l13 58h190l-27 -127
q78 80 111 103q53 38 105 38q54 0 80 -30t26 -75q0 -36 -19.5 -60t-50.5 -24q-25 0 -40.5 13t-15.5 38z" />
    <glyph glyph-name="Sacute" unicode="&#x15a;" 
d="M310 45q63 0 105 33t42 86q0 63 -75 83l-121 33q-63 18 -96 48t-33 82q0 77 58 125.5t143 48.5q56 0 97.5 -21t63.5 -55l17 7l11 55h61l-41 -190h-52q-11 75 -53.5 110t-103.5 35q-58 0 -96.5 -28.5t-38.5 -76.5q0 -33 22 -50t66 -29l121 -34q118 -33 117 -134
q0 -81 -61.5 -134t-152.5 -53q-60 0 -109.5 25t-72.5 63l-16 -9l-15 -65h-61l45 208h52q9 -80 59.5 -121.5t117.5 -41.5zM344 659l93 138q27 39 59 39q17 0 28 -11t11 -28q0 -35 -39 -60l-136 -95z" />
    <glyph glyph-name="sacute" unicode="&#x15b;" 
d="M305 524l94 138q25 39 59 39q16 0 27.5 -11t11.5 -28q0 -35 -40 -60l-135 -95zM367 172l-134 35q-55 14 -82 36t-27 66q0 55 54.5 92t137.5 37q82 0 135.5 -33.5t53.5 -84.5q0 -27 -16 -42.5t-37 -15.5t-34.5 11.5t-13.5 30.5q0 16 12.5 26.5t31.5 9.5q-38 46 -132 46
q-57 0 -93 -20t-36 -52q0 -23 16.5 -34.5t53.5 -20.5l142 -39q102 -26 102 -99q0 -63 -61 -99t-146 -36q-91 0 -157 38.5t-66 92.5q0 28 15.5 44.5t36.5 16.5t34 -12t13 -32q0 -16 -10.5 -26t-26.5 -10q22 -26 66.5 -42.5t95.5 -16.5q60 0 101 21t41 57q0 37 -70 55z" />
    <glyph glyph-name="Scircumflex" unicode="&#x15c;" 
d="M310 45q63 0 105 33t42 86q0 63 -75 83l-121 33q-63 18 -96 48t-33 82q0 77 58 125.5t143 48.5q56 0 97.5 -21t63.5 -55l17 7l11 55h61l-41 -190h-52q-11 75 -53.5 110t-103.5 35q-58 0 -96.5 -28.5t-38.5 -76.5q0 -33 22 -50t66 -29l121 -34q118 -33 117 -134
q0 -81 -61.5 -134t-152.5 -53q-60 0 -109.5 25t-72.5 63l-16 -9l-15 -65h-61l45 208h52q9 -80 59.5 -121.5t117.5 -41.5zM417 829q27 0 42 -31l72 -139l-24 -19l-100 105l-150 -105l-23 19l128 139q29 31 55 31z" />
    <glyph glyph-name="scircumflex" unicode="&#x15d;" 
d="M388 694q27 0 42 -31l72 -139l-24 -19l-100 105l-150 -105l-23 19l128 139q29 31 55 31zM367 172l-134 35q-55 14 -82 36t-27 66q0 55 54.5 92t137.5 37q82 0 135.5 -33.5t53.5 -84.5q0 -27 -16 -42.5t-37 -15.5t-34.5 11.5t-13.5 30.5q0 16 12.5 26.5t31.5 9.5
q-38 46 -132 46q-57 0 -93 -20t-36 -52q0 -23 16.5 -34.5t53.5 -20.5l142 -39q102 -26 102 -99q0 -63 -61 -99t-146 -36q-91 0 -157 38.5t-66 92.5q0 28 15.5 44.5t36.5 16.5t34 -12t13 -32q0 -16 -10.5 -26t-26.5 -10q22 -26 66.5 -42.5t95.5 -16.5q60 0 101 21t41 57
q0 37 -70 55z" />
    <glyph glyph-name="Scedilla" unicode="&#x15e;" 
d="M212 -231q-46 0 -82.5 22t-47.5 62l44 26q8 -30 31 -47.5t55 -17.5q34 0 55 14.5t21 41.5q-2 43 -76 37l-32 26l45 68q-68 23 -97 73l-16 -9l-15 -65h-61l45 208h52q9 -80 59.5 -121.5t117.5 -41.5q63 0 105 33t42 86q0 63 -75 83l-121 33q-63 18 -96 48t-33 82
q0 77 58 125.5t143 48.5q56 0 97.5 -21t63.5 -55l17 7l11 55h61l-41 -190h-52q-11 75 -53.5 110t-103.5 35q-58 0 -96.5 -28.5t-38.5 -76.5q0 -33 22 -50t66 -29l121 -34q118 -33 117 -134q0 -81 -61.5 -134t-152.5 -53q-26 0 -45 4l-26 -40q47 0 75 -20t28 -56
q0 -45 -37 -75t-93 -30z" />
    <glyph glyph-name="scedilla" unicode="&#x15f;" 
d="M202 -231q-46 0 -82.5 22t-47.5 62l44 26q8 -30 31 -47.5t55 -17.5q34 0 55 14.5t21 41.5q-2 43 -76 37l-32 26l41 63q-62 15 -101 47.5t-39 73.5q0 28 15.5 44.5t36.5 16.5t34 -12t13 -32q0 -16 -10.5 -26t-26.5 -10q22 -26 66.5 -42.5t95.5 -16.5q60 0 101 21t41 57
q0 37 -70 55l-134 35q-55 14 -82 36t-27 66q0 55 54.5 92t137.5 37q82 0 135.5 -33.5t53.5 -84.5q0 -27 -16 -42.5t-37 -15.5t-34.5 11.5t-13.5 30.5q0 16 12.5 26.5t31.5 9.5q-38 46 -132 46q-57 0 -93 -20t-36 -52q0 -23 16.5 -34.5t53.5 -20.5l142 -39q102 -26 102 -99
q0 -63 -61 -99t-146 -36q-14 0 -40 2l-25 -38q47 0 75 -20t28 -56q0 -45 -37 -75t-93 -30z" />
    <glyph glyph-name="Scaron" unicode="&#x160;" 
d="M310 45q63 0 105 33t42 86q0 63 -75 83l-121 33q-63 18 -96 48t-33 82q0 77 58 125.5t143 48.5q56 0 97.5 -21t63.5 -55l17 7l11 55h61l-41 -190h-52q-11 75 -53.5 110t-103.5 35q-58 0 -96.5 -28.5t-38.5 -76.5q0 -33 22 -50t66 -29l121 -34q118 -33 117 -134
q0 -81 -61.5 -134t-152.5 -53q-60 0 -109.5 25t-72.5 63l-16 -9l-15 -65h-61l45 208h52q9 -80 59.5 -121.5t117.5 -41.5zM447 674q-31 -31 -55 -31q-26 0 -42 31l-72 139l25 19l98 -105l151 105l23 -19z" />
    <glyph glyph-name="scaron" unicode="&#x161;" 
d="M413 539q-31 -31 -55 -31q-26 0 -42 31l-72 139l25 19l98 -105l151 105l23 -19zM367 172l-134 35q-55 14 -82 36t-27 66q0 55 54.5 92t137.5 37q82 0 135.5 -33.5t53.5 -84.5q0 -27 -16 -42.5t-37 -15.5t-34.5 11.5t-13.5 30.5q0 16 12.5 26.5t31.5 9.5q-38 46 -132 46
q-57 0 -93 -20t-36 -52q0 -23 16.5 -34.5t53.5 -20.5l142 -39q102 -26 102 -99q0 -63 -61 -99t-146 -36q-91 0 -157 38.5t-66 92.5q0 28 15.5 44.5t36.5 16.5t34 -12t13 -32q0 -16 -10.5 -26t-26.5 -10q22 -26 66.5 -42.5t95.5 -16.5q60 0 101 21t41 57q0 37 -70 55z" />
    <glyph glyph-name="Tcommaaccent" unicode="&#x162;" 
d="M217 -231q-46 0 -82.5 22t-47.5 62l44 26q8 -30 31 -47.5t55 -17.5q34 0 55 14.5t21 41.5q-2 43 -76 37l-32 26l44 67h-143l13 58h116l32 26l91 428h-136l-32 -26l-29 -138h-60l47 222h510l-47 -222h-60l29 138l-20 26h-136l-91 -428l20 -26h116l-13 -58h-160l-32 -50
q47 0 75 -20t28 -56q0 -45 -37 -75t-93 -30z" />
    <glyph glyph-name="tcommaaccent" unicode="&#x163;" 
d="M257 -231q-46 0 -82.5 22t-47.5 62l44 26q8 -30 31 -47.5t55 -17.5q34 0 55 14.5t21 41.5q-2 43 -76 37l-32 26l39 59q-60 16 -88.5 67t-10.5 133l32 148l-21 26h-99l12 58h125l33 154h63l-33 -154h250l-12 -58h-226l-31 -26l-29 -139q-17 -80 9 -117.5t84 -37.5
q96 0 165 118l47 -31q-35 -66 -91.5 -106.5t-126.5 -40.5h-9l-23 -36q47 0 75 -20t28 -56q0 -45 -37 -75t-93 -30z" />
    <glyph glyph-name="Tcaron" unicode="&#x164;" 
d="M455 674q-31 -31 -55 -31q-26 0 -42 31l-72 139l25 19l98 -105l151 105l23 -19zM128 570h510l-47 -222h-60l29 138l-20 26h-136l-91 -428l20 -26h116l-13 -58h-350l13 58h116l32 26l91 428h-136l-32 -26l-29 -138h-60z" />
    <glyph glyph-name="tcaron" unicode="&#x165;" 
d="M414 520l52 157q14 49 54 49q18 0 31.5 -13t13.5 -33q0 -23 -21 -47l-109 -124zM197 340l-21 26h-99l12 58h125l33 154h63l-33 -154h250l-12 -58h-226l-31 -26l-29 -139q-17 -80 9 -117.5t84 -37.5q96 0 165 118l47 -31q-35 -66 -91.5 -106.5t-126.5 -40.5
q-83 0 -127.5 53.5t-23.5 152.5z" />
    <glyph glyph-name="Tbar" unicode="&#x166;" 
d="M449 58l-13 -58h-350l13 58h116l32 26l34 158h-108l12 58h108l45 212h-136l-32 -26l-29 -138h-60l47 222h510l-47 -222h-60l29 138l-20 26h-136l-45 -212h108l-12 -58h-108l-34 -158l20 -26h116z" />
    <glyph glyph-name="tbar" unicode="&#x167;" 
d="M534 133q-35 -66 -91.5 -106.5t-126.5 -40.5q-83 0 -127.5 53.5t-23.5 152.5l5 23h-121l12 56h121l15 69l-21 26h-99l12 58h125l33 154h63l-33 -154h250l-12 -58h-226l-31 -26l-14 -69h223l-12 -56h-223l-3 -14q-17 -80 9 -117.5t84 -37.5q96 0 165 118z" />
    <glyph glyph-name="Utilde" unicode="&#x168;" 
d="M547 773h63q-13 -58 -49 -93.5t-83 -35.5q-28 0 -51 18t-41.5 36t-36.5 18q-23 0 -42 -19t-26 -50h-62q12 58 48 93t83 35q27 0 50 -18t42 -36t37 -18q23 0 42 19t26 51zM273 -14q-90 0 -139.5 58t-30.5 146l63 296l-21 26h-55l12 58h224l-12 -58h-55l-31 -26l-63 -294
q-13 -64 18 -105t92 -41q67 0 110 38t57 103l64 299l-21 26h-55l12 58h224l-12 -58h-55l-31 -26l-64 -301q-20 -90 -79 -144.5t-152 -54.5z" />
    <glyph glyph-name="utilde" unicode="&#x169;" 
d="M223 424l-56 -263q-25 -116 63 -116q87 0 172 116l56 263h61l-72 -336q-9 -44 17 -44q13 0 23.5 13t29.5 46q3 6 5 9l49 -20q-14 -27 -22.5 -40.5t-23.5 -31.5t-32.5 -26t-38.5 -8q-82 0 -65 99q-84 -99 -170 -99q-67 0 -99 43.5t-16 116.5l41 194l-20 26h-62l13 58h147z
M497 642h63q-13 -58 -49 -93.5t-83 -35.5q-28 0 -51 18t-41.5 36t-36.5 18q-23 0 -42 -19t-26 -50h-62q12 58 48 93t83 35q27 0 50 -18t42 -36t37 -18q23 0 42 19t26 51z" />
    <glyph glyph-name="Umacron" unicode="&#x16a;" 
d="M265 725h304l-12 -60h-304zM273 -14q-90 0 -139.5 58t-30.5 146l63 296l-21 26h-55l12 58h224l-12 -58h-55l-31 -26l-63 -294q-13 -64 18 -105t92 -41q67 0 110 38t57 103l64 299l-21 26h-55l12 58h224l-12 -58h-55l-31 -26l-64 -301q-20 -90 -79 -144.5t-152 -54.5z" />
    <glyph glyph-name="umacron" unicode="&#x16b;" 
d="M223 424l-56 -263q-25 -116 63 -116q87 0 172 116l56 263h61l-72 -336q-9 -44 17 -44q13 0 23.5 13t29.5 46q3 6 5 9l49 -20q-14 -27 -22.5 -40.5t-23.5 -31.5t-32.5 -26t-38.5 -8q-82 0 -65 99q-84 -99 -170 -99q-67 0 -99 43.5t-16 116.5l41 194l-20 26h-62l13 58h147z
M216 590h304l-13 -60h-304z" />
    <glyph glyph-name="Ubreve" unicode="&#x16c;" 
d="M412 704q41 0 80 26.5t59 71.5l45 -11q-29 -73 -79 -113.5t-113 -40.5q-64 0 -98.5 40.5t-32.5 113.5l42 11q0 -45 28 -71.5t69 -26.5zM273 -14q-90 0 -139.5 58t-30.5 146l63 296l-21 26h-55l12 58h224l-12 -58h-55l-31 -26l-63 -294q-13 -64 18 -105t92 -41
q67 0 110 38t57 103l64 299l-21 26h-55l12 58h224l-12 -58h-55l-31 -26l-64 -301q-20 -90 -79 -144.5t-152 -54.5z" />
    <glyph glyph-name="ubreve" unicode="&#x16d;" 
d="M223 424l-56 -263q-25 -116 63 -116q87 0 172 116l56 263h61l-72 -336q-9 -44 17 -44q13 0 23.5 13t29.5 46q3 6 5 9l49 -20q-14 -27 -22.5 -40.5t-23.5 -31.5t-32.5 -26t-38.5 -8q-82 0 -65 99q-84 -99 -170 -99q-67 0 -99 43.5t-16 116.5l41 194l-20 26h-62l13 58h147z
M363 571q41 0 80 26.5t59 71.5l45 -11q-29 -73 -79 -113.5t-113 -40.5q-64 0 -98.5 40.5t-32.5 113.5l42 11q0 -45 28 -71.5t69 -26.5z" />
    <glyph glyph-name="Uring" unicode="&#x16e;" 
d="M273 -14q-90 0 -139.5 58t-30.5 146l63 296l-21 26h-55l12 58h224l-12 -58h-55l-31 -26l-63 -294q-13 -64 18 -105t92 -41q67 0 110 38t57 103l64 299l-21 26h-55l12 58h224l-12 -58h-55l-31 -26l-64 -301q-20 -90 -79 -144.5t-152 -54.5zM535 748q0 -51 -34.5 -84
t-83.5 -33t-79 30.5t-30 74.5q0 52 35 85t84 33q48 0 78 -30.5t30 -75.5zM486 746q0 25 -17 42.5t-44 17.5q-28 0 -47.5 -19t-19.5 -48q0 -25 17 -42t44 -17q28 0 47.5 18.5t19.5 47.5z" />
    <glyph glyph-name="uring" unicode="&#x16f;" 
d="M485 613q0 -51 -35 -84t-84 -33q-48 0 -78 30t-30 75q0 52 35 85t84 33q48 0 78 -30.5t30 -75.5zM436 611q0 25 -17 42.5t-44 17.5q-28 0 -48 -19t-20 -48q0 -25 17 -42t45 -17q27 0 47 19t20 47zM223 424l-56 -263q-25 -116 63 -116q87 0 172 116l56 263h61l-72 -336
q-9 -44 17 -44q13 0 23.5 13t29.5 46q3 6 5 9l49 -20q-14 -27 -22.5 -40.5t-23.5 -31.5t-32.5 -26t-38.5 -8q-82 0 -65 99q-84 -99 -170 -99q-67 0 -99 43.5t-16 116.5l41 194l-20 26h-62l13 58h147z" />
    <glyph glyph-name="Uhungarumlaut" unicode="&#x170;" 
d="M273 -14q-90 0 -139.5 58t-30.5 146l63 296l-21 26h-55l12 58h224l-12 -58h-55l-31 -26l-63 -294q-13 -64 18 -105t92 -41q67 0 110 38t57 103l64 299l-21 26h-55l12 58h224l-12 -58h-55l-31 -26l-64 -301q-20 -90 -79 -144.5t-152 -54.5zM261 659l94 138q25 39 59 39
q16 0 27.5 -11t11.5 -28q0 -35 -40 -60l-135 -95zM456 659l94 138q25 39 59 39q16 0 27.5 -11t11.5 -28q0 -35 -40 -60l-135 -95z" />
    <glyph glyph-name="uhungarumlaut" unicode="&#x171;" 
d="M223 424l-56 -263q-25 -116 63 -116q87 0 172 116l56 263h61l-72 -336q-9 -44 17 -44q13 0 23.5 13t29.5 46q3 6 5 9l49 -20q-14 -27 -22.5 -40.5t-23.5 -31.5t-32.5 -26t-38.5 -8q-82 0 -65 99q-84 -99 -170 -99q-67 0 -99 43.5t-16 116.5l41 194l-20 26h-62l13 58h147z
M204 524l94 138q25 39 59 39q16 0 27.5 -11t11.5 -28q0 -35 -40 -60l-135 -95zM399 524l94 138q25 39 59 39q16 0 27.5 -11t11.5 -28q0 -35 -40 -60l-135 -95z" />
    <glyph glyph-name="Uogonek" unicode="&#x172;" 
d="M253 -232q-38 0 -58.5 19.5t-20.5 50.5q0 33 23.5 66.5t77.5 81.5h-2q-90 0 -139.5 58t-30.5 146l63 296l-21 26h-55l12 58h224l-12 -58h-55l-31 -26l-63 -294q-13 -64 18 -105t92 -41q67 0 110 38t57 103l64 299l-21 26h-55l12 58h224l-12 -58h-55l-31 -26l-64 -301
q-29 -131 -129 -178q-80 -69 -111.5 -103.5t-31.5 -57.5q0 -26 29 -26q36 0 92 50l29 -41q-67 -61 -129 -61z" />
    <glyph glyph-name="uogonek" unicode="&#x173;" 
d="M447 86q-9 -42 17 -42q14 0 25 14.5t32 53.5l49 -20q-23 -48 -71 -98t-81.5 -86t-33.5 -62t28 -26q36 0 92 50l30 -41q-69 -61 -130 -61q-37 0 -58 19.5t-21 50.5q0 33 24.5 66.5t79.5 85.5q-57 13 -40 95q-84 -99 -170 -99q-67 0 -99 43.5t-16 116.5l41 194l-20 26h-62
l13 58h147l-56 -263q-25 -116 63 -116q87 0 172 116l56 263h61z" />
    <glyph glyph-name="Wcircumflex" unicode="&#x174;" 
d="M391 427l-14 -367h22l149 431l-12 21h-92l12 58h226l-13 -58h-51l-179 -512h-115l13 371l-157 -371h-118l61 512h-51l13 58h227l-13 -58h-92l-21 -21l-56 -431h22l156 367h83zM431 829q27 0 42 -31l72 -139l-24 -19l-100 105l-150 -105l-23 19l128 139q29 31 55 31z" />
    <glyph glyph-name="wcircumflex" unicode="&#x175;" 
d="M413 694q27 0 42 -31l72 -139l-24 -19l-100 105l-150 -105l-23 19l128 139q29 31 55 31zM567 309q0 -68 -25 -141t-75 -127.5t-109 -54.5q-34 0 -57 19t-29 48q-36 -67 -108 -67q-47 0 -72 36t-14 91l49 227l-21 26h-55l13 58h138l-64 -302q-8 -38 4.5 -59.5t37.5 -21.5
q65 0 88 105l34 158h58l-37 -173q-8 -40 2.5 -65t39.5 -25q39 0 74 47.5t53 109t18 112.5q-2 69 -42 75q9 -9 9 -24q0 -18 -12 -28t-32 -10q-19 0 -32 14t-13 35q0 31 22 48.5t53 17.5q48 0 76 -35.5t28 -93.5z" />
    <glyph glyph-name="Ycircumflex" unicode="&#x176;" 
d="M339 210l-26 -126l20 -26h116l-13 -58h-350l13 58h116l32 26l26 126l-137 302h-62l12 58h241l-12 -58h-71l-28 -21l100 -229l195 229l-18 21h-71l12 58h246l-12 -58h-62zM430 829q27 0 42 -31l72 -139l-24 -19l-100 105l-150 -105l-23 19l128 139q29 31 55 31z" />
    <glyph glyph-name="ycircumflex" unicode="&#x177;" 
d="M401 21l18 83q-85 -99 -172 -99q-66 0 -99 43.5t-18 116.5l37 175l-20 26h-62l13 58h147l-51 -244q-25 -116 63 -116q90 0 175 116l52 244h61l-86 -406q-22 -103 -81 -161.5t-154 -58.5q-79 0 -128.5 36.5t-49.5 90.5q0 29 16 48t41 19q21 0 34.5 -13t13.5 -34
q0 -15 -11 -26.5t-25 -12.5q21 -57 109 -57q69 0 115 47t62 125zM405 694q27 0 42 -31l72 -139l-24 -19l-100 105l-150 -105l-23 19l128 139q29 31 55 31z" />
    <glyph glyph-name="Ydieresis" unicode="&#x178;" 
d="M339 210l-26 -126l20 -26h116l-13 -58h-350l13 58h116l32 26l26 126l-137 302h-62l12 58h241l-12 -58h-71l-28 -21l100 -229l195 229l-18 21h-71l12 58h246l-12 -58h-62zM519 651q-27 0 -46 18.5t-19 44.5t19 45t46 19t45.5 -19t18.5 -45t-18.5 -44.5t-45.5 -18.5z
M308 651q-27 0 -46 18.5t-19 44.5q0 27 19 45.5t46 18.5t45.5 -18.5t18.5 -45.5q0 -26 -18.5 -44.5t-45.5 -18.5z" />
    <glyph glyph-name="Zacute" unicode="&#x179;" 
d="M114 58h316l32 26l22 108h61l-41 -192h-486l15 69l485 443h-288l-32 -26l-23 -108h-61l41 192h454l-16 -76zM351 659l93 138q27 39 59 39q17 0 28 -11t11 -28q0 -35 -39 -60l-136 -95z" />
    <glyph glyph-name="zacute" unicode="&#x17a;" 
d="M323 524l94 138q25 39 59 39q16 0 27.5 -11t11.5 -28q0 -35 -40 -60l-135 -95zM537 109q0 -54 -42 -88.5t-107 -34.5q-49 0 -93 22t-85 46.5t-78 28.5q-45 -41 -65 -89l-40 32q28 67 93 115t162 93q95 44 144 80q-22 5 -81.5 37.5t-104.5 32.5q-30 0 -54 -13t-30 -35
q20 1 32.5 -10t12.5 -29q0 -21 -14 -33.5t-36 -12.5q-23 0 -40 17t-17 47q0 54 41.5 88.5t104.5 34.5q55 0 126.5 -37.5t106.5 -43.5q29 33 47 72l41 -31q-28 -68 -93 -116t-162 -93q-80 -38 -120 -64q27 -6 90.5 -45.5t111.5 -39.5q32 0 56.5 13t30.5 35q-20 -1 -32.5 10
t-12.5 29q0 21 13.5 33.5t35.5 12.5q23 0 40.5 -17t17.5 -47z" />
    <glyph glyph-name="Zdotaccent" unicode="&#x17b;" 
d="M407 648q-27 0 -46 18.5t-19 45.5q0 28 19 47.5t46 19.5q28 0 47 -19t19 -48q0 -27 -19 -45.5t-47 -18.5zM114 58h316l32 26l22 108h61l-41 -192h-486l15 69l485 443h-288l-32 -26l-23 -108h-61l41 192h454l-16 -76z" />
    <glyph glyph-name="zdotaccent" unicode="&#x17c;" 
d="M537 109q0 -54 -42 -88.5t-107 -34.5q-49 0 -93 22t-85 46.5t-78 28.5q-45 -41 -65 -89l-40 32q28 67 93 115t162 93q95 44 144 80q-22 5 -81.5 37.5t-104.5 32.5q-30 0 -54 -13t-30 -35q20 1 32.5 -10t12.5 -29q0 -21 -14 -33.5t-36 -12.5q-23 0 -40 17t-17 47
q0 54 41.5 88.5t104.5 34.5q55 0 126.5 -37.5t106.5 -43.5q29 33 47 72l41 -31q-28 -68 -93 -116t-162 -93q-80 -38 -120 -64q27 -6 90.5 -45.5t111.5 -39.5q32 0 56.5 13t30.5 35q-20 -1 -32.5 10t-12.5 29q0 21 13.5 33.5t35.5 12.5q23 0 40.5 -17t17.5 -47zM386 523
q-27 0 -46 18.5t-19 45.5q0 28 19 47.5t46 19.5q28 0 47 -19t19 -48q0 -27 -19 -45.5t-47 -18.5z" />
    <glyph glyph-name="Zcaron" unicode="&#x17d;" 
d="M454 674q-31 -31 -55 -31q-27 0 -42 31l-72 139l25 19l98 -105l151 105l23 -19zM114 58h316l32 26l22 108h61l-41 -192h-486l15 69l485 443h-288l-32 -26l-23 -108h-61l41 192h454l-16 -76z" />
    <glyph glyph-name="zcaron" unicode="&#x17e;" 
d="M432 539q-31 -31 -55 -31q-27 0 -42 31l-72 139l25 19l98 -105l151 105l23 -19zM537 109q0 -54 -42 -88.5t-107 -34.5q-49 0 -93 22t-85 46.5t-78 28.5q-45 -41 -65 -89l-40 32q28 67 93 115t162 93q95 44 144 80q-22 5 -81.5 37.5t-104.5 32.5q-30 0 -54 -13t-30 -35
q20 1 32.5 -10t12.5 -29q0 -21 -14 -33.5t-36 -12.5q-23 0 -40 17t-17 47q0 54 41.5 88.5t104.5 34.5q55 0 126.5 -37.5t106.5 -43.5q29 33 47 72l41 -31q-28 -68 -93 -116t-162 -93q-80 -38 -120 -64q27 -6 90.5 -45.5t111.5 -39.5q32 0 56.5 13t30.5 35q-20 -1 -32.5 10
t-12.5 29q0 21 13.5 33.5t35.5 12.5q23 0 40.5 -17t17.5 -47z" />
    <glyph glyph-name="florin" unicode="&#x192;" 
d="M275 5q-59 -184 -199 -184q-55 0 -85.5 31.5t-30.5 77.5q0 42 21.5 69t51.5 27q21 0 34 -12.5t13 -31.5q0 -21 -17.5 -35.5t-40.5 -13.5q-1 -25 13.5 -41.5t44.5 -16.5q84 0 125 130l65 201h-121l12 57h128l44 137q59 184 199 184q54 0 84.5 -31.5t30.5 -77.5
q0 -42 -21.5 -69t-51.5 -27q-20 0 -33 12.5t-13 31.5q0 21 17 35.5t40 13.5q2 24 -12.5 41t-44.5 17q-85 0 -125 -129l-45 -138h133l-12 -57h-139z" />
    <glyph glyph-name="Aringacute" unicode="&#x1fa;" 
d="M463 652q0 25 -17 42.5t-44 17.5q-28 0 -47.5 -19t-19.5 -48q0 -25 17 -42t44 -17q28 0 47.5 18.5t19.5 47.5zM220 252h190l-42 253zM207 58l-12 -58h-231l12 58h62l296 494q-49 30 -49 90q0 52 35 85t84 33q48 0 78 -30.5t30 -75.5q0 -42 -24.5 -72.5t-61.5 -40.5
l82 -483h62l-12 -58h-230l12 58h71l28 21l-19 115h-235l-67 -115l18 -21h71zM397 814l93 138q27 39 59 39q17 0 28 -11t11 -28q0 -34 -39 -60l-136 -95z" />
    <glyph glyph-name="aringacute" unicode="&#x1fb;" 
d="M476 -14q-38 0 -56 25t-9 70q-75 -95 -172 -95q-83 0 -134 54.5t-51 137.5q0 105 73 182.5t170 77.5q60 0 105.5 -29.5t59.5 -70.5l31 100h51l-75 -353q-8 -41 18 -41q14 0 25 14.5t32 53.5l49 -20q-14 -27 -22.5 -40.5t-23.5 -31.5t-32.5 -26t-38.5 -8zM119 178
q0 -58 34.5 -95.5t92.5 -37.5q56 0 98 29t81 84l22 108q-15 52 -53.5 82.5t-96.5 30.5q-76 0 -127 -59.5t-51 -141.5zM485 598q0 -51 -35 -84t-84 -33q-48 0 -78 30t-30 75q0 52 35 85t84 33q48 0 78 -30.5t30 -75.5zM436 596q0 25 -17 42.5t-44 17.5q-28 0 -48 -19t-20 -48
q0 -25 17 -42t45 -17q27 0 47 19t20 47zM372 764l93 138q27 39 59 39q17 0 28 -11t11 -28q0 -34 -39 -60l-136 -95z" />
    <glyph glyph-name="AEacute" unicode="&#x1fc;" 
d="M410 659l93 138q27 39 59 39q17 0 28 -11t11 -28q0 -35 -39 -60l-136 -95zM320 252l55 260h-24l-175 -260h144zM139 58l-12 -58h-158l13 62l290 429l-16 21h-58l12 58h457l-41 -192h-60l23 108l-20 26h-133l-40 -193h128l-12 -54h-128l-44 -207h138l32 26l23 108h59
l-40 -192h-354l12 58h42l32 26l23 110h-170l-78 -115l18 -21h62z" />
    <glyph glyph-name="aeacute" unicode="&#x1fd;" 
d="M325 524l94 138q25 39 59 39q16 0 27.5 -11t11.5 -28q0 -35 -40 -60l-135 -95zM553 67q-81 -81 -160 -81q-71 0 -109 64q-86 -64 -159 -64q-50 0 -82 29.5t-32 75.5q0 38 18.5 65.5t55 43.5t80.5 24t104 12q15 55 46 100q-13 49 -74 49q-51 0 -88 -20q21 -10 21 -35
q0 -21 -15 -35t-39 -14q-20 0 -33 14t-13 34q0 48 52.5 78.5t116.5 30.5q82 0 112 -54q59 54 126 54q56 0 86 -30t30 -71q0 -137 -278 -151q-2 -20 -2 -30q0 -50 22.5 -80.5t62.5 -30.5q58 0 122 63zM331 239h5q199 13 199 89q0 22 -15 36.5t-44 14.5q-46 0 -86 -40
t-59 -100zM139 42q57 0 127 52q-7 33 -7 62q0 18 1 27q-90 -5 -137 -23t-47 -62q0 -26 18 -41t45 -15z" />
    <glyph glyph-name="Oslashacute" unicode="&#x1fe;" 
d="M363 521q-102 0 -167 -85.5t-65 -201.5q0 -56 18 -98l318 346q-39 39 -104 39zM284 49q101 0 166 86t65 201q0 58 -18 100l-318 -347q40 -40 105 -40zM585 336q0 -139 -88.5 -244.5t-212.5 -105.5q-95 0 -151 53l-84 -91l-42 34l92 99q-37 62 -37 153q0 140 88 245
t213 105q93 0 150 -52l80 87l41 -34l-87 -95q38 -61 38 -154zM356 659l93 138q27 39 59 39q17 0 28 -11t11 -28q0 -35 -39 -60l-136 -95z" />
    <glyph glyph-name="oslashacute" unicode="&#x1ff;" 
d="M324 381q-79 0 -132.5 -54t-53.5 -132q0 -51 27 -91l244 254q-37 23 -85 23zM290 44q80 0 133 53.5t53 132.5q0 55 -29 93l-244 -255q38 -24 87 -24zM542 230q0 -101 -73 -172.5t-179 -71.5q-72 0 -129 38l-86 -90l-40 34l87 91q-49 57 -49 136q0 100 73 171.5t178 71.5
q71 0 127 -36l79 83l40 -34l-79 -83q51 -57 51 -138zM320 524l94 138q25 39 59 39q16 0 27.5 -11t11.5 -28q0 -35 -40 -60l-135 -95z" />
    <glyph glyph-name="Scommaaccent" unicode="&#x218;" 
d="M166 -134q0 26 18 44t44 18q25 0 43 -19t18 -45q0 -25 -22 -49l-111 -114l-26 24l75 89q-39 14 -39 52zM310 45q63 0 105 33t42 86q0 63 -75 83l-121 33q-63 18 -96 48t-33 82q0 77 58 125.5t143 48.5q56 0 97.5 -21t63.5 -55l17 7l11 55h61l-41 -190h-52
q-11 75 -53.5 110t-103.5 35q-58 0 -96.5 -28.5t-38.5 -76.5q0 -33 22 -50t66 -29l121 -34q118 -33 117 -134q0 -81 -61.5 -134t-152.5 -53q-60 0 -109.5 25t-72.5 63l-16 -9l-15 -65h-61l45 208h52q9 -80 59.5 -121.5t117.5 -41.5z" />
    <glyph glyph-name="scommaaccent" unicode="&#x219;" 
d="M160 -134q0 26 18 44t44 18q25 0 43 -19t18 -45q0 -25 -22 -49l-111 -114l-26 24l75 89q-39 14 -39 52zM367 172l-134 35q-55 14 -82 36t-27 66q0 55 54.5 92t137.5 37q82 0 135.5 -33.5t53.5 -84.5q0 -27 -16 -42.5t-37 -15.5t-34.5 11.5t-13.5 30.5q0 16 12.5 26.5
t31.5 9.5q-38 46 -132 46q-57 0 -93 -20t-36 -52q0 -23 16.5 -34.5t53.5 -20.5l142 -39q102 -26 102 -99q0 -63 -61 -99t-146 -36q-91 0 -157 38.5t-66 92.5q0 28 15.5 44.5t36.5 16.5t34 -12t13 -32q0 -16 -10.5 -26t-26.5 -10q22 -26 66.5 -42.5t95.5 -16.5q60 0 101 21
t41 57q0 37 -70 55z" />
    <glyph glyph-name="uni021A" unicode="&#x21a;" 
d="M180 -134q0 26 18 44t44 18q25 0 43 -19t18 -45q0 -25 -22 -49l-111 -114l-26 24l75 89q-39 14 -39 52zM128 570h510l-47 -222h-60l29 138l-20 26h-136l-91 -428l20 -26h116l-13 -58h-350l13 58h116l32 26l91 428h-136l-32 -26l-29 -138h-60z" />
    <glyph glyph-name="uni021B" unicode="&#x21b;" 
d="M204 -134q0 26 18 44t44 18q25 0 43 -19t18 -45q0 -25 -22 -49l-111 -114l-26 24l75 89q-39 14 -39 52zM197 340l-21 26h-99l12 58h125l33 154h63l-33 -154h250l-12 -58h-226l-31 -26l-29 -139q-17 -80 9 -117.5t84 -37.5q96 0 165 118l47 -31q-35 -66 -91.5 -106.5
t-126.5 -40.5q-83 0 -127.5 53.5t-23.5 152.5z" />
    <glyph glyph-name="uni0237" unicode="&#x237;" 
d="M9 -42q-1 33 18.5 55.5t48.5 22.5q27 0 44 -16.5t17 -40.5q0 -20 -16 -35.5t-39 -16.5q4 -30 30.5 -51t70.5 -21q128 0 166 175l66 310l-21 26h-203l13 58h289l-85 -399q-24 -110 -82 -166.5t-143 -56.5q-79 0 -126.5 46t-47.5 110z" />
    <glyph glyph-name="circumflex" unicode="&#x2c6;" 
d="M408 694q27 0 42 -31l72 -139l-24 -19l-100 105l-150 -105l-23 19l128 139q29 31 55 31z" />
    <glyph glyph-name="caron" unicode="&#x2c7;" 
d="M427 539q-31 -31 -55 -31q-26 0 -42 31l-72 139l25 19l98 -105l151 105l23 -19z" />
    <glyph glyph-name="breve" unicode="&#x2d8;" 
d="M380 571q41 0 80 26.5t59 71.5l45 -11q-29 -73 -79 -113.5t-113 -40.5q-64 0 -98.5 40.5t-32.5 113.5l42 11q0 -45 28 -71.5t69 -26.5z" />
    <glyph glyph-name="dotaccent" unicode="&#x2d9;" 
d="M386 523q-27 0 -46 18.5t-19 45.5q0 28 19 47.5t46 19.5q28 0 47 -19t19 -48q0 -27 -19 -45.5t-47 -18.5z" />
    <glyph glyph-name="ring" unicode="&#x2da;" 
d="M505 613q0 -51 -35 -84t-84 -33q-48 0 -78 30t-30 75q0 52 35 85t84 33q48 0 78 -30.5t30 -75.5zM456 611q0 25 -17 42.5t-44 17.5q-28 0 -48 -19t-20 -48q0 -25 17 -42t45 -17q27 0 47 19t20 47z" />
    <glyph glyph-name="ogonek" unicode="&#x2db;" 
d="M309 49l35 -34q-86 -74 -119 -109.5t-33 -59.5q0 -26 29 -26q36 0 92 50l29 -41q-67 -61 -129 -61q-38 0 -58.5 19.5t-20.5 50.5q0 42 38 85t137 126z" />
    <glyph glyph-name="tilde" unicode="&#x2dc;" 
d="M518 642h63q-13 -58 -49 -93.5t-83 -35.5q-28 0 -51 18t-41.5 36t-36.5 18q-23 0 -42 -19t-26 -50h-62q12 58 48 93t83 35q27 0 50 -18t42 -36t37 -18q23 0 42 19t26 51z" />
    <glyph glyph-name="hungarumlaut" unicode="&#x2dd;" 
d="M194 524l94 138q25 39 59 39q16 0 27.5 -11t11.5 -28q0 -35 -40 -60l-135 -95zM389 524l94 138q25 39 59 39q16 0 27.5 -11t11.5 -28q0 -35 -40 -60l-135 -95z" />
    <glyph glyph-name="uni0326" unicode="&#x326;" 
d="M177 -134q0 26 18 44t44 18q25 0 43 -19t18 -45q0 -25 -22 -49l-111 -114l-26 24l75 89q-39 14 -39 52z" />
    <glyph glyph-name="Wgrave" unicode="&#x1e80;" 
d="M455 656l-20 -15l-91 99q-23 21 -23 47q0 22 14 36t34 14q40 0 51 -45zM391 427l-14 -367h22l149 431l-12 21h-92l12 58h226l-13 -58h-51l-179 -512h-115l13 371l-157 -371h-118l61 512h-51l13 58h227l-13 -58h-92l-21 -21l-56 -431h22l156 367h83z" />
    <glyph glyph-name="wgrave" unicode="&#x1e81;" 
d="M567 309q0 -68 -25 -141t-75 -127.5t-109 -54.5q-34 0 -57 19t-29 48q-36 -67 -108 -67q-47 0 -72 36t-14 91l49 227l-21 26h-55l13 58h138l-64 -302q-8 -38 4.5 -59.5t37.5 -21.5q65 0 88 105l34 158h58l-37 -173q-8 -40 2.5 -65t39.5 -25q39 0 74 47.5t53 109t18 112.5
q-2 69 -42 75q9 -9 9 -24q0 -18 -12 -28t-32 -10q-19 0 -32 14t-13 35q0 31 22 48.5t53 17.5q48 0 76 -35.5t28 -93.5zM434 521l-20 -15l-91 99q-23 21 -23 47q0 22 14 36t34 14q40 0 51 -45z" />
    <glyph glyph-name="Wacute" unicode="&#x1e82;" 
d="M358 659l93 138q27 39 59 39q17 0 28 -11t11 -28q0 -35 -39 -60l-136 -95zM391 427l-14 -367h22l149 431l-12 21h-92l12 58h226l-13 -58h-51l-179 -512h-115l13 371l-157 -371h-118l61 512h-51l13 58h227l-13 -58h-92l-21 -21l-56 -431h22l156 367h83z" />
    <glyph glyph-name="wacute" unicode="&#x1e83;" 
d="M330 524l94 138q25 39 59 39q16 0 27.5 -11t11.5 -28q0 -35 -40 -60l-135 -95zM567 309q0 -68 -25 -141t-75 -127.5t-109 -54.5q-34 0 -57 19t-29 48q-36 -67 -108 -67q-47 0 -72 36t-14 91l49 227l-21 26h-55l13 58h138l-64 -302q-8 -38 4.5 -59.5t37.5 -21.5
q65 0 88 105l34 158h58l-37 -173q-8 -40 2.5 -65t39.5 -25q39 0 74 47.5t53 109t18 112.5q-2 69 -42 75q9 -9 9 -24q0 -18 -12 -28t-32 -10q-19 0 -32 14t-13 35q0 31 22 48.5t53 17.5q48 0 76 -35.5t28 -93.5z" />
    <glyph glyph-name="Wdieresis" unicode="&#x1e84;" 
d="M521 651q-27 0 -46 18.5t-19 44.5t19 45t46 19t45.5 -19t18.5 -45t-18.5 -44.5t-45.5 -18.5zM310 651q-27 0 -46 18.5t-19 44.5q0 27 19 45.5t46 18.5t45.5 -18.5t18.5 -45.5q0 -26 -18.5 -44.5t-45.5 -18.5zM391 427l-14 -367h22l149 431l-12 21h-92l12 58h226l-13 -58
h-51l-179 -512h-115l13 371l-157 -371h-118l61 512h-51l13 58h227l-13 -58h-92l-21 -21l-56 -431h22l156 367h83z" />
    <glyph glyph-name="wdieresis" unicode="&#x1e85;" 
d="M498 526q-26 0 -45 18.5t-19 44.5t19 45t45 19q27 0 46 -19t19 -45t-19 -44.5t-46 -18.5zM287 526q-26 0 -45 18.5t-19 44.5q0 27 19 45.5t45 18.5q27 0 46 -18.5t19 -45.5q0 -26 -19 -44.5t-46 -18.5zM567 309q0 -68 -25 -141t-75 -127.5t-109 -54.5q-34 0 -57 19
t-29 48q-36 -67 -108 -67q-47 0 -72 36t-14 91l49 227l-21 26h-55l13 58h138l-64 -302q-8 -38 4.5 -59.5t37.5 -21.5q65 0 88 105l34 158h58l-37 -173q-8 -40 2.5 -65t39.5 -25q39 0 74 47.5t53 109t18 112.5q-2 69 -42 75q9 -9 9 -24q0 -18 -12 -28t-32 -10q-19 0 -32 14
t-13 35q0 31 22 48.5t53 17.5q48 0 76 -35.5t28 -93.5z" />
    <glyph glyph-name="Ygrave" unicode="&#x1ef2;" 
d="M339 210l-26 -126l20 -26h116l-13 -58h-350l13 58h116l32 26l26 126l-137 302h-62l12 58h241l-12 -58h-71l-28 -21l100 -229l195 229l-18 21h-71l12 58h246l-12 -58h-62zM453 656l-20 -15l-91 99q-23 21 -23 47q0 22 14 36t34 14q40 0 51 -45z" />
    <glyph glyph-name="ygrave" unicode="&#x1ef3;" 
d="M401 21l18 83q-85 -99 -172 -99q-66 0 -99 43.5t-18 116.5l37 175l-20 26h-62l13 58h147l-51 -244q-25 -116 63 -116q90 0 175 116l52 244h61l-86 -406q-22 -103 -81 -161.5t-154 -58.5q-79 0 -128.5 36.5t-49.5 90.5q0 29 16 48t41 19q21 0 34.5 -13t13.5 -34
q0 -15 -11 -26.5t-25 -12.5q21 -57 109 -57q69 0 115 47t62 125zM426 521l-20 -15l-91 99q-23 21 -23 47q0 22 14 36t34 14q40 0 51 -45z" />
    <glyph glyph-name="endash" unicode="&#x2013;" 
d="M151 241l15 66h324l-15 -66h-324z" />
    <glyph glyph-name="emdash" unicode="&#x2014;" 
d="M61 241l15 66h504l-15 -66h-504z" />
    <glyph glyph-name="quoteleft" unicode="&#x2018;" 
d="M367 492q51 -18 51 -68q0 -33 -22.5 -55t-55.5 -22q-32 0 -54.5 23t-22.5 56q0 28 23 59l150 172l36 -26z" />
    <glyph glyph-name="quoteright" unicode="&#x2019;" 
d="M367 495q-51 18 -51 68q0 33 22.5 55t55.5 22q32 0 54.5 -23t22.5 -56q0 -28 -23 -59l-150 -172l-36 26z" />
    <glyph glyph-name="quotesinglbase" unicode="&#x201a;" 
d="M261 1q-51 18 -51 68q0 33 22.5 55t55.5 22q32 0 54.5 -23t22.5 -56q0 -28 -23 -59l-150 -172l-36 26z" />
    <glyph glyph-name="quotedblleft" unicode="&#x201c;" 
d="M252 492q51 -18 51 -68q0 -33 -22.5 -55t-55.5 -22q-32 0 -54.5 23t-22.5 56q0 28 23 59l150 172l36 -26zM487 492q51 -18 51 -68q0 -33 -22.5 -55t-55.5 -22q-32 0 -54.5 23t-22.5 56q0 28 23 59l150 172l36 -26z" />
    <glyph glyph-name="quotedblright" unicode="&#x201d;" 
d="M247 495q-51 18 -51 68q0 33 22.5 55t55.5 22q32 0 54.5 -23t22.5 -56q0 -28 -23 -59l-150 -172l-36 26zM482 495q-51 18 -51 68q0 33 22.5 55t55.5 22q32 0 54.5 -23t22.5 -56q0 -28 -23 -59l-150 -172l-36 26z" />
    <glyph glyph-name="quotedblbase" unicode="&#x201e;" 
d="M142 2q-51 18 -51 68q0 33 22.5 55t55.5 22q32 0 54.5 -23t22.5 -56q0 -28 -23 -59l-150 -172l-36 26zM377 2q-51 18 -51 68q0 33 22.5 55t55.5 22q32 0 54.5 -23t22.5 -56q0 -28 -23 -59l-150 -172l-36 26z" />
    <glyph glyph-name="dagger" unicode="&#x2020;" 
d="M385 445l-44 -208h-57l44 208h-136l12 56h136l27 127h57l-27 -127h135l-12 -56h-135z" />
    <glyph glyph-name="daggerdbl" unicode="&#x2021;" 
d="M362 329l-20 -92h-57l20 92h-136l11 55h136l21 100h-135l12 56h135l19 88h57l-19 -88h136l-12 -56h-136l-21 -100h135l-11 -55h-135z" />
    <glyph glyph-name="bullet" unicode="&#x2022;" 
d="M513 290q0 -77 -55 -131.5t-134 -54.5t-134 54.5t-55 131.5t55 131.5t134 54.5t134 -54.5t55 -131.5z" />
    <glyph glyph-name="ellipsis" unicode="&#x2026;" 
d="M399 58q0 28 20.5 48.5t48.5 20.5t48.5 -20.5t20.5 -48.5q0 -29 -20 -49.5t-49 -20.5t-49 20.5t-20 49.5zM200 58q0 28 20 48.5t49 20.5t49 -20.5t20 -48.5q0 -29 -20 -49.5t-49 -20.5t-49 20.5t-20 49.5zM2 58q0 28 20 48.5t49 20.5t49 -20.5t20 -48.5q0 -29 -20 -49.5
t-49 -20.5t-49 20.5t-20 49.5z" />
    <glyph glyph-name="perthousand" unicode="&#x2030;" 
d="M380 87q0 45 31.5 74.5t74.5 29.5t69.5 -27t26.5 -67q0 -45 -31 -74.5t-75 -29.5q-43 0 -69.5 27t-26.5 67zM541 96q0 23 -15.5 39t-41.5 16t-44.5 -17.5t-18.5 -44.5q0 -23 16 -39.5t41 -16.5q26 0 44.5 18t18.5 45zM245 151q-26 0 -44.5 -17.5t-18.5 -44.5
q0 -23 16 -39.5t41 -16.5t44 18t19 45q0 23 -16 39t-41 16zM247 191q43 0 69.5 -27t26.5 -67q0 -45 -31.5 -74.5t-74.5 -29.5t-69.5 27t-26.5 67q0 45 31.5 74.5t74.5 29.5zM262 490q0 -45 -31 -74.5t-75 -29.5q-43 0 -69.5 27t-26.5 67q0 45 31.5 74.5t74.5 29.5t69.5 -27
t26.5 -67zM101 482q0 -23 16 -39t41 -16q26 0 44.5 17.5t18.5 43.5q0 24 -15.5 40t-41.5 16q-25 0 -44 -18t-19 -44zM411 584l33 -23l-455 -572l-33 23z" />
    <glyph glyph-name="guilsinglleft" unicode="&#x2039;" 
d="M288 216l84 -137l-57 -34l-106 177l181 178l40 -47z" />
    <glyph glyph-name="guilsinglright" unicode="&#x203a;" 
d="M331 228l-84 137l57 34l106 -177l-181 -178l-40 47z" />
    <glyph glyph-name="fraction" unicode="&#x2044;" 
d="M611 584l31 -34l-608 -561l-31 34z" />
    <glyph glyph-name="uni2070" unicode="&#x2070;" 
d="M382 622q63 0 97.5 -42.5t34.5 -111.5q0 -99 -57 -177t-143 -78q-63 0 -97.5 43t-34.5 112q0 98 57 176t143 78zM321 266q59 0 97 62.5t38 139.5q0 46 -20 74t-61 28q-59 0 -97 -63t-38 -139q0 -46 20 -74t61 -28z" />
    <glyph glyph-name="uni2074" unicode="&#x2074;" 
d="M503 313h-74l-25 -21l-15 -69h-54l15 69l-16 21h-188l15 66q59 51 126 129t111 148l55 -17q-86 -135 -238 -278h150l20 94h54l-20 -94h95z" />
    <glyph glyph-name="uni2075" unicode="&#x2075;" 
d="M170 152l1 50q112 16 182 56t70 101q0 52 -58 52q-48 0 -81 -38h-69l61 240h243l-11 -52h-194l-37 -138q39 39 100 39q51 0 76.5 -27.5t25.5 -68.5q0 -59 -48.5 -106.5t-116 -73t-144.5 -34.5z" />
    <glyph glyph-name="uni2076" unicode="&#x2076;" 
d="M353 487q55 0 90 -33.5t34 -84.5q0 -66 -46 -111t-117 -45q-57 0 -93 37t-36 93q0 105 87.5 191.5t231.5 120.5l5 -49q-168 -46 -239 -153q33 34 83 34zM239 337q0 -32 21 -52.5t55 -20.5q43 0 75 28t32 72q0 33 -21 53t-57 20q-42 0 -73.5 -28t-31.5 -72z" />
    <glyph glyph-name="uni2077" unicode="&#x2077;" 
d="M304 561l-26 -20l-15 -71h-51l31 143h319l-13 -61l-288 -401l-47 24l278 386h-188z" />
    <glyph glyph-name="uni2078" unicode="&#x2078;" 
d="M318 214q-58 0 -98.5 29.5t-40.5 76.5q0 43 28 73t67 41l1 8q-44 22 -44 72q0 56 44 95t108 39q54 0 88 -29.5t34 -76.5q0 -38 -24 -69t-57 -40l-2 -7q25 -10 41 -31t16 -47q0 -56 -46.5 -95t-114.5 -39zM336 407q-43 0 -71 -22t-28 -59q0 -29 24.5 -45t61.5 -16
q43 0 71 22t28 59q0 29 -24.5 45t-61.5 16zM377 596q-40 0 -65 -22t-25 -57q0 -27 20.5 -42.5t51.5 -15.5q40 0 65 22t25 58q0 27 -20.5 42t-51.5 15z" />
    <glyph glyph-name="uni2079" unicode="&#x2079;" 
d="M450 498q0 32 -21.5 52.5t-55.5 20.5q-43 0 -75 -28t-32 -72q0 -32 21.5 -52.5t56.5 -20.5q42 0 74 28.5t32 71.5zM336 348q-56 0 -91 33.5t-34 84.5q0 66 46 111t117 45q58 0 93.5 -37t35.5 -93q0 -107 -91 -204t-234 -131l-5 49q84 23 148.5 71.5t97.5 104.5
q-34 -34 -83 -34z" />
    <glyph glyph-name="uni2080" unicode="&#x2080;" 
d="M303 249q63 0 97.5 -42.5t34.5 -111.5q0 -99 -57 -177t-143 -78q-63 0 -97.5 43t-34.5 112q0 99 57 176.5t143 77.5zM242 -107q59 0 97 63t38 139q0 46 -20 74t-61 28q-59 0 -97 -62.5t-38 -139.5q0 -46 20 -74t61 -28z" />
    <glyph glyph-name="uni2081" unicode="&#x2081;" 
d="M135 154l145 86h70l-68 -321l16 -21h114l-10 -48h-332l10 48h121l25 21l56 264l-126 -75z" />
    <glyph glyph-name="uni2082" unicode="&#x2082;" 
d="M162 118l-36 35q85 97 185 97q50 0 80 -26t30 -67q0 -25 -11 -47t-35 -44.5t-41.5 -35t-50.5 -35.5l-147 -97h178l26 21l10 51h51l-25 -120h-312l14 64l174 118q5 4 18 12.5t18 12t15.5 11.5t14.5 11.5l12 10.5t11 11.5t8 11t7 12.5t3.5 13t1.5 14q0 45 -54 45
q-73 0 -145 -79z" />
    <glyph glyph-name="uni2083" unicode="&#x2083;" 
d="M166 60l192 130h-203l10 50h263l-13 -65l-143 -92q13 4 28 4q43 0 67.5 -25t24.5 -65q0 -61 -50 -109t-118 -72.5t-148 -35.5v50q112 17 186 57.5t74 105.5q0 24 -15.5 39t-45.5 15q-42 0 -85 -25z" />
    <glyph glyph-name="uni2084" unicode="&#x2084;" 
d="M424 -60h-74l-25 -21l-15 -69h-54l15 69l-16 21h-188l15 67q59 50 126 128t111 149l55 -17q-86 -136 -238 -279h150l20 94h54l-20 -94h95z" />
    <glyph glyph-name="uni2085" unicode="&#x2085;" 
d="M91 -221l1 50q112 16 182 56t70 101q0 53 -58 53q-47 0 -81 -39h-69l61 240h243l-11 -52h-194l-37 -137q38 38 100 38q51 0 76.5 -27.5t25.5 -68.5q0 -59 -48.5 -106.5t-116 -73t-144.5 -34.5z" />
    <glyph glyph-name="uni2086" unicode="&#x2086;" 
d="M274 114q55 0 90 -33.5t34 -84.5q0 -66 -46 -111t-117 -45q-57 0 -93 37t-36 93q0 105 87.5 192t231.5 120l5 -49q-168 -46 -239 -153q31 34 83 34zM160 -36q0 -32 21 -52.5t55 -20.5q43 0 75 28t32 72q0 33 -21 53t-57 20q-42 0 -73.5 -28t-31.5 -72z" />
    <glyph glyph-name="uni2087" unicode="&#x2087;" 
d="M225 189l-26 -21l-15 -71h-51l31 143h319l-13 -60l-288 -402l-47 24l278 387h-188z" />
    <glyph glyph-name="uni2088" unicode="&#x2088;" 
d="M239 -159q-58 0 -98.5 29.5t-40.5 76.5q0 43 28 73.5t67 41.5l1 7q-44 22 -44 73q0 55 44 94t108 39q54 0 88 -29.5t34 -75.5q0 -38 -24 -69t-57 -40l-2 -8q25 -10 41 -30.5t16 -47.5q0 -56 -46.5 -95t-114.5 -39zM257 34q-43 0 -71 -21.5t-28 -59.5q0 -29 24.5 -45
t61.5 -16q43 0 71 22t28 59q0 30 -24.5 45.5t-61.5 15.5zM298 224q-40 0 -65 -22t-25 -58q0 -27 20.5 -42t51.5 -15q40 0 65 21.5t25 57.5q0 27 -20.5 42.5t-51.5 15.5z" />
    <glyph glyph-name="uni2089" unicode="&#x2089;" 
d="M371 126q0 32 -21.5 52t-55.5 20q-43 0 -75 -28t-32 -72q0 -32 21.5 -52t56.5 -20q42 0 74 28t32 72zM257 -25q-56 0 -91 34t-34 85q0 66 46 110.5t117 44.5q58 0 93.5 -36.5t35.5 -92.5q0 -108 -91 -205t-234 -131l-5 49q84 23 148.5 72t97.5 105q-34 -35 -83 -35z" />
    <glyph glyph-name="Euro" unicode="&#x20ac;" 
d="M551 91q-56 -54 -108 -79.5t-112 -25.5q-86 0 -144.5 61.5t-63.5 152.5h-102l20 49h83q3 39 12 73h-69l20 48h64q37 97 114 155.5t173 58.5q75 0 120 -38.5t45 -95.5q0 -40 -20 -64t-52 -24q-21 0 -34.5 12.5t-14.5 32.5q0 19 14 33.5t37 18.5q-25 62 -95 62t-126.5 -41
t-88.5 -110h204l-19 -48h-203q-10 -32 -13 -73h191l-20 -49h-171q5 -65 43.5 -107.5t101.5 -42.5q87 0 179 89z" />
    <glyph glyph-name="uni2117" unicode="&#x2117;" 
d="M430 356q0 40 -63 40h-68l-20 -94h63q88 0 88 54zM600 310q-1 -125 -90.5 -214t-213.5 -90q-114 0 -182.5 70.5t-68.5 181.5q1 125 90.5 214.5t213.5 89.5q114 0 183 -70.5t68 -181.5zM346 525q-108 -1 -185.5 -78.5t-77.5 -185.5q-1 -96 58 -156.5t158 -60.5
q107 0 185 77.5t79 185.5q0 97 -59 157.5t-158 60.5zM371 433q52 0 78 -20t25 -57q0 -43 -37 -67.5t-102 -24.5h-64l-17 -83l12 -15h29l-8 -36h-126l8 36h26l18 15l43 202l-12 15h-26l8 35h145z" />
    <glyph glyph-name="trademark" unicode="&#x2122;" 
d="M496 398h-41l-7 134h-9l-37 -175l9 -13h21l-7 -34h-97l7 34h14l17 13l35 167l-11 13h-15l7 33h95l7 -136l66 136h92l-7 -33h-15l-15 -13l-35 -167l9 -13h16l-7 -34h-97l7 34h19l17 13l37 175h-10zM120 570h228l-22 -102h-36l12 56l-11 13h-44l-38 -180l10 -13h47l-7 -34
h-158l7 34h44l16 13l38 180h-44l-16 -13l-12 -56h-35z" />
    <glyph glyph-name="uni2153" unicode="&#x2153;" 
d="M353 48l137 89h-143l9 43h194l-12 -56l-91 -58q9 3 16 3q28 0 45 -18.5t17 -47.5q0 -66 -70 -107t-164 -53v43q78 12 131.5 40.5t53.5 72.5q0 16 -11 26t-30 10q-27 0 -62 -19zM123 521l-17 38l103 61h60l-52 -245h89l-9 -41h-229l9 41h93l42 198zM531 465l41 -53
l-224 -155l-13 17zM37 59l223 154l13 -17l-196 -191z" />
    <glyph glyph-name="uni2154" unicode="&#x2154;" 
d="M144 524l-32 32q63 72 144 72q38 0 59 -19.5t21 -50.5q0 -24 -18.5 -48t-35.5 -36t-51 -33l-101 -64h177l-9 -42h-229l11 54l125 85q4 3 14 10t14 9.5t12 8.5t11.5 9t9 8t8 8.5t5.5 8t4 9t1 9.5q0 28 -35 28q-52 0 -105 -58zM531 465l41 -53l-224 -155l-13 17zM37 59
l223 154l13 -17l-196 -191zM353 48l137 89h-143l9 43h194l-12 -56l-91 -58q9 3 16 3q28 0 45 -18.5t17 -47.5q0 -66 -70 -107t-164 -53v43q78 12 131.5 40.5t53.5 72.5q0 16 -11 26t-30 10q-27 0 -62 -19z" />
    <glyph glyph-name="uni215B" unicode="&#x215b;" 
d="M439 149q-28 0 -45.5 -15.5t-17.5 -40.5q0 -18 14 -28t33 -10q28 0 45.5 15t17.5 39q0 18 -14 29t-33 11zM392 -127q-42 0 -71 22t-29 55q0 31 19 53.5t45 30.5l1 7q-27 18 -27 50q0 41 33.5 71t81.5 30q39 0 63 -22.5t24 -56.5q0 -26 -16.5 -48t-39.5 -30l-1 -7
q38 -16 38 -57q0 -40 -35 -69t-86 -29zM408 14q-29 0 -48.5 -16t-19.5 -42q0 -20 16 -30.5t41 -10.5q29 0 48.5 16t19.5 42q0 19 -16 30t-41 11zM531 465l41 -53l-224 -155l-13 17zM123 521l-17 38l103 61h60l-52 -245h89l-9 -41h-229l9 41h93l42 198zM37 59l223 154l13 -17
l-196 -191z" />
    <glyph glyph-name="uni215C" unicode="&#x215c;" 
d="M130 481l137 88h-143l9 44h195l-12 -57l-92 -57q6 2 17 2q27 0 44 -18.5t17 -47.5q0 -45 -37 -80t-87 -53t-109 -26l-1 43q79 12 132.5 40.5t53.5 72.5q0 16 -11 26t-30 10q-29 0 -62 -20zM408 14q-29 0 -48.5 -16t-19.5 -42q0 -20 16 -30.5t41 -10.5q29 0 48.5 16
t19.5 42q0 19 -16 30t-41 11zM439 149q-28 0 -45.5 -15.5t-17.5 -40.5q0 -18 14 -28t33 -10q28 0 45.5 15t17.5 39q0 18 -14 29t-33 11zM531 465l41 -53l-224 -155l-13 17zM392 -127q-42 0 -71 22t-29 55q0 31 19 53.5t45 30.5l1 7q-27 18 -27 50q0 41 33.5 71t81.5 30
q39 0 63 -22.5t24 -56.5q0 -26 -16.5 -48t-39.5 -30l-1 -7q38 -16 38 -57q0 -40 -35 -69t-86 -29zM37 59l223 154l13 -17l-196 -191z" />
    <glyph glyph-name="uni215D" unicode="&#x215d;" 
d="M75 274l1 44q79 12 128 40t49 68q0 33 -37 33q-31 0 -50 -27h-61l47 181h179l-9 -45h-138l-25 -91q24 26 68 26q38 0 56.5 -20t18.5 -50q0 -63 -69 -105.5t-158 -53.5zM37 59l223 154l13 -17l-196 -191zM439 149q-28 0 -45.5 -15.5t-17.5 -40.5q0 -18 14 -28t33 -10
q28 0 45.5 15t17.5 39q0 18 -14 29t-33 11zM531 465l41 -53l-224 -155l-13 17zM392 -127q-42 0 -71 22t-29 55q0 31 19 53.5t45 30.5l1 7q-27 18 -27 50q0 41 33.5 71t81.5 30q39 0 63 -22.5t24 -56.5q0 -26 -16.5 -48t-39.5 -30l-1 -7q38 -16 38 -57q0 -40 -35 -69t-86 -29
zM408 14q-29 0 -48.5 -16t-19.5 -42q0 -20 16 -30.5t41 -10.5q29 0 48.5 16t19.5 42q0 19 -16 30t-41 11z" />
    <glyph glyph-name="uni215E" unicode="&#x215e;" 
d="M156 568l-15 -68h-43l24 113h243l-11 -53l-214 -286l-41 21l204 273h-147zM439 149q-28 0 -45.5 -15.5t-17.5 -40.5q0 -18 14 -28t33 -10q28 0 45.5 15t17.5 39q0 18 -14 29t-33 11zM531 465l41 -53l-224 -155l-13 17zM37 59l223 154l13 -17l-196 -191zM408 14
q-29 0 -48.5 -16t-19.5 -42q0 -20 16 -30.5t41 -10.5q29 0 48.5 16t19.5 42q0 19 -16 30t-41 11zM392 -127q-42 0 -71 22t-29 55q0 31 19 53.5t45 30.5l1 7q-27 18 -27 50q0 41 33.5 71t81.5 30q39 0 63 -22.5t24 -56.5q0 -26 -16.5 -48t-39.5 -30l-1 -7q38 -16 38 -57
q0 -40 -35 -69t-86 -29z" />
    <glyph glyph-name="minus" unicode="&#x2212;" 
d="M96 247l12 58h444l-12 -58h-444z" />
    <glyph glyph-name="approxequal" unicode="&#x2248;" 
d="M542 196q-74 -57 -141 -57q-38 0 -100 28t-99 28q-65 0 -149 -66l15 68q73 57 141 57q38 0 100 -28t99 -28q65 0 149 66zM574 351q-74 -57 -141 -57q-38 0 -100 28t-99 28q-65 0 -149 -66l15 68q73 57 141 57q38 0 100 -28t99 -28q65 0 149 66z" />
    <glyph glyph-name="notequal" unicode="&#x2260;" 
d="M260 174l-112 -118l-39 30l84 88h-113l12 54h153l93 97h-226l12 54h265l112 117l37 -30l-83 -87h114l-12 -54h-153l-92 -97h225l-12 -54h-265z" />
    <glyph glyph-name="lessequal" unicode="&#x2264;" 
d="M129 308l14 67l426 162l-14 -67l-355 -132l299 -131l-13 -60zM71 36l12 57h391l-12 -57h-391z" />
    <glyph glyph-name="greaterequal" unicode="&#x2265;" 
d="M74 36l12 57h391l-12 -57h-391zM541 376l-14 -67l-426 -162l14 67l355 132l-299 131l13 60z" />
    <glyph glyph-name="i.dot" 
d="M291 145q-10 -44 9 -71t58 -27q75 0 136 140l50 -25q-79 -176 -189 -176q-66 0 -102 47t-22 114l42 193l-21 26h-168l12 58h254zM332 523q-27 0 -45.5 18.5t-18.5 45.5q0 28 18.5 47.5t45.5 19.5q28 0 47.5 -19t19.5 -48q0 -27 -19.5 -45.5t-47.5 -18.5z" />
    <glyph glyph-name="braceleft.cap" 
d="M93 243l13 62h58q42 0 72 18.5t34 53.5q1 8 1 65.5t2 79.5q6 68 50.5 109.5t121.5 41.5q68 0 112 -25l-28 -57q-37 23 -85 23q-99 0 -108 -93q-2 -17 -1 -74.5t-1 -68.5q-3 -43 -34 -68.5t-69 -35.5q26 -8 44.5 -28t18.5 -50q0 -29 -35 -105.5t-35 -100.5q0 -57 71 -57
q53 0 99 23l3 -57q-52 -25 -115 -25q-58 0 -91 28t-33 75q0 35 36 114.5t36 102.5q0 49 -79 49h-58z" />
    <glyph glyph-name="braceright.cap" 
d="M549 304l-13 -62h-58q-42 0 -72 -18.5t-34 -53.5q-1 -8 -1 -65.5t-2 -79.5q-6 -68 -50.5 -109.5t-121.5 -41.5q-68 0 -112 25l28 57q37 -23 85 -23q99 0 108 93q2 17 1 74.5t1 68.5q3 43 34 68.5t69 35.5q-26 8 -44.5 28t-18.5 50q0 29 35 105.5t35 100.5q0 57 -71 57
q-53 0 -99 -23l-3 57q52 25 115 25q58 0 91 -28t33 -75q0 -35 -36 -114.5t-36 -102.5q0 -49 79 -49h58z" />
    <glyph glyph-name="bracketleft.cap" 
d="M325 612l-143 -673h218l-12 -58h-277l168 789h277l-13 -58h-218z" />
    <glyph glyph-name="bracketright.cap" 
d="M318 -61l143 673h-218l12 58h277l-168 -789h-277l13 58h218z" />
    <glyph glyph-name="parenleft.cap" 
d="M240 199q0 -87 41.5 -159t113.5 -122l-46 -46q-78 54 -125.5 136.5t-47.5 186.5q0 83 28.5 158.5t78.5 135.5t109 107t129 84l24 -55q-136 -73 -220.5 -183.5t-84.5 -242.5z" />
    <glyph glyph-name="parenright.cap" 
d="M402 353q0 87 -41.5 159t-113.5 122l46 46q78 -54 125.5 -136.5t47.5 -186.5q0 -83 -28.5 -158.5t-78.5 -135.5t-109 -107t-129 -84l-24 55q136 73 220.5 183.5t84.5 242.5z" />
    <glyph glyph-name="guillemotleft.cap" 
d="M406 276l84 -137l-57 -34l-106 177l181 178l40 -47zM191 276l84 -137l-57 -34l-106 177l181 178l40 -47z" />
    <glyph glyph-name="guillemotright.cap" 
d="M238 288l-84 137l57 34l106 -177l-181 -178l-40 47zM453 288l-84 137l57 34l106 -177l-181 -178l-40 47z" />
    <glyph glyph-name="guilsinglleft.cap" 
d="M301 276l83 -137l-57 -34l-105 177l180 178l40 -47z" />
    <glyph glyph-name="guilsinglright.cap" 
d="M343 288l-83 137l57 34l105 -177l-180 -178l-40 47z" />
    <glyph glyph-name="questiondown.cap" 
d="M322 385h73l-22 -105q-109 -22 -164 -53t-55 -89q0 -45 35.5 -70t90.5 -25t99 19.5t54 44.5q-47 15 -47 49q0 21 17 37t42 16q27 0 46 -20t19 -50q0 -66 -68.5 -109.5t-161.5 -43.5q-86 0 -140.5 41.5t-53.5 109.5q0 76 61.5 120.5t160.5 63.5zM378 582q28 0 48 -20
t20 -49t-20 -49t-48 -20t-48.5 20t-20.5 49t20.5 49t48.5 20z" />
    <glyph glyph-name="exclamdown.cap" 
d="M220 64l106 313h37l-32 -322q-2 -29 -20 -48t-47 -19q-28 0 -41 23.5t-3 52.5zM371 584q29 0 49 -20t20 -49t-20 -49t-49 -20q-28 0 -48 20t-20 49t20 49t48 20z" />
    <glyph glyph-name="slash.cap" 
d="M2 -83l586 746l51 -34l-586 -745z" />
    <glyph glyph-name="bar.cap" 
d="M436 660l-166 -778h-66l166 778h66z" />
    <glyph glyph-name="backslash.cap" 
d="M493 -92l-59 -23l-292 749l59 23z" />
    <glyph glyph-name="a.ord" 
d="M471 270q-27 0 -40.5 16.5t-10.5 45.5q-52 -62 -117 -62q-60 0 -96.5 39t-36.5 99q0 74 52 128.5t122 54.5q42 0 72.5 -20t41.5 -47l23 67h42l-52 -245q-5 -27 10 -27q13 0 39 48l40 -17q-13 -25 -22 -39t-27.5 -27.5t-39.5 -13.5zM225 408q0 -39 22.5 -63.5t62.5 -24.5
q66 0 121 74l14 73q-22 74 -101 74q-51 0 -85 -39t-34 -94z" />
    <glyph glyph-name="b.ord" 
d="M273 467l-15 -73q24 -74 101 -74q52 0 86 39t34 94q0 39 -23 63.5t-62 24.5q-66 0 -121 -74zM246 337l-12 -57h-51l80 375l-9 11h-42l10 49h104l-40 -186q52 62 119 62q60 0 94.5 -39t34.5 -99q0 -75 -52.5 -129t-122.5 -54q-42 0 -72 20t-41 47z" />
    <glyph glyph-name="c.ord" 
d="M372 591q66 -1 104.5 -32t38.5 -75q0 -21 -14 -36t-33 -15t-32.5 12.5t-13.5 30.5q0 27 28 35q-26 32 -78 32q-53 0 -91 -33.5t-38 -90.5q0 -43 29 -71t79 -28q59 0 124 50l28 -40q-73 -60 -152 -60q-77 1 -121 42t-44 107q0 74 55 123t131 49z" />
    <glyph glyph-name="d.ord" 
d="M471 270q-27 0 -40.5 16.5t-10.5 45.5q-52 -62 -117 -62q-60 0 -96.5 39t-36.5 99q0 74 52 128.5t122 54.5q42 0 72.5 -20t41.5 -47l28 131l-10 11h-70l10 49h133l-78 -369q-5 -27 10 -27q13 0 39 48l40 -17q-13 -25 -22 -39t-27.5 -27.5t-39.5 -13.5zM225 408
q0 -39 22.5 -63.5t62.5 -24.5q66 0 121 74l14 73q-22 74 -101 74q-51 0 -85 -39t-34 -94z" />
    <glyph glyph-name="e.ord" 
d="M243 446q217 -12 217 49q0 21 -22.5 33.5t-57.5 12.5q-52 0 -89.5 -25.5t-47.5 -69.5zM501 328q-71 -58 -153 -58q-73 0 -118 41.5t-45 104.5q0 74 56 124.5t139 50.5q60 0 98 -27t38 -69q0 -110 -275 -94q6 -35 34 -57.5t73 -22.5q68 0 126 46z" />
    <glyph glyph-name="f.ord" 
d="M283 294l39 205l-16 21h-62l11 49h82q13 72 54 114t107 42q48 0 78 -25t30 -62q0 -23 -14 -38.5t-36 -15.5q-21 0 -33.5 11t-12.5 29q0 15 10.5 25t26.5 12q-15 23 -49 23q-43 0 -71.5 -29.5t-38.5 -85.5h107l-11 -49h-86l-25 -21l-39 -205q-30 -157 -137 -157
q-45 0 -72 25.5t-27 62.5q0 23 14.5 38.5t36.5 15.5q21 0 33.5 -11t12.5 -28q0 -15 -10.5 -25t-26.5 -12q10 -24 39 -24q65 0 86 115z" />
    <glyph glyph-name="g.ord" 
d="M348 541q-51 0 -83.5 -33.5t-32.5 -84.5q0 -38 23 -62t62 -24q37 0 63.5 17.5t54.5 52.5l12 65q-24 69 -99 69zM410 298l11 49q-51 -59 -111 -59t-96 38t-36 96q0 72 49 120.5t120 48.5q42 0 72.5 -20t41.5 -46l11 56h102l-11 -49h-39l-14 -11l-48 -226
q-15 -75 -61 -116.5t-120 -41.5q-58 0 -98 28t-40 67q0 22 12.5 37t32.5 15q17 0 27 -10.5t10 -25.5q0 -11 -7 -19.5t-16 -10.5q17 -38 79 -38q51 0 84.5 31.5t44.5 86.5z" />
    <glyph glyph-name="h.ord" 
d="M273 458l-38 -178h-51l77 365l-16 21h-40l10 49h112l-41 -195q61 71 119 71q47 0 69 -29.5t11 -81.5l-29 -134q-4 -27 10 -27t40 48l40 -17q-11 -19 -17 -29t-17.5 -24t-25 -20.5t-29.5 -6.5q-32 0 -45 21.5t-6 53.5l24 116q18 80 -41 80q-57 0 -116 -83z" />
    <glyph glyph-name="i.ord" 
d="M349 383q-7 -28 5.5 -45t38.5 -17q52 0 93 94l42 -20q-56 -125 -138 -125q-48 0 -75 33.5t-17 81.5l27 125l-16 22h-117l10 49h189zM372 642q-22 0 -36.5 15t-14.5 37t14.5 37t36.5 15q23 0 38 -15t15 -37t-15.5 -37t-37.5 -15z" />
    <glyph glyph-name="j.ord" 
d="M479 653q-17 -4 -32 5t-19 26q-4 19 5 33.5t26 18.5q18 5 33 -4t19 -28q5 -17 -4.5 -32t-27.5 -19zM139 253q0 26 15.5 44t38.5 18t36.5 -13t13.5 -32q0 -16 -12.5 -28.5t-30.5 -13.5q2 -20 20 -33t46 -13q84 0 110 118l45 211l-17 21h-133l11 49h204l-61 -285
q-34 -158 -159 -158q-57 0 -92 33.5t-35 81.5z" />
    <glyph glyph-name="k.ord" 
d="M445 270q-62 0 -72 64l-6 33q-10 52 -42 63l-84 -48l-21 -102h-51l78 365l-17 21h-42l10 49h114l-61 -287l158 95l2 12h-40l10 46h169l-10 -46h-32l-143 -82q39 -17 47 -67l6 -36q3 -35 31 -35q15 0 25 11t25 38l35 -24q-34 -70 -89 -70z" />
    <glyph glyph-name="l.ord" 
d="M409 715l-71 -331q-6 -28 6.5 -45.5t38.5 -17.5q50 0 93 95l42 -21q-56 -125 -138 -125q-49 0 -75.5 34t-16.5 82l56 259l-18 21h-118l10 49h191z" />
    <glyph glyph-name="m.ord" 
d="M552 346q-13 -24 -22 -37t-26 -26t-37 -13q-30 0 -42 20.5t-6 51.5l36 164q6 34 -19 34q-33 0 -61 -51l-45 -209h-49l49 226q8 34 -19 34q-31 0 -61 -51l-44 -209h-49l51 241l-9 11h-35l11 49h94l-9 -43q13 24 33 38.5t40 14.5q48 0 50 -51q13 22 34.5 36.5t42.5 14.5
q30 0 42 -19t4 -52l-37 -178q-6 -26 7 -26q12 0 37 46z" />
    <glyph glyph-name="n.ord" 
d="M275 458l-38 -178h-51l49 231l-16 21h-40l11 49h111l-12 -61q58 71 119 71q46 0 68 -29.5t11 -81.5l-28 -134q-5 -27 10 -27q13 0 39 48l41 -17q-14 -25 -23.5 -39t-27.5 -27.5t-39 -13.5q-32 0 -45 21.5t-6 53.5l24 116q20 80 -40 80q-56 0 -117 -83z" />
    <glyph glyph-name="o.ord" 
d="M364 541q-54 0 -88.5 -34.5t-34.5 -87.5q0 -44 27.5 -71.5t73.5 -27.5q54 0 88.5 34.5t34.5 87.5q0 44 -27.5 71.5t-73.5 27.5zM364 591q70 0 114 -42t44 -107q0 -70 -52 -121t-128 -51q-70 0 -114 41.5t-44 107.5q0 70 52 121t128 51z" />
    <glyph glyph-name="p.ord" 
d="M394 541q-66 0 -121 -74l-15 -73q24 -74 101 -74q52 0 86 39t34 94q0 39 -23 63.5t-62 24.5zM246 337l-28 -130l8 -11h72l-10 -49h-184l11 49h39l14 11l67 314l-9 11h-38l10 49h99l-11 -52q52 62 119 62q60 0 94.5 -39t34.5 -99q0 -75 -52.5 -129t-122.5 -54
q-42 0 -72 20t-41 47z" />
    <glyph glyph-name="q.ord" 
d="M227 408q0 -39 23 -63.5t62 -24.5q38 0 65.5 18.5t56.5 55.5l14 73q-24 74 -102 74q-51 0 -85 -39t-34 -94zM461 524l12 57h101l-11 -49h-39l-14 -11l-67 -314l9 -11h38l-10 -49h-183l10 49h71l15 11l27 125q-54 -62 -115 -62q-60 0 -96.5 39t-36.5 99q0 74 52 128.5
t122 54.5q42 0 73 -20t42 -47z" />
    <glyph glyph-name="r.ord" 
d="M442 487q0 16 10.5 25.5t26.5 9.5q9 0 11 -2q0 6 -4 9q-5 16 -30 16q-30 0 -64.5 -25.5t-93.5 -81.5l-33 -158h-51l50 231l-17 21h-67l11 49h138l-18 -84q34 34 49.5 48.5t43.5 30t56 15.5q42 0 61.5 -23.5t18.5 -57.5q0 -26 -14.5 -45t-38.5 -19q-20 0 -32.5 10.5
t-12.5 30.5z" />
    <glyph glyph-name="s.ord" 
d="M396 397l-97 27q-39 10 -58.5 26t-19.5 48q0 40 39 66.5t99 26.5q61 0 98.5 -24.5t37.5 -61.5q0 -19 -12.5 -31t-28.5 -12t-26 8.5t-10 22.5q0 12 9 20t23 7q-32 27 -91 27q-38 0 -61 -12t-23 -32q0 -14 10.5 -22t33.5 -14l105 -30q70 -20 70 -70q0 -46 -44 -71.5
t-105 -25.5q-67 0 -114.5 27.5t-47.5 66.5q0 21 12 33.5t29 12.5q15 0 25 -9t10 -24q0 -11 -7 -18.5t-18 -7.5q40 -37 112 -37q40 0 67 13t27 35t-44 35z" />
    <glyph glyph-name="t.ord" 
d="M270 511l-17 21h-68l10 49h89l24 109h52l-23 -109h169l-10 -49h-149l-25 -21l-19 -90q-21 -100 60 -100q64 0 113 80l39 -27q-26 -46 -66.5 -75t-90.5 -29q-59 0 -91 38t-18 106z" />
    <glyph glyph-name="u.ord" 
d="M298 581l-39 -180q-17 -81 41 -81q59 0 115 76l39 185h51l-49 -234q-6 -28 9 -28q13 0 39 48l41 -17q-14 -25 -23.5 -39t-27.5 -27.5t-39 -13.5q-58 0 -50 64q-18 -19 -31 -30t-36.5 -22.5t-47.5 -11.5q-47 0 -71.5 32t-13.5 84l27 125l-16 21h-40l10 49h112z" />
    <glyph glyph-name="v.ord" 
d="M264 386q-7 -32 4 -49t35 -17q63 0 117 54t54 116q0 45 -32 52q8 -8 8 -18q0 -15 -10.5 -24t-26.5 -9q-17 0 -28.5 11.5t-11.5 29.5q0 27 18.5 43t45.5 16q38 0 61.5 -28t23.5 -73q0 -80 -68 -150t-156 -70q-44 0 -70 31.5t-14 86.5l26 123l-17 21h-51l10 49h123z" />
    <glyph glyph-name="w.ord" 
d="M542 497q0 -79 -45 -152.5t-110 -74.5q-24 0 -40 13t-20 33q-25 -46 -76 -46q-34 0 -51.5 26t-9.5 64l33 151l-17 21h-41l11 49h109l-44 -212q-6 -25 1.5 -39.5t23.5 -14.5q42 0 57 65l22 111h49l-24 -118q-13 -58 24 -58q39 0 69.5 63.5t30.5 118.5q0 46 -26 51
q7 -7 7 -17q0 -13 -9.5 -21t-24.5 -8t-25 10.5t-10 26.5q0 24 16.5 38t41.5 14q37 0 57.5 -26t20.5 -68z" />
    <glyph glyph-name="x.ord" 
d="M522 332q-49 -61 -106 -61q-55 0 -81 59q-44 -59 -97 -59q-41 0 -64.5 24t-23.5 63q0 24 12 40.5t29 16.5q18 0 28.5 -11t10.5 -27q0 -25 -26 -33q12 -29 34 -29q36 0 65.5 49t29.5 116q0 28 -12 45.5t-33 17.5q-35 0 -78 -49l-28 36q52 61 106 61q57 -2 82 -59
q43 59 97 59q41 0 64.5 -24.5t23.5 -63.5q0 -24 -12 -40t-30 -16q-17 0 -27.5 10.5t-10.5 27.5q0 24 25 32q-3 9 -6 14.5t-10 10t-17 4.5q-36 0 -65.5 -48.5t-29.5 -116.5q0 -28 12 -45.5t33 -17.5q36 0 78 49z" />
    <glyph glyph-name="y.ord" 
d="M416 298l10 51q-58 -65 -116 -65q-47 0 -71.5 32.5t-12.5 84.5l23 110l-16 21h-40l11 49h111l-35 -166q-17 -81 41 -81q60 0 116 77l36 170h51l-60 -286q-35 -158 -171 -158q-57 0 -94 27t-37 65q0 23 12.5 38t32.5 15q17 0 27 -10.5t10 -25.5q0 -11 -7.5 -20t-16.5 -10
q16 -36 73 -36q48 0 79 32t44 86z" />
    <glyph glyph-name="z.ord" 
d="M522 358q0 -39 -29.5 -63t-77.5 -24q-44 0 -99 31.5t-85 34.5q-31 -29 -44 -61l-33 28q33 79 181 144q63 29 94 49q-10 3 -51.5 26t-73.5 23q-44 0 -55 -28q15 0 24.5 -8.5t9.5 -21.5q0 -16 -11 -26t-28 -10q-18 0 -31.5 13.5t-13.5 36.5q0 40 29.5 64.5t75.5 24.5
q39 0 90.5 -27t76.5 -32q23 25 34 52l34 -28q-35 -81 -182 -144q-48 -21 -79 -40q17 -4 60.5 -30.5t76.5 -26.5q48 0 57 28q-14 -1 -23.5 7.5t-9.5 21.5q0 16 10.5 26t27.5 10q18 0 31.5 -13.5t13.5 -36.5z" />
    <glyph glyph-name="zero.dnom" 
d="M334 399q63 0 97.5 -43t34.5 -111q0 -99 -57 -177t-143 -78q-63 0 -98 43.5t-35 111.5q0 98 57.5 176t143.5 78zM273 43q59 0 97 62.5t38 139.5q0 46 -20.5 74t-61.5 28q-58 0 -96 -63t-38 -139q0 -46 20 -74t61 -28z" />
    <glyph glyph-name="one.dnom" 
d="M165 304l146 86h70l-69 -321l16 -21h115l-10 -48h-333l11 48h121l25 21l56 263l-126 -74z" />
    <glyph glyph-name="two.dnom" 
d="M193 268l-36 35q85 97 185 97q50 0 80 -26.5t30 -67.5q0 -32 -23.5 -64t-47.5 -50.5t-68 -46.5l-147 -97h178l26 21l11 52h51l-26 -121h-311l13 64l174 118q71 49 87 66q23 26 23 54q0 20 -13.5 32.5t-40.5 12.5q-75 0 -145 -79z" />
    <glyph glyph-name="three.dnom" 
d="M197 210l191 129h-203l11 51h263l-14 -65l-142 -93q13 5 28 5q43 0 67 -25t24 -65q0 -47 -28 -85.5t-75 -64.5t-100 -42.5t-112 -24.5l-1 50q113 18 186.5 58t73.5 105q0 24 -15 39t-45 15q-42 0 -86 -25z" />
    <glyph glyph-name="four.dnom" 
d="M455 90h-74l-25 -21l-15 -69h-54l14 69l-16 21h-187l15 67q59 50 126 128.5t110 148.5l55 -18q-86 -137 -238 -278h150l21 94h54l-20 -94h94z" />
    <glyph glyph-name="five.dnom" 
d="M122 -71l1 50q112 17 182 57t70 100q0 53 -58 53q-46 0 -82 -39h-69l62 240h243l-11 -52h-194l-37 -137q40 38 100 38q51 0 76.5 -27.5t25.5 -68.5q0 -59 -48.5 -106.5t-116 -73t-144.5 -34.5z" />
    <glyph glyph-name="six.dnom" 
d="M304 264q56 0 91 -33.5t34 -84.5q0 -66 -46 -111t-117 -45q-58 0 -93.5 37t-35.5 93q0 105 87 191.5t232 120.5l5 -49q-167 -45 -240 -153q33 34 83 34zM190 114q0 -32 21.5 -52.5t55.5 -20.5q44 0 75.5 28.5t31.5 72.5q0 32 -21.5 52t-56.5 20q-42 0 -74 -28.5
t-32 -71.5z" />
    <glyph glyph-name="seven.dnom" 
d="M255 338l-25 -20l-15 -71h-51l31 143h319l-13 -61l-288 -401l-47 25l278 385h-189z" />
    <glyph glyph-name="eight.dnom" 
d="M270 -9q-58 0 -98.5 29.5t-40.5 76.5q0 43 28 73.5t66 40.5l2 8q-45 23 -45 73q1 55 45 94t108 39q54 0 88 -29.5t34 -76.5q0 -38 -24 -68.5t-58 -39.5l-1 -8q25 -10 41 -30.5t16 -47.5q0 -56 -46.5 -95t-114.5 -39zM288 184q-43 0 -71 -21.5t-28 -58.5q0 -30 24 -46
t62 -16q42 0 70 22t28 59q0 29 -24 45t-61 16zM329 373q-40 0 -65 -22t-25 -57q0 -27 20.5 -42.5t51.5 -15.5q40 0 65 22t25 58q0 27 -21 42t-51 15z" />
    <glyph glyph-name="nine.dnom" 
d="M401 276q0 32 -21 52t-55 20q-43 0 -75 -28t-32 -72q0 -32 21 -52t57 -20q42 0 73.5 28t31.5 72zM287 125q-55 0 -90 33.5t-34 84.5q0 67 46 111.5t117 44.5q57 0 93 -37t36 -93q0 -107 -91 -204t-234 -130l-5 48q84 23 148.5 72t96.5 104q-33 -34 -83 -34z" />
  </font>
</defs>
</svg>
