<svg width="41" height="66" viewBox="0 0 41 66" fill="none" xmlns="http://www.w3.org/2000/svg">
<path fill-rule="evenodd" clip-rule="evenodd" d="M8.93506 66L-8.31422e-05 57.0649L23.0648 34L-7.91094e-05 10.9351L8.93507 2L40.9351 34L8.93506 66ZM39.0039 34L8.93506 3.93113L1.93105 10.9351L24.9959 34L1.93105 57.0649L8.93506 64.0689L39.0039 34Z" fill="white"/>
<path fill-rule="evenodd" clip-rule="evenodd" d="M8.93506 64L-8.22795e-05 55.0649L23.0648 32L-7.82468e-05 8.93514L8.93507 -1.19258e-06L40.9351 32L8.93506 64ZM39.0039 32L8.93506 1.93113L1.93105 8.93514L24.9959 32L1.93105 55.0649L8.93506 62.0689L39.0039 32Z" fill="#323844"/>
</svg>
