<svg width="41" height="66" viewBox="0 0 41 66" fill="none" xmlns="http://www.w3.org/2000/svg">
<path fill-rule="evenodd" clip-rule="evenodd" d="M31.9999 2L40.9351 10.9351L17.8702 34L40.9351 57.0649L31.9999 66L-6.10352e-05 34L31.9999 2ZM1.93107 34L31.9999 64.0689L39.0039 57.0649L15.9391 34L39.004 10.9351L31.9999 3.93113L1.93107 34Z" fill="white"/>
<path fill-rule="evenodd" clip-rule="evenodd" d="M31.9999 0L40.9351 8.93514L17.8702 32L40.9351 55.0649L31.9999 64L-6.10352e-05 32L31.9999 0ZM1.93107 32L31.9999 62.0689L39.0039 55.0649L15.9391 32L39.004 8.93514L31.9999 1.93113L1.93107 32Z" fill="#323844"/>
</svg>
